<svg preserveAspectRatio="xMidYMid meet" viewBox="37.42454728370221 97.848 507.0422535211267 247.64" xmlns="http://www.w3.org/2000/svg" version="1.0" style="max-height: 500px" width="507.0422535211267" height="247.64">
<g stroke="none" fill="#000000" transform="translate(0.000000,604.000000) scale(0.100000,-0.100000)">
<path d="M3313 5009 c-18 -5 -38 -17 -45 -27 -10 -14 -37 -21 -118 -30 -264&#10;-29 -452 -122 -573 -283 l-51 -69 -107 0 c-122 0 -336 16 -424 31 -121 21&#10;-230 93 -276 181 -26 51 -68 70 -161 76 -72 4 -78 3 -102 -21 -14 -14 -26 -35&#10;-26 -45 0 -16 -10 -21 -52 -26 -29 -4 -78 -16 -109 -26 -44 -15 -64 -17 -90&#10;-10 -152 44 -255 -49 -203 -183 3 -9 -3 -17 -18 -20 -25 -7 -52 -42 -43 -57 4&#10;-6 15 -10 25 -10 11 0 108 -18 217 -39 153 -30 216 -47 278 -76 44 -20 91 -40&#10;105 -44 21 -6 14 -11 -50 -30 -41 -12 -81 -24 -88 -26 -6 -2 -20 -20 -29 -40&#10;-9 -19 -20 -35 -25 -35 -12 0 -10 8 7 34 15 22 14 24 -7 30 -51 15 -199 18&#10;-278 7 -162 -24 -287 -85 -409 -197 -183 -169 -262 -368 -248 -617 16 -271&#10;172 -513 406 -630 l85 -42 -160 -7 c-183 -8 -264 -16 -264 -27 0 -19 437 -39&#10;1100 -51 602 -11 2744 -4 3200 10 360 11 650 26 658 35 3 3 3 7 1 10 -9 8&#10;-238 24 -387 27 -99 2 -138 6 -127 13 8 6 42 26 76 45 96 54 218 189 274 303&#10;55 111 75 199 75 332 0 134 -20 221 -76 335 -40 81 -61 109 -143 191 -81 81&#10;-110 102 -191 142 -96 48 -132 57 -126 35 1 -7 1 -10 -1 -6 -2 3 -18 4 -36 2&#10;-21 -2 -26 -1 -14 4 10 4 18 11 18 15 -2 19 0 21 9 7 9 -13 13 -11 31 10 l21&#10;24 -59 15 c-88 21 -272 18 -358 -7 -38 -11 -70 -20 -71 -19 -10 18 -104 201&#10;-104 203 0 2 20 -6 45 -17 31 -14 62 -19 97 -17 47 3 55 7 75 37 35 51 46 106&#10;41 207 -3 73 -9 101 -32 147 -36 74 -62 92 -124 83 -76 -10 -140 -35 -176 -69&#10;-32 -30 -95 -62 -104 -52 -2 2 3 14 12 27 24 33 20 63 -11 83 -21 14 -30 15&#10;-45 6 -16 -10 -20 -7 -29 16 -6 16 -17 36 -26 45 -14 16 -18 16 -67 -2 -58&#10;-23 -76 -42 -76 -82 0 -35 -8 -35 -44 2 -36 37 -118 77 -175 86 -31 5 -45 13&#10;-51 29 -5 12 -26 29 -47 38 -50 20 -159 29 -200 16z m157 -49 c44 -13 -4 -23&#10;-76 -16 -41 4 -64 3 -64 -4 0 -6 27 -10 63 -11 34 0 56 -3 48 -6 -11 -5 -11&#10;-7 0 -15 9 -6 -8 -7 -51 -4 -50 5 -61 4 -47 -5 10 -6 49 -11 86 -10 79 1 196&#10;-29 257 -64 22 -13 57 -42 77 -64 20 -23 45 -41 54 -41 15 0 16 -2 3 -10 -8&#10;-5 -12 -10 -8 -10 4 0 -2 -10 -13 -22 -83 -92 -139 -172 -139 -199 0 -17 6&#10;-32 15 -35 22 -9 18 -24 -12 -57 l-28 -29 30 8 c60 14 101 35 127 67 32 38 37&#10;19 7 -30 -42 -67 -34 -66 -513 -59 -596 9 -746 16 -746 34 0 4 217 6 482 4&#10;445 -2 486 -1 518 15 52 27 73 73 66 153 -11 134 -63 218 -158 261 -48 21 -67&#10;23 -193 23 -217 -1 -376 -45 -525 -143 -89 -59 -181 -147 -153 -148 23 0 54&#10;27 46 40 -3 5 -2 7 4 4 6 -4 26 9 45 28 19 19 56 46 81 59 26 12 43 27 39 31&#10;-4 4 3 5 16 2 12 -3 20 -1 16 4 -3 5 3 9 13 9 11 0 23 4 29 8 8 8 119 45 126&#10;43 2 0 30 7 63 17 79 24 338 23 361 -1 4 -4 16 -7 26 -7 27 0 108 -84 108&#10;-112 0 -13 6 -30 12 -36 20 -20 20 -153 0 -176 -9 -10 -16 -20 -14 -22 1 -2 0&#10;-4 -3 -4 -3 -1 -22 -7 -42 -14 -30 -10 -134 -12 -492 -9 -462 4 -481 2 -481&#10;-33 0 -7 18 -23 40 -34 33 -17 54 -19 130 -17 69 3 95 0 106 -10 20 -20 17&#10;-26 -6 -13 -38 20 -37 1 1 -41 22 -23 39 -46 39 -51 0 -14 -55 -5 -56 10 -1 6&#10;-2 22 -3 35 -1 31 -32 45 -108 52 -56 5 -63 3 -77 -17 -9 -12 -16 -35 -16 -51&#10;0 -16 -4 -26 -10 -22 -22 13 -50 -7 -60 -44 -12 -45 -6 -82 17 -100 17 -13 17&#10;-13 1 -8 -10 4 -18 1 -18 -5 0 -18 -10 -3 -15 22 -10 54 -46 58 -59 6 -3 -13&#10;-15 -45 -26 -70 -11 -26 -19 -49 -19 -52 0 -4 -12 -15 -28 -25 -15 -10 -23&#10;-19 -18 -20 18 -1 -80 -29 -103 -29 -13 0 -36 -7 -52 -15 -26 -14 -28 -18 -17&#10;-35 11 -18 21 -24 67 -38 8 -3 44 -5 79 -6 114 -2 172 55 186 180 4 35 10 66&#10;14 69 5 2 7 -6 7 -18 -1 -12 2 -33 6 -46 5 -14 6 -32 2 -40 -4 -9 -8 -19 -9&#10;-23 -2 -5 -3 -9 -4 -10 -11 -14 -7 -51 7 -68 15 -18 21 -20 46 -10 29 11 142&#10;15 186 6 14 -3 61 -12 105 -21 75 -16 80 -16 92 1 7 10 13 26 13 36 0 15 9 17&#10;93 12 50 -2 130 -6 177 -8 79 -3 84 -5 83 -25 0 -11 -1 -34 -2 -50 -1 -21 -7&#10;-31 -23 -35 -22 -7 -22 -7 -3 -16 48 -21 55 -14 55 50 0 44 4 60 13 60 21 0&#10;44 31 54 70 11 40 5 39 103 22 93 -16 115 -39 114 -118 0 -41 -11 -74 -52&#10;-159 -37 -76 -52 -119 -52 -148 0 -67 -16 -76 -23 -14 -6 61 -33 121 -69 154&#10;-13 13 -52 34 -86 48 -68 28 -76 29 -67 16 7 -12 -17 -8 -70 12 -195 71 -320&#10;80 -385 26 -14 -11 -18 -17 -11 -13 10 5 8 -3 -6 -22 -11 -16 -23 -36 -26 -44&#10;-4 -11 -7 -10 -12 7 -4 13 -11 20 -16 17 -5 -3 -9 0 -9 5 0 14 -79 64 -107 67&#10;-12 1 -26 4 -30 7 -9 5 -90 20 -108 19 -52 -1 -108 -14 -145 -33 -25 -13 -49&#10;-22 -53 -21 -5 1 -31 -9 -58 -23 -28 -14 -52 -25 -55 -25 -4 0 -44 76 -44 84&#10;0 2 17 -5 37 -15 39 -20 103 -26 103 -10 0 13 -37 24 -51 15 -8 -5 -9 -3 -4 6&#10;5 8 3 11 -6 8 -7 -2 -24 1 -38 8 -20 11 -28 10 -50 -4 -14 -10 -22 -11 -18 -4&#10;5 6 5 12 0 12 -4 0 -14 15 -22 33 -28 65 -73 163 -101 224 -20 43 -26 64 -18&#10;69 7 4 8 3 4 -4 -4 -7 -2 -12 3 -12 6 0 10 -3 9 -7 -5 -15 23 -69 42 -81 31&#10;-19 45 17 30 77 -19 74 -22 100 -11 118 9 16 52 27 189 47 56 8 26 15 -59 12&#10;-102 -2 -152 -19 -164 -56 -3 -11 1 -48 11 -82 26 -98 27 -108 15 -108 -6 0&#10;-11 6 -11 14 0 8 -16 52 -35 97 -41 97 -42 109 -14 135 19 17 36 19 188 17 91&#10;-2 200 -5 241 -8 71 -4 76 -3 93 20 14 20 15 29 7 45 -6 11 -15 18 -21 15 -5&#10;-4 -9 -2 -9 3 0 10 -191 36 -260 35 -25 0 -39 2 -32 4 37 13 -4 21 -140 26&#10;-84 3 -187 11 -229 17 -64 10 -78 16 -87 35 -18 38 -116 185 -176 263 -31 40&#10;-56 77 -56 82 0 11 33 30 54 30 8 0 24 -16 36 -35 12 -19 26 -35 31 -35 5 0 2&#10;11 -7 25 -9 14 -14 28 -11 32 10 9 37 -17 57 -56 54 -106 154 -174 300 -205&#10;119 -25 135 -26 323 -26 185 0 217 -6 217 -40 0 -33 -33 -40 -192 -40 -210 0&#10;-382 32 -466 86 -13 9 -26 13 -30 10 -8 -9 39 -56 73 -72 30 -14 29 -14 -17&#10;-8 -27 3 -48 1 -48 -4 0 -12 142 -31 288 -39 61 -3 112 -10 112 -15 0 -5 6 -6&#10;13 -1 6 4 49 6 95 5 90 -4 165 5 157 18 -3 5 4 11 15 15 11 3 20 14 20 23 0 9&#10;3 28 5 42 3 14 2 19 -1 12 -5 -10 -9 -10 -20 -1 -23 19 -16 33 24 51 37 17 37&#10;17 14 -2 -12 -10 -18 -21 -13 -24 5 -3 51 36 102 87 79 78 109 100 189 140&#10;107 53 283 102 404 113 70 6 76 8 76 30 0 12 6 25 13 27 18 8 119 6 147 -3z&#10;m66 -24 c22 -22 18 -39 -6 -26 -11 6 -20 7 -20 3 0 -4 -4 -1 -10 7 -6 9 -5 17&#10;3 22 16 10 16 10 33 -6z m-491 -36 c-11 -5 -31 -8 -45 -8 -23 0 -22 1 5 8 42&#10;11 65 11 40 0z m919 -24 c15 -24 14 -25 -17 -43 -42 -25 -70 -35 -62 -24 3 5&#10;1 12 -4 15 -11 7 -9 -13 2 -31 8 -12 -5 -18 -28 -13 -5 1 -7 -1 -3 -5 7 -7&#10;-21 -45 -33 -45 -4 0 -12 13 -18 28 -6 15 -23 36 -37 47 -46 34 -67 55 -57 55&#10;6 0 28 -16 49 -35 22 -19 45 -33 52 -30 8 3 10 0 6 -8 -4 -6 5 -1 20 13 14 13&#10;25 29 22 35 -2 6 4 11 14 11 10 0 18 -4 17 -9 -3 -16 17 -17 37 -2 28 21 10&#10;38 -33 30 -40 -8 -39 -3 4 19 40 21 50 20 69 -8z m-999 5 c-6 -5 -21 -11 -35&#10;-15 -21 -5 -20 -3 5 9 35 17 42 18 30 6z m-1470 -45 c-15 -23 -11 -56 7 -56 5&#10;0 7 -4 4 -8 -2 -4 9 -23 25 -41 16 -18 26 -38 22 -45 -3 -6 -2 -8 2 -3 10 9&#10;45 -21 45 -38 0 -7 7 -18 15 -25 9 -7 28 -34 42 -61 15 -26 31 -45 35 -43 5 3&#10;7 2 6 -3 -4 -15 13 -53 24 -53 6 0 8 -3 5 -7 -9 -8 30 -36 41 -29 5 3 9 -1 9&#10;-9 0 -8 -5 -11 -11 -8 -6 4 -5 0 1 -9 7 -8 9 -19 5 -23 -4 -5 -1 -5 6 -1 6 4&#10;12 2 12 -4 0 -6 -14 -16 -31 -22 -22 -7 -27 -14 -20 -21 14 -14 14 -27 0 -27&#10;-5 0 -8 4 -5 9 9 13 -31 43 -61 47 -15 1 -37 -6 -51 -17 -23 -18 -27 -18 -46&#10;-4 -36 26 -96 56 -96 48 0 -5 -4 -3 -8 2 -12 17 -135 65 -178 70 -21 2 -39 4&#10;-39 5 0 1 -9 3 -20 5 -11 1 -67 13 -125 24 -58 12 -113 23 -122 24 -24 2 -23&#10;19 2 35 12 7 18 17 15 22 -4 6 -8 31 -10 58 -3 43 -2 45 11 28 8 -11 14 -26&#10;14 -33 0 -7 3 -13 8 -14 4 0 17 -2 30 -3 13 -2 26 2 29 7 4 6 0 7 -8 3 -8 -4&#10;-6 -1 4 7 9 8 17 20 17 26 0 7 4 10 9 6 6 -3 14 2 19 11 5 9 13 16 18 16 18 1&#10;46 26 35 32 -18 11 -80 -24 -111 -63 l-30 -36 0 47 c0 37 4 50 20 58 19 10 24&#10;7 21 -15 -1 -5 5 -1 13 9 13 16 24 18 75 13 37 -3 64 -1 72 7 8 6 5 1 -5 -12&#10;-11 -12 -21 -20 -24 -17 -5 4 -72 -43 -84 -59 -4 -6 -4 -14 -1 -20 3 -5 1 -6&#10;-5 -2 -7 4 -20 -6 -32 -26 -24 -40 -24 -37 1 -68 11 -14 17 -18 13 -10 -5 10&#10;1 8 15 -5 25 -22 86 -28 101 -10 11 14 3 45 -11 45 -19 0 -8 21 21 39 16 10&#10;27 21 23 24 -3 4 2 7 12 7 23 0 85 22 85 30 0 13 85 -4 126 -26 59 -31 64 -30&#10;28 7 -64 68 -116 72 -229 19 -61 -29 -129 -89 -109 -97 20 -7 49 -31 44 -36&#10;-7 -6 -110 34 -110 43 0 4 21 30 48 58 62 67 142 104 237 110 l71 4 34 -49&#10;c20 -28 41 -48 48 -45 10 3 9 8 -3 22 -10 11 -18 30 -19 44 -1 17 -4 21 -12&#10;15 -12 -9 -30 16 -25 35 1 5 -4 6 -12 3 -8 -3 -20 -1 -28 3 -11 7 -10 12 4 28&#10;9 10 17 24 17 32 0 13 28 39 43 40 4 0 1 -11 -8 -24z m1390 14 c-11 -5 -27 -9&#10;-35 -9 -13 -1 -13 0 0 9 8 5 24 9 35 9 l20 0 -20 -9z m-62 -31 c-6 -6 -17 -11&#10;-25 -13 -8 -1 -27 -9 -41 -19 -15 -9 -32 -17 -39 -16 -7 0 -3 5 10 11 12 6 22&#10;15 22 20 0 5 5 6 10 3 6 -3 13 1 16 10 6 13 8 14 15 3 7 -10 9 -11 9 0 0 7 5&#10;10 10 7 6 -3 10 -1 10 6 0 7 3 9 7 6 4 -4 2 -12 -4 -18z m1243 10 c3 -6 -17&#10;-35 -46 -64 -48 -48 -54 -52 -68 -38 -19 18 -4 49 23 46 10 0 14 4 11 13 -5&#10;14 38 54 60 54 7 0 16 -5 20 -11z m327 -66 c4 -37 3 -71 -1 -75 -4 -4 -9 2 -9&#10;14 -1 13 -8 27 -15 33 -8 6 -13 27 -12 50 2 48 1 45 18 45 9 0 15 -20 19 -67z&#10;m-63 17 c0 -31 -4 -40 -17 -40 -10 -1 -42 -9 -70 -19 -40 -13 -53 -15 -53 -5&#10;0 20 47 70 82 87 50 25 58 22 58 -23z m-370 20 c0 -5 -5 -10 -11 -10 -5 0 -7&#10;5 -4 10 3 6 8 10 11 10 2 0 4 -4 4 -10z m503 -84 c9 -36 17 -91 17 -123 0 -57&#10;-24 -153 -39 -153 -4 0 -8 75 -10 167 -1 92 -5 171 -7 175 -3 4 1 5 8 3 8 -3&#10;22 -34 31 -69z m-533 19 c20 -22 22 -27 10 -55 -14 -33 -25 -38 -33 -15 -4 8&#10;-21 19 -39 25 l-33 10 38 -4 c20 -3 37 -1 37 5 0 8 -18 13 -47 12 -17 -1 -16&#10;7 4 29 22 24 35 23 63 -7z m125 5 c3 -5 -1 -10 -10 -10 -9 0 -13 5 -10 10 3 6&#10;8 10 10 10 2 0 7 -4 10 -10z m-1375 -15 c-7 -8 -17 -15 -23 -15 -6 0 -2 7 9&#10;15 25 19 30 19 14 0z m1685 -35 c-3 -5 3 -11 13 -14 16 -5 20 -21 26 -98 8&#10;-125 8 -158 -4 -158 -16 0 -36 50 -23 58 5 4 12 22 15 40 l5 32 -23 -21 c-13&#10;-12 -21 -27 -17 -32 4 -6 0 -8 -10 -4 -10 3 -17 2 -17 -2 0 -5 -8 -7 -17 -5&#10;-22 5 -69 -19 -66 -33 1 -6 -4 -14 -12 -17 -8 -3 -15 0 -15 7 0 7 -11 12 -25&#10;12 -23 0 -28 -7 -41 -52 -9 -29 -20 -53 -25 -53 -5 0 -9 -7 -7 -16 2 -10 -3&#10;-19 -10 -21 -7 -3 -10 1 -6 10 3 8 -3 32 -13 54 -22 44 -20 79 5 85 30 8 37&#10;12 64 36 17 16 24 30 20 41 -5 14 -4 15 13 1 12 -10 16 -10 11 -2 -4 7 -3 19&#10;3 25 13 16 3 59 -12 50 -7 -4 -8 0 -3 13 4 10 9 27 12 38 5 24 4 24 43 31 19&#10;3 41 10 49 14 18 10 75 -7 67 -19z m-199 -5 c16 -24 16 -27 -1 -46 -18 -19&#10;-18 -20 3 -35 12 -8 22 -19 22 -25 0 -13 -54 -11 -68 3 -9 9 -12 9 -12 -3 0&#10;-21 20 -38 36 -32 8 3 14 0 14 -5 0 -20 -31 -42 -59 -42 -15 0 -32 -5 -39 -12&#10;-18 -18 -15 -108 4 -130 14 -14 14 -20 4 -33 -17 -20 -56 -19 -64 2 -15 37 -4&#10;173 17 211 21 39 36 54 49 46 4 -3 8 1 8 10 0 8 3 21 6 30 9 25 -24 31 -48 10&#10;-21 -19 -21 -19 -16 14 4 29 2 32 -16 26 -19 -6 -19 -5 -6 11 10 12 23 15 47&#10;12 18 -3 35 -1 38 4 13 20 64 9 81 -16z m-2348 -30 c-3 -3 -9 2 -12 12 -6 14&#10;-5 15 5 6 7 -7 10 -15 7 -18z m2055 1 c21 -16 22 -26 3 -26 -21 0 -84 -80 -88&#10;-111 l-3 -27 -26 28 -25 28 45 61 c47 62 63 70 94 47z m122 -14 c-3 -3 2 -14&#10;12 -24 15 -17 15 -21 -5 -56 -12 -23 -23 -63 -26 -102 -3 -39 -10 -66 -17 -69&#10;-12 -4 -37 -28 -67 -65 -8 -10 -9 -16 -2 -16 7 0 6 -10 -3 -27 -7 -16 -19 -48&#10;-27 -73 -7 -25 -19 -59 -26 -77 -8 -17 -14 -38 -14 -46 0 -17 -21 -27 -58 -27&#10;-33 0 -18 -17 26 -29 22 -7 34 -6 39 2 4 7 31 82 60 166 29 85 59 158 66 163&#10;21 14 29 9 23 -15 -8 -35 20 -70 53 -64 14 2 33 7 41 10 11 5 25 -14 53 -74&#10;l38 -81 -89 -92 c-54 -55 -108 -124 -136 -172 -51 -86 -53 -94 -31 -94 18 0&#10;19 5 -4 -55 -28 -75 -45 -205 -38 -304 13 -192 76 -329 212 -467 55 -55 111&#10;-102 143 -118 28 -14 52 -27 52 -29 0 -1 -624 -2 -1386 -2 -1172 0 -1380 2&#10;-1352 13 89 37 247 181 304 277 20 34 31 44 43 39 144 -61 201 -69 771 -110&#10;709 -50 811 -45 918 52 71 63 143 216 257 539 43 124 52 162 51 211 -3 85 -37&#10;152 -93 179 -23 11 -43 27 -45 35 -3 11 -6 12 -11 3 -4 -6 0 -19 9 -27 8 -9&#10;12 -16 7 -16 -11 0 -37 32 -41 51 -2 8 0 11 3 7 10 -10 47 11 40 23 -4 5 -1 9&#10;4 9 17 0 13 50 -4 57 -9 3 -25 -3 -35 -12 -19 -18 -20 -17 -20 6 0 14 7 34 15&#10;46 11 16 12 24 4 29 -8 5 -9 3 -4 -6 5 -9 4 -11 -4 -6 -6 4 -9 12 -5 17 3 5 9&#10;7 13 5 4 -3 24 10 44 29 21 19 41 35 47 35 5 0 7 7 4 15 -4 10 0 13 17 10 16&#10;-3 20 -2 12 6 -6 6 -9 19 -6 28 3 9 -14 -2 -38 -25 -35 -32 -223 -167 -274&#10;-197 -6 -3 -17 -2 -24 2 -8 6 33 37 125 97 75 48 152 102 170 120 19 17 37 28&#10;40 25 4 -3 5 1 2 9 -3 8 -2 25 3 36 10 28 -10 57 -34 48 -9 -3 -17 -11 -17&#10;-16 0 -6 -6 -5 -15 2 -18 15 -11 30 13 24 16 -5 49 32 38 43 -5 6 8 24 41 55&#10;12 12 20 26 16 31 -3 6 -1 7 5 3 7 -4 12 -2 12 3 0 6 7 11 15 11 8 0 15 5 15&#10;11 0 5 4 8 9 5 5 -3 11 0 14 8 4 9 15 12 32 9 14 -3 23 -8 20 -11z m-255 -147&#10;c16 -20 5 -32 -14 -16 -19 16 -37 5 -29 -17 6 -15 5 -15 -10 -3 -13 10 -14 18&#10;-6 32 12 23 42 25 59 4z m617 -62 c-7 -7 -85 16 -92 28 -4 6 8 7 33 3 28 -4&#10;42 -2 48 7 7 11 10 8 12 -9 2 -13 1 -26 -1 -29z m-597 6 c0 -11 -40 -32 -48&#10;-25 -3 3 0 6 6 6 7 0 11 3 11 8 -4 21 3 31 16 26 8 -4 15 -10 15 -15z m678&#10;-504 c-2 -2 -11 -5 -21 -7 -15 -2 -39 37 -127 210 -96 188 -110 210 -120 192&#10;-10 -18 4 -50 94 -225 58 -112 102 -206 97 -210 -5 -3 -57 88 -116 202 l-106&#10;208 19 35 c11 19 23 50 27 67 6 30 16 15 131 -218 69 -139 123 -253 122 -254z&#10;m-2248 435 c168 -18 307 -33 309 -36 2 -2 -2 -11 -10 -20 -16 -19 -4 -20 -389&#10;26 -249 29 -310 43 -310 69 0 4 21 5 48 0 26 -4 184 -22 352 -39z m-351 -56&#10;c21 -21 60 -104 224 -476 63 -141 111 -261 106 -265 -4 -4 -9 -17 -11 -28 l-5&#10;-20 -8 20 c-57 145 -319 743 -332 757 -9 10 -24 18 -34 18 -10 0 -20 4 -23 8&#10;-10 17 66 4 83 -14z m111 11 c19 -1 42 -4 50 -4 10 -1 6 -9 -13 -22 -15 -12&#10;-35 -35 -43 -52 -15 -28 -17 -29 -27 -11 -6 10 -15 22 -21 26 -6 4 -8 8 -4 8&#10;4 0 -1 15 -11 34 l-19 33 27 -4 c14 -2 42 -6 61 -8z m-244 -23 c6 -12 26 -32&#10;45 -45 19 -12 35 -31 37 -41 3 -16 -3 -14 -38 12 -24 17 -46 29 -51 27 -4 -3&#10;-5 3 -2 14 3 10 0 22 -6 25 -7 4 -11 -1 -11 -13 0 -12 -4 -21 -9 -21 -5 0 -7&#10;-8 -4 -19 3 -14 -34 -109 -52 -129 -1 -1 -20 8 -43 20 -40 23 -40 24 -22 46&#10;19 23 45 29 55 12 4 -6 11 -7 17 -4 6 4 -3 14 -22 24 -29 15 -31 18 -16 32 9&#10;10 24 14 37 11 15 -4 20 -3 15 5 -12 19 -45 14 -114 -19 -44 -20 -61 -33 -53&#10;-39 8 -5 9 -10 3 -14 -6 -3 -29 -40 -51 -81 -41 -74 -56 -86 -79 -63 -9 9 -12&#10;9 -12 0 0 -15 38 -35 55 -28 7 2 35 43 61 90 27 47 54 86 61 86 6 0 -14 -45&#10;-45 -100 -42 -73 -62 -99 -77 -100 -26 0 -85 36 -85 52 0 7 25 54 55 105 l56&#10;93 87 25 c48 14 98 31 112 38 66 30 80 30 96 -1z m1232 4 c-10 -7 -24 -27 -31&#10;-44 l-13 -32 -32 45 -32 45 63 0 c53 -1 60 -2 45 -14z m203 -4 c-7 -2 -18 1&#10;-23 6 -8 8 -4 9 13 5 13 -4 18 -8 10 -11z m81 -17 c-12 -25 -23 -35 -39 -35&#10;-13 0 -23 5 -23 10 0 16 47 60 63 60 12 0 12 -5 -1 -35z m-1405 -40 c0 -9 -12&#10;-2 -28 17 -37 43 -37 59 -1 25 16 -15 29 -34 29 -42z m1276 45 c24 -19 26 -29&#10;29 -98 2 -60 6 -77 18 -77 11 0 16 14 18 53 4 66 22 59 22 -9 0 -27 5 -49 10&#10;-49 6 0 10 25 10 55 0 37 4 55 13 55 8 0 11 -16 9 -55 -3 -45 -1 -55 12 -55&#10;13 0 16 12 16 68 0 76 21 112 65 112 35 0 83 -46 95 -92 13 -48 9 -55 -25 -40&#10;-38 18 -53 15 -71 -13 -14 -21 -15 -31 -5 -51 11 -25 10 -25 -16 -20 -16 3&#10;-87 8 -160 12 l-131 6 -7 35 c-3 19 -17 46 -31 60 -27 27 -29 38 -10 72 28 51&#10;95 65 139 31z m517 -2 c-19 -12 -61 -39 -92 -59 l-58 -38 -19 43 c-10 24 -24&#10;47 -30 50 -31 19 -1 26 112 26 l122 0 -35 -22z m80 8 c0 -9 -30 -14 -35 -6 -4&#10;6 3 10 14 10 12 0 21 -2 21 -4z m-992 -23 c-12 -3 -17 -18 -20 -56 -2 -29 -3&#10;-53 -2 -55 1 -2 11 3 23 10 17 10 21 23 21 60 0 27 5 48 10 48 6 0 10 -22 10&#10;-50 0 -36 -5 -52 -17 -59 -16 -9 -16 -10 5 -11 12 0 22 -4 22 -9 0 -5 2 -16 5&#10;-23 5 -11 -7 -13 -61 -10 -60 4 -66 3 -62 -14 3 -15 14 -18 76 -18 68 -1 72 0&#10;72 22 0 12 -4 22 -10 22 -5 0 -10 7 -10 15 0 8 9 15 20 15 17 0 20 -7 20 -45&#10;l0 -45 -52 -1 c-29 0 -47 -3 -40 -6 6 -2 12 -16 12 -29 0 -17 -6 -24 -20 -24&#10;-11 0 -20 -7 -20 -15 0 -36 -101 -50 -120 -16 -21 41 -2 106 21 70 7 -11 9&#10;-10 9 4 0 9 7 17 15 17 8 0 15 8 15 19 0 14 -6 17 -25 13 -14 -2 -25 -8 -25&#10;-13 0 -5 -9 -9 -20 -9 -16 0 -20 7 -20 33 0 51 11 77 31 77 11 0 19 -6 19 -14&#10;0 -7 12 -16 28 -19 31 -6 43 0 23 12 -7 5 -15 32 -18 60 l-5 51 54 -1 c29 -1&#10;46 -3 36 -6z m-1522 -21 c-3 -5 23 -7 57 -6 77 4 98 -2 94 -26 -2 -11 -6 -23&#10;-10 -26 -4 -4 -4 -17 -1 -30 5 -21 -13 -60 -42 -91 -10 -10 -13 -9 -18 3 -3 8&#10;-10 12 -16 9 -5 -3 -10 -1 -10 6 0 10 -3 10 -12 1 -8 -8 -15 -8 -23 -2 -15 12&#10;-163 -6 -182 -22 -7 -6 -24 -7 -39 -4 -16 4 -23 3 -20 -3 8 -13 -33 -41 -50&#10;-34 -8 3 -14 1 -14 -5 0 -6 -20 -22 -45 -37 -25 -14 -43 -30 -39 -36 3 -5 1&#10;-8 -4 -7 -14 4 -109 -101 -123 -134 -6 -15 -15 -25 -20 -22 -5 3 -9 -6 -9 -19&#10;0 -14 -10 -46 -21 -73 -33 -73 -37 -235 -9 -334 11 -41 21 -81 22 -87 1 -7 4&#10;-13 8 -13 4 0 13 -18 20 -40 7 -21 16 -37 20 -35 8 5 50 -49 50 -64 0 -6 15&#10;-22 34 -36 23 -17 33 -33 31 -45 -2 -11 0 -22 5 -25 5 -3 7 4 5 16 -4 19 -2&#10;19 20 -6 14 -14 30 -23 36 -20 5 4 19 -1 31 -12 11 -10 22 -17 24 -16 2 1 24&#10;-7 48 -18 64 -28 138 -39 231 -35 106 5 153 17 232 59 17 9 39 14 47 11 12 -5&#10;15 -2 9 12 -4 12 -3 15 5 10 7 -4 12 -2 12 3 0 6 5 11 11 11 6 0 31 21 56 46&#10;42 45 62 52 49 19 -3 -9 -11 -13 -17 -9 -7 4 -9 3 -5 -4 3 -6 -3 -17 -14 -25&#10;-11 -7 -17 -17 -12 -21 4 -4 0 -6 -8 -4 -9 2 -14 -3 -12 -12 2 -8 0 -12 -4 -8&#10;-4 4 -29 -8 -56 -27 -86 -62 -250 -106 -406 -109 -60 -1 -97 -6 -99 -13 -3 -7&#10;38 -10 139 -9 128 2 152 5 223 30 44 15 103 40 130 56 63 36 162 125 199 179&#10;32 45 35 47 59 29 15 -12 12 -19 -34 -73 -173 -201 -376 -276 -664 -242 -62 8&#10;-68 7 -50 -6 57 -41 316 -42 410 -2 115 50 145 65 145 76 0 7 3 9 7 6 3 -4 14&#10;0 24 9 9 8 26 16 37 17 11 0 18 5 16 9 -3 5 -11 6 -17 3 -7 -3 -3 0 7 7 11 7&#10;29 22 40 33 12 11 25 19 29 17 5 -1 6 2 2 7 -3 6 3 16 15 23 11 7 20 18 20 25&#10;0 6 3 13 8 15 4 2 18 15 31 30 22 26 23 27 6 56 -14 22 -25 29 -45 28 -29 -2&#10;-63 -30 -74 -60 -5 -14 -10 -16 -18 -8 -8 8 -5 18 15 38 15 14 25 30 22 34 -2&#10;4 1 14 8 23 10 14 18 15 49 7 30 -9 44 -8 68 5 16 8 30 11 30 5 0 -5 11 -12&#10;25 -16 15 -4 22 -11 18 -18 -3 -6 -2 -8 2 -3 5 4 16 0 25 -8 9 -8 28 -16 43&#10;-17 14 -1 23 -6 21 -10 -3 -4 7 -8 21 -8 14 0 24 -4 21 -9 -4 -5 2 -7 13 -4&#10;11 3 21 -2 25 -12 5 -14 1 -16 -27 -10 -17 4 -35 12 -38 18 -4 5 -12 7 -18 3&#10;-6 -4 -22 1 -36 10 -14 9 -25 13 -25 9 0 -4 -7 -2 -15 5 -13 10 -19 9 -38 -6&#10;-42 -35 -68 -64 -57 -64 6 0 8 -5 5 -10 -4 -6 -11 -7 -17 -4 -7 4 -8 2 -4 -5&#10;8 -13 -10 -34 -38 -44 -10 -4 -16 -13 -13 -21 8 -19 -33 -54 -60 -51 -18 1&#10;-20 -1 -12 -12 7 -8 7 -13 2 -13 -6 0 -23 -12 -38 -27 -16 -16 -25 -21 -21&#10;-13 4 9 2 8 -7 -2 -8 -10 -18 -18 -22 -18 -5 0 -23 -11 -42 -26 -35 -27 -44&#10;-54 -17 -54 9 0 14 -6 11 -12 -3 -8 4 -13 18 -13 13 0 22 2 20 5 -2 3 99 6&#10;223 6 1213 3 1935 3 2183 -1 279 -5 297 -4 313 14 16 17 15 20 -16 50 -17 17&#10;-35 31 -40 31 -8 0 -37 22 -70 53 -10 9 -18 15 -18 12 0 -3 -6 0 -14 7 -8 7&#10;-13 16 -13 20 1 4 -14 22 -34 40 -59 55 -135 179 -123 200 4 6 2 8 -3 5 -9 -6&#10;-20 20 -28 68 -1 6 -5 17 -9 25 -9 22 -13 130 -5 124 4 -2 10 26 14 63 14 138&#10;61 303 86 303 5 0 32 29 60 66 49 62 150 154 170 154 23 0 3 -28 -42 -60 -102&#10;-71 -191 -205 -227 -340 -23 -84 -36 -208 -21 -193 5 5 11 23 12 40 1 17 5 29&#10;10 26 6 -3 12 55 8 80 0 4 4 7 10 7 6 0 8 9 4 21 -5 15 -4 19 5 14 7 -4 10 -2&#10;9 6 -3 17 12 72 21 79 3 3 22 35 40 72 19 38 41 68 48 68 6 0 12 5 12 10 0 11&#10;76 90 86 90 12 0 63 48 57 54 -4 3 -1 6 5 6 7 0 12 -8 12 -18 0 -10 6 -24 13&#10;-32 10 -12 9 -12 -4 -2 -14 10 -18 10 -23 -3 -3 -8 -9 -14 -13 -13 -11 4 -93&#10;-79 -85 -86 3 -3 -3 -6 -13 -6 -10 0 -16 -3 -12 -6 10 -10 -17 -32 -33 -26&#10;-13 5 -13 4 0 -13 9 -11 10 -16 3 -11 -9 5 -13 1 -13 -11 0 -11 -4 -23 -9 -28&#10;-5 -6 -19 -39 -31 -75 -35 -99 -37 -259 -4 -354 27 -77 35 -105 36 -123 1 -7&#10;5 -10 10 -7 4 3 3 14 -2 25 -6 10 -8 19 -6 19 3 0 13 -14 22 -31 10 -21 11&#10;-29 3 -23 -7 4 1 -9 17 -29 16 -20 33 -37 37 -37 4 0 13 -13 18 -30 6 -16 16&#10;-30 21 -30 6 0 5 7 -2 18 -7 9 1 2 19 -17 17 -18 31 -30 31 -25 0 5 4 4 8 -2&#10;4 -6 22 -19 40 -28 17 -9 32 -19 32 -22 0 -3 -5 -2 -12 2 -6 4 -8 3 -4 -4 3&#10;-5 24 -13 46 -17 22 -4 40 -11 40 -16 0 -6 4 -8 9 -5 5 3 21 -1 37 -8 65 -31&#10;249 -28 331 6 16 6 37 13 48 15 11 2 26 11 33 21 7 9 14 15 15 12 1 -3 23 8&#10;49 25 26 16 44 33 42 37 -3 4 1 8 8 8 14 0 90 92 127 153 42 70 63 139 68 236&#10;6 93 -10 225 -28 237 -5 3 -9 15 -10 27 0 12 -13 41 -27 63 -37 56 -92 129&#10;-92 120 0 -4 -15 9 -32 29 -18 19 -38 35 -44 35 -7 0 -15 7 -18 16 -3 8 -10&#10;12 -16 9 -5 -3 -10 -2 -10 4 0 5 -15 15 -34 21 -19 6 -36 15 -38 20 -2 6 -17&#10;11 -34 13 -17 2 -37 8 -44 12 -7 4 -22 9 -34 10 -35 4 -36 5 -36 16 0 21 143&#10;-6 228 -43 18 -8 29 -18 25 -23 -5 -4 0 -5 10 -2 9 4 17 2 17 -3 0 -6 7 -10&#10;15 -10 8 0 15 -4 15 -10 0 -5 16 -17 35 -26 19 -9 32 -20 29 -25 -3 -5 1 -9&#10;10 -9 8 0 24 -15 35 -33 11 -19 37 -51 56 -71 19 -21 35 -44 35 -52 0 -8 5&#10;-14 12 -14 6 0 8 -3 5 -7 -4 -3 4 -25 18 -48 13 -23 22 -45 19 -48 -3 -3 -1&#10;-8 5 -12 24 -14 9 47 -31 126 -51 103 -160 217 -258 271 -66 37 -169 71 -247&#10;82 -40 6 -43 5 -59 -29 -9 -20 -18 -34 -19 -33 -2 2 -1 24 2 50 l5 46 57 4&#10;c200 15 471 -193 557 -426 12 -34 28 -60 34 -58 8 2 8 -3 0 -19 -7 -11 -9 -23&#10;-6 -27 3 -3 6 0 6 7 0 25 23 4 27 -24 4 -27 5 -181 2 -230 -2 -30 -48 -177&#10;-61 -192 -6 -7 -7 -13 -3 -13 5 0 1 -8 -7 -17 -8 -10 -20 -33 -28 -50 -7 -18&#10;-19 -33 -26 -33 -8 0 -14 -5 -14 -11 0 -13 -78 -101 -94 -108 -17 -7 -36 -29&#10;-36 -40 0 -6 -3 -10 -7 -10 -22 4 -44 -2 -39 -10 3 -5 -7 -14 -22 -20 -47 -21&#10;-84 -59 -77 -81 6 -20 14 -23 75 -21 l35 0 -30 -9 c-16 -6 -52 -9 -80 -8 -27&#10;0 -198 -3 -380 -8 -417 -11 -2820 -12 -3180 -1 -148 5 -277 8 -285 8 -8 0 -55&#10;2 -104 6 -84 5 -88 6 -64 19 19 10 25 19 21 34 -4 14 -11 19 -22 15 -8 -3 -12&#10;-3 -8 2 5 4 -15 17 -43 30 -34 15 -49 27 -44 34 4 8 3 9 -4 5 -16 -10 -94 44&#10;-88 61 3 8 1 11 -4 8 -10 -6 -64 25 -56 33 3 2 -9 18 -25 33 -17 16 -28 29&#10;-25 29 4 0 -5 12 -19 28 -31 34 -88 149 -111 228 -28 95 -24 348 7 406 8 15 8&#10;19 -1 13 -6 -4 -3 10 8 31 10 22 31 64 45 94 15 30 38 68 52 84 13 16 22 33&#10;18 39 -3 6 -1 7 5 3 7 -4 12 -3 12 3 0 17 124 131 142 131 10 0 18 7 18 16 0&#10;10 5 14 16 10 8 -3 13 -2 10 3 -3 5 8 14 25 20 19 7 28 15 23 22 -4 8 -3 9 4&#10;5 6 -4 26 1 44 10 18 10 44 19 58 21 14 1 34 5 45 7 11 3 38 5 60 6 36 2 38 3&#10;15 11 -22 8 -21 8 10 5 19 -1 46 0 60 5 35 10 42 10 36 1z m1726 -46 c7 6 53&#10;-38 61 -59 3 -8 0 -20 -6 -27 -9 -10 -9 -11 0 -6 7 4 10 -1 8 -11 -1 -12 -10&#10;-17 -26 -15 -12 1 -20 -1 -16 -4 4 -4 -6 -18 -21 -31 -15 -13 -22 -23 -17 -21&#10;10 3 15 -4 15 -24 0 -6 -7 -4 -18 5 -12 11 -36 17 -67 17 -27 0 -45 3 -41 8 4&#10;4 11 7 14 7 4 0 12 4 19 8 6 4 14 3 18 -3 7 -11 52 -3 71 12 11 8 15 120 4&#10;114 -3 -2 -16 13 -29 33 l-23 36 24 -23 c14 -12 27 -20 30 -16z m-1047 -55 c6&#10;-21 5 -22 -8 -10 -8 8 -14 19 -14 24 1 6 -3 9 -10 8 -6 -1 -10 5 -8 15 2 9 4&#10;22 5 27 1 12 25 -31 35 -64z m1695 65 c0 -2 -8 -10 -17 -17 -16 -13 -17 -12&#10;-4 4 13 16 21 21 21 13z m1195 -6 c17 -7 16 -9 -10 -10 -16 -1 -68 -1 -113 0&#10;-47 1 -119 -6 -163 -16 -60 -13 -83 -14 -91 -6 -9 9 -8 12 3 13 7 0 41 6 74&#10;14 67 15 269 18 300 5z m-2934 -71 c18 -13 45 -65 93 -176 38 -87 77 -175 88&#10;-195 l18 -38 -45 0 c-30 0 -45 4 -45 13 0 7 -16 46 -36 87 -41 88 -121 197&#10;-176 240 -29 24 -36 34 -29 48 5 9 15 32 21 50 l12 32 37 -22 c20 -12 48 -29&#10;62 -39z m1869 56 c0 -22 -38 -76 -59 -83 -24 -8 -69 -7 -78 2 -3 2 21 18 51&#10;36 31 17 58 35 61 41 6 9 25 13 25 4z m-2340 -9 c0 -3 -4 -8 -10 -11 -5 -3&#10;-10 -1 -10 4 0 6 5 11 10 11 6 0 10 -2 10 -4z m2131 -29 c-14 -14 -43 -18 -35&#10;-6 3 5 10 6 16 3 7 -5 9 -1 5 9 -4 11 -2 14 9 10 11 -4 12 -9 5 -16z m-591&#10;-22 c0 -36 -15 -46 -37 -24 -9 9 -11 7 -6 -9 3 -11 15 -23 27 -25 14 -3 10 -5&#10;-12 -6 l-32 -1 2 50 c2 47 4 50 30 50 25 0 28 -3 28 -35z m1620 10 c-8 -10 -5&#10;-19 11 -34 13 -12 26 -21 31 -21 4 0 8 -9 8 -20 0 -13 -7 -20 -20 -20 -25 0&#10;-92 -35 -83 -44 3 -3 4 -6 0 -6 -13 0 -75 131 -64 135 32 9 73 18 80 17 4 -1&#10;7 2 7 7 0 5 9 7 20 4 15 -4 18 -9 10 -18z m-1112 -15 c38 -21 157 -50 207 -50&#10;62 0 101 12 133 42 18 18 22 19 22 5 0 -20 -77 -66 -122 -73 -20 -4 -77 5&#10;-142 20 -59 14 -118 23 -132 20 -21 -5 -24 -3 -24 20 0 28 24 35 58 16z m1222&#10;-7 c0 -10 -9 -96 -19 -192 -10 -96 -16 -182 -14 -192 10 -36 -16 -19 -27 19&#10;-7 20 -16 41 -21 47 -15 15 -10 25 11 25 14 0 20 7 20 24 0 13 3 44 6 70 5 37&#10;4 46 -7 42 -54 -17 -66 -15 -77 10 -16 33 -16 34 12 34 13 0 38 3 55 6 31 6&#10;32 8 29 53 -3 43 -5 46 -33 49 -57 6 -51 22 8 22 48 0 57 -3 57 -17z m-3002&#10;-46 c7 -8 10 -21 6 -30 -4 -13 -14 -10 -57 16 -29 17 -54 32 -56 34 -2 1 2 9&#10;9 17 10 14 16 13 49 -4 21 -10 43 -25 49 -33z m45 42 c-13 -13 -6 -42 8 -33 5&#10;3 6 -1 3 -9 -3 -8 9 -23 30 -38 19 -13 32 -28 29 -33 -4 -5 1 -7 11 -3 13 5&#10;15 3 7 -12 -11 -20 -6 -32 12 -26 12 4 77 -77 77 -94 0 -4 9 -18 20 -31 11&#10;-13 20 -32 20 -42 0 -10 7 -32 15 -48 13 -26 13 -30 -1 -44 -14 -15 -12 -16&#10;19 -16 80 0 125 -12 136 -36 12 -28 10 -29 -52 -38 -30 -5 -45 -11 -41 -18 4&#10;-7 2 -8 -5 -4 -8 5 -9 12 -2 20 10 12 4 56 -8 56 -3 0 -23 4 -43 9 -44 10 -48&#10;7 -13 -12 14 -7 33 -28 43 -47 12 -24 24 -35 41 -36 24 -1 82 16 91 28 9 11&#10;34 14 35 3 3 -20 30 -70 52 -94 l21 -24 22 34 c14 23 19 43 15 64 -14 75 -14&#10;77 0 71 8 -3 17 -1 20 3 2 5 17 12 32 16 15 3 33 14 40 23 7 9 13 13 13 9 0&#10;-4 -12 -19 -26 -32 -15 -14 -22 -25 -15 -25 6 0 3 -10 -9 -22 -11 -12 -20 -26&#10;-20 -30 0 -5 -4 -7 -9 -4 -4 3 -7 -12 -5 -34 3 -36 32 -83 52 -86 4 0 15 -4&#10;24 -8 43 -19 76 18 44 50 -9 8 -16 18 -16 22 1 18 21 35 44 38 15 1 24 0 22&#10;-4 -2 -4 6 -7 19 -7 13 0 21 5 18 10 -3 6 0 5 7 -2 21 -19 51 2 46 32 -6 34&#10;-14 45 -34 45 -12 0 -13 3 -4 12 13 13 80 13 165 -1 5 0 6 -4 4 -8 -3 -5 9 -9&#10;26 -10 47 -3 71 -7 77 -14 3 -4 15 -9 28 -13 15 -5 24 -3 28 8 10 26 22 18 19&#10;-11 -6 -48 -22 -103 -40 -129 -19 -29 -99 -69 -160 -80 -22 -4 -43 -11 -46&#10;-17 -10 -15 -40 0 -33 16 3 8 21 14 41 15 73 3 203 92 203 139 0 7 4 13 9 13&#10;5 0 11 7 14 14 4 11 1 13 -11 9 -17 -7 -48 -33 -38 -33 3 0 -10 -16 -30 -35&#10;-35 -35 -141 -95 -168 -95 -8 0 -19 -6 -23 -14 -7 -12 -15 -12 -62 0 -38 9&#10;-59 10 -72 3 -11 -5 -25 -7 -31 -3 -6 4 -8 3 -4 -4 3 -6 1 -14 -6 -19 -30 -19&#10;-67 -88 -61 -115 3 -15 9 -25 14 -22 5 3 6 -2 3 -10 -7 -18 -21 -21 -26 -6 -1&#10;5 -28 12 -58 15 -30 3 -59 11 -65 18 -5 7 -21 11 -35 10 l-25 -3 25 11 c14 5&#10;33 8 42 5 11 -2 26 6 38 21 19 24 19 28 5 49 -8 13 -15 32 -15 42 0 10 -9 28&#10;-20 40 -20 22 -42 23 -155 7 -11 -1 -25 -3 -32 -4 -34 -3 -52 -71 -19 -71 6 0&#10;5 -4 -3 -9 -9 -6 -26 -2 -50 12 -20 11 -47 26 -61 34 -14 7 -21 13 -17 13 4 0&#10;3 6 -3 13 -45 53 -53 72 -55 126 -3 64 -9 103 -19 119 -4 7 1 10 13 7 11 -2&#10;30 4 41 13 20 16 16 17 -79 18 l-100 2 -36 46 c-19 25 -35 50 -35 54 0 18 26&#10;62 35 59 9 -3 51 -54 89 -108 7 -11 37 -26 67 -34 58 -15 85 -9 48 11 -13 7&#10;-27 10 -31 8 -5 -3 -8 0 -8 5 0 6 -9 11 -20 11 -11 0 -31 17 -49 44 -17 24&#10;-45 56 -63 71 -27 23 -30 29 -20 46 7 11 10 24 7 29 -4 6 -2 10 3 10 6 0 19&#10;16 31 35 17 29 19 39 9 55 -9 14 -9 22 1 34 8 9 16 16 19 16 3 0 1 -5 -5 -11z&#10;m822 -146 c-6 -66 -21 -98 -53 -119 -40 -27 -89 -33 -161 -22 -85 13 -102 28&#10;-30 28 67 0 124 25 166 73 31 36 62 115 64 166 1 14 5 4 10 -24 6 -27 7 -73 4&#10;-102z m1745 121 c0 -2 -9 0 -20 6 -11 6 -20 13 -20 16 0 2 9 0 20 -6 11 -6 20&#10;-13 20 -16z m-30 -13 c0 -5 -33 -43 -72 -83 -40 -40 -94 -98 -119 -128 -26&#10;-30 -50 -52 -53 -49 -12 12 56 103 140 187 78 77 104 95 104 73z m35 -11 c-3&#10;-5 -1 -10 4 -10 6 0 11 -4 11 -10 0 -5 -6 -10 -14 -10 -8 0 -13 8 -11 18 5 23&#10;4 22 11 22 3 0 2 -4 -1 -10z m-2668 -25 c23 -14 43 -30 43 -35 0 -15 -8 -12&#10;-48 15 -20 14 -45 25 -54 25 -10 0 -18 5 -18 10 0 17 32 11 77 -15z m-307 -15&#10;c11 -28 21 -35 43 -31 5 1 5 -3 2 -10 -5 -6 0 -10 11 -9 31 4 44 1 44 -9 0&#10;-10 -30 -7 -90 9 -79 22 -207 2 -302 -46 -77 -39 -162 -126 -202 -205 -84&#10;-167 -67 -363 43 -509 92 -121 204 -180 357 -188 148 -7 264 37 367 139 52 52&#10;63 59 98 59 21 0 39 -3 39 -6 0 -8 -59 -84 -85 -109 -148 -143 -337 -194 -529&#10;-145 -106 27 -168 63 -253 146 -122 119 -169 246 -161 429 6 120 28 183 98&#10;282 103 148 257 230 436 232 70 1 72 0 84 -29z m1948 14 c157 -6 198 -13 174&#10;-28 -5 -3 -106 0 -225 6 -178 9 -217 14 -217 26 0 12 10 13 48 9 26 -4 125 -9&#10;220 -13z m247 8 c16 -11 16 -32 1 -26 -11 4 -14 -1 -12 -20 2 -15 -1 -23 -7&#10;-19 -6 4 -8 0 -4 -10 6 -16 -19 -45 -30 -33 -3 3 -1 6 5 6 6 0 9 6 7 13 -11&#10;29 -12 76 -1 71 6 -3 2 2 -8 10 -19 15 -19 16 10 16 16 0 34 -4 39 -8z m-1896&#10;-50 c20 -15 30 -27 22 -30 -7 -2 -20 3 -30 12 -9 9 -32 21 -49 27 -18 6 -32&#10;16 -32 21 0 16 52 -1 89 -30z m2048 18 c48 -12 107 -30 129 -41 57 -27 94 -83&#10;101 -151 5 -48 0 -67 -42 -174 -75 -186 -202 -461 -231 -500 -15 -20 -50 -49&#10;-78 -65 -55 -31 -99 -41 -55 -11 79 52 114 116 275 507 90 220 95 246 60 297&#10;-15 20 -15 19 -10 -28 5 -43 2 -59 -25 -113 -18 -34 -34 -75 -36 -90 -1 -15&#10;-15 -51 -29 -80 -14 -30 -23 -58 -19 -64 3 -6 1 -7 -5 -3 -7 4 -12 0 -12 -10&#10;0 -15 -57 -168 -79 -212 -44 -88 -61 -114 -105 -159 -28 -28 -55 -49 -61 -46&#10;-5 4 -1 -3 9 -15 11 -12 15 -22 10 -22 -5 0 -3 -4 4 -8 7 -5 -38 -9 -99 -11&#10;-64 -1 -116 2 -123 8 -11 9 -408 44 -826 71 -243 16 -368 39 -229 41 l64 1&#10;-60 9 c-95 14 -175 44 -289 109 -75 43 -116 60 -142 60 -38 0 -39 2 -18 67 5&#10;15 2 14 -14 -4 l-20 -22 -208 111 c-408 216 -376 197 -370 226 6 26 6 26 -10&#10;7 -17 -21 -47 -86 -42 -89 2 -2 142 -75 311 -164 227 -119 317 -162 343 -162&#10;20 0 56 -12 87 -30 33 -19 45 -30 32 -30 -11 1 -31 7 -45 15 -14 8 -50 14 -81&#10;15 -30 0 -59 4 -65 9 -5 4 -99 54 -209 111 -315 161 -406 212 -412 226 -8 22&#10;15 77 68 157 31 48 57 77 68 77 10 0 94 -43 187 -95 93 -52 235 -132 316 -177&#10;132 -74 147 -85 158 -118 10 -30 23 -41 86 -74 l74 -40 115 20 c76 13 118 17&#10;125 10 17 -17 11 -23 -30 -30 -81 -13 -140 -28 -140 -36 0 -10 143 -56 201&#10;-64 29 -4 54 -15 65 -28 l19 -21 -66 7 c-67 6 -186 40 -204 57 -14 13 -25 11&#10;-25 -6 0 -21 68 -53 147 -69 38 -8 176 -24 308 -35 352 -30 363 -31 335 -22&#10;-14 4 -86 14 -160 21 -74 7 -144 18 -155 25 -11 7 -31 11 -45 10 -36 -3 -44 5&#10;-21 21 11 8 18 22 16 34 -2 10 2 24 9 29 11 9 12 6 8 -15 -3 -19 -1 -25 6 -20&#10;8 5 10 2 6 -8 -3 -9 -10 -16 -15 -16 -23 0 -6 -15 19 -16 15 -1 154 -14 308&#10;-28 298 -28 429 -33 384 -15 -13 6 -47 12 -75 14 -27 3 -104 10 -170 16 -66 6&#10;-132 12 -147 13 -16 1 -37 3 -48 4 -26 3 -26 18 0 25 11 3 18 1 15 -3 -3 -5&#10;18 3 45 16 28 14 54 23 58 20 4 -2 8 14 8 35 2 64 -19 72 -135 53 -119 -19&#10;-165 -16 -169 11 -2 11 -11 29 -21 39 -15 18 -15 18 6 5 12 -7 24 -22 26 -34&#10;3 -15 5 -13 6 7 0 16 4 27 9 26 33 -9 182 36 182 54 0 6 7 7 16 4 8 -3 13 -2&#10;10 3 -3 4 3 17 13 27 9 11 16 25 13 32 -6 20 22 9 35 -13 7 -11 12 -28 13 -38&#10;0 -10 9 -28 20 -39 32 -35 45 -10 47 90 1 48 3 90 3 95 0 4 10 7 23 7 16 0 18&#10;3 9 9 -16 10 16 21 63 21 35 0 160 -26 190 -38 23 -10 85 -32 100 -35 39 -8&#10;56 -68 38 -137 -8 -30 -18 -59 -23 -64 -12 -12 -13 -46 -1 -65 12 -19 45 -6&#10;61 24 7 13 18 23 23 22 6 -1 11 3 12 9 0 6 8 18 17 28 20 19 38 77 38 121 0&#10;44 -11 76 -23 68 -5 -3 -7 -1 -3 5 3 6 -1 18 -10 27 -19 18 -13 30 11 22 8 -4&#10;15 -16 15 -27 0 -14 4 -19 13 -14 6 4 9 4 5 0 -3 -4 0 -23 8 -41 8 -19 14 -45&#10;14 -59 0 -13 9 -34 19 -47 l19 -24 21 25 c12 15 20 40 21 63 0 23 16 71 41&#10;122 38 80 59 99 59 54 0 -10 3 -19 8 -19 13 0 45 165 37 198 -11 51 -62 87&#10;-152 108 -95 21 -106 29 -74 55 28 23 13 23 118 -1z m609 8 c4 -7 3 -8 -4 -4&#10;-7 4 -12 2 -12 -5 0 -7 -3 -10 -6 -6 -6 5 3 27 11 27 2 0 7 -5 11 -12z m516&#10;-19 c179 -38 339 -178 399 -350 27 -79 37 -228 19 -308 -42 -193 -217 -369&#10;-408 -410 -75 -16 -197 -14 -267 4 -134 35 -277 148 -342 271 -67 126 -81 307&#10;-34 439 24 67 95 178 138 214 15 13 36 31 45 39 16 13 18 12 28 -9 10 -22 5&#10;-30 -48 -84 -70 -72 -107 -144 -129 -250 -32 -161 15 -312 137 -436 192 -196&#10;496 -200 687 -9 116 115 160 228 150 385 -6 104 -23 154 -85 248 -72 111 -198&#10;191 -320 203 -34 4 -62 10 -62 13 1 23 15 51 26 51 7 0 37 -5 66 -11z m-1849&#10;-24 c9 -4 17 -15 17 -25 0 -10 11 -31 24 -47 28 -33 42 -111 16 -89 -45 39&#10;-306 65 -360 36 -27 -15 -28 -14 -23 36 l5 40 54 -4 c46 -4 59 -1 78 17 13 12&#10;33 20 47 19 15 -2 24 2 25 12 0 8 2 18 2 21 2 7 87 -5 115 -16z m370 9 c121&#10;-6 155 -13 130 -27 -5 -2 -102 2 -218 8 -115 7 -213 10 -217 8 -5 -2 -8 3 -8&#10;13 0 15 10 16 88 10 48 -3 149 -9 225 -12z m-1745 -8 c32 -16 70 -56 54 -56&#10;-6 0 -28 11 -48 25 -20 14 -43 25 -50 25 -8 0 -14 5 -14 10 0 14 26 12 58 -4z&#10;m2651 1 c-2 -1 -13 -9 -24 -17 -19 -14 -19 -14 -6 3 7 9 18 17 24 17 6 0 8 -1&#10;6 -3z m-2757 -22 c2 3 5 -1 5 -9 0 -20 -30 -13 -33 8 -2 13 1 14 10 7 7 -6 15&#10;-9 18 -6z m81 -11 c43 -22 68 -45 61 -56 -3 -5 -13 -3 -23 6 -9 8 -33 22 -54&#10;31 -20 8 -37 20 -37 25 0 14 16 12 53 -6z m1662 1 c220 -10 241 -12 235 -21&#10;-5 -9 -128 -7 -319 5 -75 4 -106 10 -109 20 -3 9 2 11 14 8 11 -3 91 -9 179&#10;-12z m-1813 -22 c32 -10 58 -21 58 -25 0 -4 -13 -30 -30 -58 -16 -28 -30 -55&#10;-30 -60 0 -16 -6 -13 -111 45 -55 30 -103 55 -108 55 -18 0 -118 -119 -140&#10;-165 -13 -27 -34 -57 -47 -68 -49 -38 -69 -94 -68 -187 0 -96 25 -168 72 -213&#10;36 -34 111 -67 170 -73 38 -5 242 16 412 42 l35 5 -50 -47 c-97 -92 -238 -135&#10;-370 -114 -172 27 -296 131 -352 292 -22 62 -25 85 -21 168 3 81 8 105 35 163&#10;53 113 141 193 263 239 61 23 205 24 282 1z m3205 -8 c14 -5 6 -67 -10 -77 -7&#10;-5 -16 -1 -22 8 -5 9 -20 27 -32 39 -35 37 -6 51 64 30z m192 0 c36 -9 88 -29&#10;116 -45 74 -42 160 -137 198 -217 28 -60 32 -80 35 -173 3 -87 0 -115 -17&#10;-164 -44 -123 -130 -219 -251 -279 -63 -31 -70 -32 -190 -32 -125 0 -126 0&#10;-202 37 -89 45 -180 135 -223 222 -37 76 -52 186 -38 271 20 114 92 237 173&#10;295 l29 21 15 -29 c15 -29 14 -30 -40 -86 -30 -31 -61 -56 -68 -56 -18 0 -51&#10;-87 -61 -157 -7 -53 9 -163 25 -163 4 0 11 -12 14 -26 10 -37 67 -123 107&#10;-161 19 -17 58 -43 87 -58 198 -99 430 -21 535 180 30 57 32 66 32 170 0 100&#10;-3 115 -28 165 -56 114 -185 211 -300 226 -43 6 -48 9 -43 28 3 12 6 27 6 34&#10;0 15 11 15 89 -3z m-3228 -46 c16 -11 27 -25 23 -30 -3 -5 -18 0 -33 11 -16&#10;11 -40 24 -55 30 -15 5 -25 14 -21 20 7 11 46 -2 86 -31z m1762 25 c64 -4 117&#10;-11 117 -16 0 -9 -278 -3 -360 8 -14 1 -28 3 -32 3 -5 1 -8 6 -8 12 0 8 25 10&#10;83 5 45 -3 135 -8 200 -12z m1937 1 c11 -13 10 -14 -4 -9 -9 3 -16 10 -16 15&#10;0 13 6 11 20 -6z m-790 1 c0 -2 -8 -10 -17 -17 -16 -13 -17 -12 -4 4 13 16 21&#10;21 21 13z m88 -103 l40 -88 -21 -17 c-12 -10 -26 -16 -31 -15 -14 5 -97 187&#10;-85 187 5 0 28 -38 49 -85 21 -47 44 -85 50 -85 15 0 14 3 -30 90 -43 86 -47&#10;100 -26 100 7 0 31 -39 54 -87z m-3027 45 c52 -38 38 -50 -16 -13 -21 14 -44&#10;25 -51 25 -8 0 -14 5 -14 10 0 20 38 9 81 -22z m2210 -21 c-10 -9 -11 -8 -5 6&#10;3 10 9 15 12 12 3 -3 0 -11 -7 -18z m-2234 -13 c24 -14 41 -29 38 -35 -4 -5&#10;-23 2 -43 16 -20 14 -42 25 -49 25 -6 0 -15 5 -18 10 -12 19 28 10 72 -16z&#10;m3258 12 c108 -28 188 -94 237 -194 30 -61 33 -75 33 -157 -1 -129 -40 -208&#10;-139 -283 -72 -55 -138 -75 -239 -71 -98 5 -172 36 -237 101 -32 33 -90 122&#10;-90 140 0 5 80 2 83 -3 2 -2 18 -25 36 -51 18 -27 35 -48 39 -48 4 0 13 9 20&#10;20 15 24 50 26 59 4 3 -9 1 -26 -6 -37 -16 -24 -8 -31 47 -45 40 -9 42 -9 42&#10;13 0 27 24 49 45 41 9 -3 18 -18 21 -34 l6 -29 41 14 c52 18 49 15 38 45 -19&#10;49 24 78 54 36 l16 -23 29 35 c36 42 37 52 8 65 -13 6 -25 21 -26 34 -3 22 -1&#10;23 37 19 l41 -4 0 59 c0 54 -2 58 -20 52 -29 -9 -60 3 -60 24 0 21 17 37 43&#10;42 16 4 14 10 -18 52 l-37 49 -24 -23 c-13 -12 -30 -19 -38 -16 -19 7 -21 48&#10;-4 65 12 12 -17 27 -73 39 -24 5 -27 2 -32 -39 -6 -38 0 -56 53 -165 56 -116&#10;58 -124 47 -160 l-11 -38 -7 50 c-4 28 -31 98 -61 158 l-53 108 9 84 c10 95 8&#10;93 91 71z m-3296 -35 c40 -21 71 -51 53 -51 -6 0 -28 11 -48 25 -20 14 -43 25&#10;-50 25 -8 0 -14 5 -14 10 0 15 16 12 59 -9z m2565 -2 c-8 -13 -21 -11 -27 5&#10;-4 10 0 12 14 9 10 -3 16 -9 13 -14z m-2416 -20 l24 -29 -47 0 -46 0 18 30 c9&#10;17 20 30 23 29 3 0 15 -13 28 -30z m-181 -15 c7 -1 24 -12 39 -23 14 -11 31&#10;-18 37 -14 5 3 7 1 4 -5 -9 -14 -58 5 -95 36 -15 13 -20 20 -12 16 8 -5 21 -9&#10;27 -10z m3049 -33 c22 -49 22 -50 3 -70 -25 -27 -29 -27 -72 8 l-36 28 35 42&#10;c20 22 39 41 42 41 4 0 17 -23 28 -49z m-1760 10 c51 -22 113 -75 102 -87 -4&#10;-3 -19 4 -35 15 -15 11 -57 27 -93 36 -113 26 -212 16 -262 -25 l-23 -19 32&#10;-1 c20 0 43 -10 60 -25 l28 -25 -30 7 c-50 13 -103 8 -124 -12 -29 -25 -26&#10;-59 7 -84 35 -27 8 -28 -35 -1 -58 35 -53 98 10 125 19 9 25 14 15 15 -43 1 5&#10;58 75 91 59 28 199 22 273 -10z m398 9 c106 -23 248 -76 295 -110 37 -26 71&#10;-88 71 -127 -1 -36 -32 -105 -71 -154 -44 -56 -53 -48 -18 17 31 60 39 132 18&#10;176 -17 39 -70 67 -175 94 -119 30 -231 35 -268 11 -39 -26 -51 -78 -36 -159&#10;6 -38 9 -72 6 -75 -7 -7 -8 -2 -35 98 -28 100 -27 168 0 203 40 51 76 55 213&#10;26z m1640 -32 c-3 -5 -3 -21 1 -37 8 -38 53 -59 84 -39 32 20 46 -7 20 -40&#10;-23 -29 -24 -55 -4 -75 8 -8 12 -17 9 -20 -3 -3 8 -4 25 -3 26 2 28 0 18 -13&#10;-10 -12 -9 -14 7 -8 16 6 17 5 6 -8 -7 -8 -16 -13 -20 -10 -5 3 -11 1 -15 -5&#10;-4 -6 -11 -7 -17 -4 -6 4 -8 2 -5 -3 4 -6 1 -13 -7 -16 -20 -8 -5 -87 18 -87&#10;6 0 4 -4 -4 -10 -8 -5 -21 -5 -29 -1 -8 5 -27 5 -42 1 -15 -5 -30 -6 -33 -3&#10;-2 3 -3 -16 -2 -41 1 -27 -1 -41 -6 -34 -5 9 -8 7 -8 -7 0 -20 -1 -20 -18 0&#10;-24 29 -67 63 -57 46 6 -10 4 -13 -7 -9 -14 6 -24 -4 -47 -40 -11 -19 -43 -3&#10;-36 18 7 22 -31 70 -55 70 -30 0 -50 -11 -43 -24 3 -6 -4 -2 -16 9 -13 11 -29&#10;32 -37 47 -8 16 -21 28 -29 28 -17 0 -20 16 -4 25 5 4 20 -1 32 -12 20 -17 21&#10;-17 8 0 -13 17 -12 18 15 12 20 -3 23 -3 10 3 -16 7 -17 10 -4 23 8 8 14 22&#10;12 32 -1 9 2 17 8 17 6 0 7 7 4 16 -10 27 4 63 25 61 10 -1 19 -5 19 -10 0 -5&#10;11 -18 24 -28 33 -26 25 -79 -12 -79 -9 0 -26 -7 -36 -15 -18 -14 -15 -15 42&#10;-15 l62 0 -7 32 c-4 23 -2 34 11 44 16 11 14 14 -16 36 -64 48 -80 56 -97 51&#10;-14 -4 -14 -3 -1 6 8 6 11 11 7 11 -5 0 -5 5 -2 10 4 6 12 5 21 -4 8 -8 49&#10;-34 91 -57 67 -37 74 -43 55 -50 -16 -6 -22 -17 -22 -37 0 -38 22 -56 57 -47&#10;26 6 27 5 12 -10 -9 -9 -27 -16 -40 -16 -175 11 -203 11 -189 1 8 -5 33 -10&#10;55 -10 29 0 36 -3 25 -10 -10 -6 -5 -9 20 -9 19 0 51 -1 70 -3 40 -3 80 24 80&#10;54 0 16 -23 24 -54 19 -5 -1 -6 5 -3 14 4 8 2 15 -4 15 -6 0 -7 5 -4 10 4 6&#10;11 7 17 4 6 -4 8 -3 5 2 -3 6 -2 15 2 22 5 9 11 5 19 -13 10 -21 10 -25 0 -19&#10;-7 4 -2 -5 11 -19 16 -18 22 -33 18 -48 -5 -19 11 -49 27 -49 3 0 16 15 30 33&#10;l26 33 -21 55 c-11 29 -26 57 -32 61 -7 4 -8 8 -3 8 4 0 1 11 -8 25 -9 14 -13&#10;25 -10 25 4 0 1 8 -8 18 -19 23 -41 75 -28 67 7 -4 9 2 4 19 -5 21 -3 25 14&#10;23 12 0 18 -5 16 -9z m-3114 -18 c16 -9 36 -54 32 -72 -1 -5 3 -8 10 -8 6 0 8&#10;-3 5 -7 -4 -3 -15 1 -24 9 -10 9 -47 32 -83 52 l-65 36 53 0 c29 0 62 -4 72&#10;-10z m140 -42 c25 -115 27 -107 -29 -79 -29 16 -40 28 -44 53 -4 18 -9 43 -13&#10;56 -6 20 -3 22 34 22 l40 0 12 -52z m2847 32 c-4 -22 -17 -39 -17 -21 0 7 -4&#10;9 -10 6 -14 -9 -13 8 2 23 18 18 28 15 25 -8z m-1196 -27 c13 -17 13 -17 -6&#10;-3 -11 8 -22 16 -24 17 -2 2 0 3 6 3 6 0 17 -8 24 -17z m1097 0 c-3 -18 -45&#10;-59 -53 -52 -3 4 46 68 53 69 2 0 2 -8 0 -17z m-3380 -29 c2 -1 -1 -5 -7 -8&#10;-5 -4 -15 4 -22 16 -12 22 -11 22 7 8 10 -8 20 -15 22 -16z m3198 -45 c-24&#10;-60 -21 -121 7 -139 12 -8 27 -13 32 -11 6 1 6 -2 -1 -9 -7 -7 -20 -6 -47 5&#10;l-36 15 6 62 c5 68 43 167 50 135 3 -10 -2 -36 -11 -58z m237 57 c4 -9 16 -12&#10;34 -9 l28 4 -25 -15 c-35 -21 -45 -20 -64 9 -16 24 -15 25 3 25 10 0 21 -6 24&#10;-14z m-3561 -63 c12 -12 25 -20 29 -17 5 3 16 -4 26 -15 9 -11 21 -17 26 -14&#10;6 3 7 1 3 -6 -4 -6 -12 -8 -18 -5 -6 4 -14 0 -19 -7 -6 -11 -15 -7 -41 19 -32&#10;30 -35 31 -56 16 -26 -18 -29 -60 -6 -92 8 -12 11 -22 6 -22 -5 0 -12 -12 -15&#10;-26 -3 -19 2 -35 21 -55 l25 -28 31 26 c17 14 29 33 27 42 -2 13 1 13 18 -3&#10;21 -20 29 -42 11 -31 -6 4 -18 1 -27 -7 -9 -7 -17 -11 -19 -8 -2 3 -12 -5 -23&#10;-17 -17 -18 -18 -22 -5 -27 9 -3 14 -12 11 -19 -3 -7 3 -13 12 -14 9 0 31 -4&#10;50 -8 27 -6 32 -5 26 5 -5 9 -4 11 3 6 7 -4 12 -13 12 -21 0 -8 8 -19 18 -24&#10;13 -8 9 -10 -20 -8 -21 1 -38 5 -38 10 0 4 -8 7 -19 7 -29 0 -99 75 -121 131&#10;-35 88 -21 219 28 255 14 11 18 10 20 -4 2 -9 13 -27 24 -39z m3371 42 c-3 -9&#10;-8 -14 -10 -11 -3 3 -2 9 2 15 9 16 15 13 8 -4z m264 -1 c-3 -3 3 -21 13 -39&#10;15 -26 16 -33 5 -28 -8 3 -15 9 -15 14 0 5 -3 8 -7 8 -5 -1 -17 -1 -27 0 -18&#10;1 -18 3 4 26 13 14 26 25 28 25 3 0 3 -3 -1 -6z m-3472 -14 c8 -13 -5 -13 -25&#10;0 -13 8 -13 10 2 10 9 0 20 -4 23 -10z m3268 -6 c10 -4 16 -12 13 -20 -3 -7&#10;-8 -40 -12 -73 -6 -59 -7 -61 -36 -61 -29 0 -30 1 -16 23 20 30 29 93 17 124&#10;-7 19 -6 23 3 19 7 -3 21 -9 31 -12z m-3223 -16 c0 -5 5 -6 12 -2 7 4 8 3 4&#10;-4 -8 -14 -33 -5 -40 13 -3 9 0 12 10 8 7 -3 14 -9 14 -15z m3165 -31 c-1 -23&#10;-8 -53 -15 -67 -12 -23 -14 -24 -20 -5 -4 11 -3 31 2 44 5 13 6 26 3 29 -4 4&#10;23 42 30 42 1 0 1 -19 0 -43z m-3130 13 c-3 -5 2 -10 12 -10 18 -1 53 -22 53&#10;-32 0 -3 -18 3 -40 14 -22 11 -37 24 -34 29 3 5 7 9 10 9 3 0 2 -4 -1 -10z&#10;m-256 -54 c19 -21 20 -24 6 -30 -32 -12 -42 -6 -41 24 1 36 6 37 35 6z m136 4&#10;c3 -5 1 -10 -4 -10 -6 0 -11 5 -11 10 0 6 2 10 4 10 3 0 8 -4 11 -10z m220 1&#10;c3 -5 1 -12 -5 -16 -5 -3 -10 1 -10 9 0 18 6 21 15 7z m-197 -63 c78 -39 83&#10;-43 54 -46 -17 -2 -41 2 -52 8 -29 15 -37 5 -16 -19 27 -29 65 -36 86 -14 18&#10;20 23 56 7 46 -6 -3 -7 -1 -3 5 4 7 14 12 22 12 8 0 13 -4 10 -9 -3 -5 1 -12&#10;10 -15 8 -3 12 -2 9 4 -3 6 1 7 9 4 9 -3 16 -14 16 -23 0 -14 2 -14 10 -1 9&#10;15 11 13 14 -12 0 -6 9 -12 20 -14 26 -4 38 -18 30 -37 -8 -23 -17 -21 -29 5&#10;-14 32 -39 37 -30 7 4 -17 3 -20 -3 -10 -7 10 -11 10 -17 1 -6 -10 -9 -10 -15&#10;0 -4 7 -16 9 -29 5 -12 -3 -19 -10 -16 -15 3 -5 1 -11 -4 -14 -5 -4 -8 -14 -6&#10;-24 2 -9 4 -22 4 -27 2 -18 41 -35 66 -29 14 3 22 10 19 15 -3 5 0 9 6 9 7 0&#10;19 8 28 18 10 10 14 13 9 6 -10 -15 2 -46 16 -37 5 3 7 1 4 -4 -11 -17 -187&#10;-40 -187 -24 0 6 4 11 9 11 19 0 18 41 -1 65 -18 23 -17 30 5 26 4 0 7 3 7 8&#10;0 5 -15 12 -34 15 -48 9 -105 63 -116 109 -4 20 -6 37 -3 37 3 0 44 -19 91&#10;-42z m267 30 c5 4 5 2 1 -5 -3 -6 1 -13 11 -16 15 -4 15 -5 2 -6 -9 0 -24 9&#10;-35 21 -12 14 -13 18 -3 10 9 -6 20 -8 24 -4z m-384 -16 c-7 -13 -6 -23 2 -32&#10;10 -10 8 -10 -9 -2 -12 6 -23 9 -26 7 -3 -3 -5 2 -5 10 0 8 4 12 8 10 3 -3 12&#10;2 19 10 17 21 23 19 11 -3z m456 -32 c14 -11 22 -20 18 -20 -4 0 -18 9 -32 20&#10;-14 11 -22 20 -18 20 4 0 18 -9 32 -20z m693 -1 c14 -25 17 -23 -48 -37 -40&#10;-9 -63 -9 -97 0 -63 17 -57 35 13 43 31 3 66 7 77 9 11 2 25 4 32 5 7 0 17 -8&#10;23 -20z m1582 -16 c-3 -16 -7 -22 -10 -15 -4 13 4 42 11 42 2 0 2 -12 -1 -27z&#10;m-2734 -8 c2 -2 -8 -15 -22 -30 l-26 -27 -10 26 c-15 41 -13 46 23 39 17 -3&#10;33 -7 35 -8z m3302 -22 c0 -3 -7 -3 -15 0 -8 4 -18 1 -21 -5 -8 -13 -25 21&#10;-17 34 4 8 53 -20 53 -29z m-1809 0 c5 -5 11 -22 15 -39 5 -26 2 -32 -18 -39&#10;-62 -22 197 -12 287 11 16 4 24 -1 32 -19 11 -23 9 -25 -40 -41 -66 -21 -175&#10;-37 -243 -35 -51 2 -53 3 -56 33 -4 41 -44 63 -70 39 -22 -19 -23 -42 -4 -49&#10;8 -3 17 -12 20 -20 4 -11 2 -12 -14 -4 -29 16 -48 12 -26 -5 19 -15 19 -15 -1&#10;-15 -21 0 -47 24 -48 44 -1 6 -7 23 -14 38 -8 15 -10 35 -6 45 6 16 8 16 16&#10;-4 12 -32 23 -28 16 6 -7 35 9 59 48 70 31 8 91 -1 106 -16z m-848 -46 c4 3 7&#10;4 7 0 0 -17 -20 -14 -36 6 -19 22 -19 22 2 4 11 -9 24 -14 27 -10z m-593 -32&#10;l0 -36 -30 16 c-37 19 -38 28 -2 42 15 6 28 11 30 12 1 1 2 -15 2 -34z m54 27&#10;c3 -5 -1 -9 -9 -9 -8 0 -12 4 -9 9 3 4 7 8 9 8 2 0 6 -4 9 -8z m159 -21 c39&#10;-20 36 -25 -32 -54 -2 -1 -5 15 -7 36 -2 21 0 37 4 35 4 -2 19 -10 35 -17z&#10;m179 -2 c22 -11 48 -22 58 -24 18 -4 70 -34 70 -41 0 -2 -10 -2 -22 0 -13 3&#10;-32 5 -43 6 -11 1 -14 4 -7 7 44 18 -57 30 -116 13 -20 -5 -37 -8 -39 -6 -3 3&#10;46 61 55 65 1 0 21 -8 44 -20z m-282 -57 c0 -4 -16 -6 -35 -4 -19 2 -35 5 -35&#10;7 0 1 7 16 16 34 l16 33 19 -31 c11 -18 19 -35 19 -39z m2510 21 c-11 -17 -11&#10;-17 -6 0 3 10 7 26 7 35 1 15 2 15 6 0 2 -10 -1 -25 -7 -35z m-27 -58 c-3 -9&#10;-8 -14 -10 -11 -3 3 -2 9 2 15 9 16 15 13 8 -4z m-1297 -36 c4 -8 1 -8 -14 0&#10;-12 6 -24 16 -28 22 -4 8 -1 8 14 0 12 -6 24 -16 28 -22z m1254 -50 c0 -5 -8&#10;-9 -17 -8 -11 0 -13 3 -5 6 6 2 9 10 6 15 -4 7 -2 8 4 4 7 -4 12 -11 12 -17z&#10;m-42 -39 c-12 -19 -28 -27 -28 -14 0 6 30 33 38 34 1 0 -3 -9 -10 -20z m-73&#10;-40 c-10 -11 -22 -20 -28 -20 -5 0 1 9 14 20 31 25 37 25 14 0z m-2615 -25&#10;c11 -13 10 -14 -4 -9 -9 3 -16 10 -16 15 0 13 6 11 20 -6z"/>
<path d="M3682 4783 c21 -25 48 -79 48 -98 0 -10 -11 -3 -32 20 -29 34 -94 75&#10;-117 75 -6 0 2 -12 16 -27 36 -38 73 -121 73 -163 l0 -34 50 49 c50 49 59 65&#10;39 65 -5 0 -8 -4 -5 -9 3 -5 -1 -12 -9 -15 -14 -5 -14 -2 -1 23 11 21 12 31 3&#10;40 -8 8 -8 11 1 11 12 0 16 -14 13 -35 -1 -5 5 -3 15 7 15 15 15 18 -7 41 -45&#10;46 -123 90 -87 50z m30 -134 c-2 -8 -9 -18 -15 -24 -6 -5 -9 -6 -5 -1 4 5 3&#10;17 -2 26 -8 15 -6 18 8 15 9 -1 16 -9 14 -16z"/>
<path d="M2978 4238 c-20 -20 -20 -20 0 -34 11 -8 26 -29 32 -48 10 -30 16&#10;-34 50 -38 l40 -4 0 63 c0 35 -5 65 -11 69 -27 16 -92 11 -111 -8z m92 -55 c0&#10;-23 -5 -33 -15 -33 -8 0 -15 7 -15 16 0 8 -3 13 -7 11 -5 -3 -17 7 -27 21 -11&#10;14 -15 22 -9 19 6 -4 13 0 17 8 4 12 10 13 31 3 19 -9 25 -19 25 -45z"/>
<path d="M3016 4198 c3 -5 10 -6 15 -3 13 9 11 12 -6 12 -8 0 -12 -4 -9 -9z"/>
<path d="M3279 4238 c-4 -21 -8 -88 -4 -88 3 0 15 10 26 21 16 16 29 20 55 16&#10;39 -7 46 9 16 36 -15 14 -90 25 -93 15z"/>
<path d="M2610 4035 c0 -9 -9 -15 -21 -15 -37 0 -19 -34 19 -36 34 -2 67 20&#10;56 37 -3 6 2 9 11 7 10 -2 20 3 22 10 3 8 -9 12 -41 12 -34 0 -46 -4 -46 -15z"/>
<path d="M1045 4209 c-27 -5 -57 -12 -65 -16 -8 -3 -23 -8 -33 -9 -10 -2 -29&#10;-12 -44 -21 -14 -9 -34 -18 -44 -18 -11 -1 -30 -12 -44 -25 -14 -13 -25 -20&#10;-25 -15 0 4 -8 -2 -19 -13 -10 -12 -21 -22 -24 -22 -13 0 -97 -84 -124 -123&#10;-15 -23 -35 -48 -43 -55 -13 -12 -13 -13 0 -7 8 4 4 -2 -9 -13 -13 -11 -21&#10;-24 -17 -31 4 -6 2 -11 -4 -11 -6 0 -8 -4 -5 -10 3 -5 3 -10 -2 -10 -14 0 -33&#10;-74 -22 -85 7 -7 8 -3 3 10 -7 19 -7 19 13 3 19 -17 20 -17 39 5 11 12 26 35&#10;34 51 18 34 136 158 168 175 12 7 20 16 17 20 -6 10 18 21 47 21 12 0 18 3 15&#10;7 -7 7 31 37 48 38 5 0 20 6 32 13 13 7 35 10 50 7 23 -4 24 -4 8 4 -14 7 -16&#10;10 -5 11 89 8 117 13 129 23 8 7 12 7 9 2 -4 -7 10 -10 36 -10 43 1 96 31 96&#10;55 0 6 4 9 8 6 4 -2 8 4 8 14 0 10 -3 17 -7 14 -4 -2 -9 1 -11 7 -5 15 -146&#10;20 -213 8z m196 -41 c-7 -21 -17 -24 -103 -30 -206 -15 -375 -105 -506 -271&#10;-52 -66 -84 -120 -77 -131 3 -3 0 -2 -7 4 -27 23 106 219 200 295 74 59 200&#10;121 282 139 36 8 100 14 142 15 76 1 77 1 69 -21z"/>
<path d="M1235 4119 c-11 -17 1 -21 15 -4 8 9 8 15 2 15 -6 0 -14 -5 -17 -11z"/>
<path d="M1265 4109 c-4 -6 -5 -12 -2 -15 2 -3 7 2 10 11 7 17 1 20 -8 4z"/>
<path d="M4245 3951 c-3 -5 -1 -12 5 -16 5 -3 10 1 10 9 0 18 -6 21 -15 7z"/>
<path d="M1696 2984 c-23 -23 -20 -30 4 -9 11 10 20 20 20 22 0 7 -9 2 -24&#10;-13z"/>
<path d="M1444 2968 l-19 -23 25 20 c14 11 27 21 29 22 2 2 0 3 -6 3 -5 0 -18&#10;-10 -29 -22z"/>
<path d="M1743 4085 c0 -8 4 -12 9 -9 5 3 6 10 3 15 -9 13 -12 11 -12 -6z"/>
<path d="M2926 3321 c-14 -16 -15 -21 -3 -32 7 -8 14 -18 14 -23 0 -15 26 -45&#10;35 -40 4 3 8 0 8 -5 0 -6 8 -11 18 -11 14 0 15 -2 2 -10 -12 -8 -10 -10 10&#10;-11 14 -1 28 -1 31 -1 3 1 33 2 67 3 37 1 67 8 73 16 6 7 14 11 18 9 4 -3 12&#10;4 19 14 11 18 10 18 -41 3 -31 -9 -74 -13 -111 -11 -53 4 -62 8 -92 41 -46 50&#10;-43 63 9 33 57 -34 130 -49 197 -41 67 9 48 24 -38 30 -77 6 -110 14 -152 36&#10;-43 23 -43 23 -64 0z"/>
<path d="M3015 3110 c-57 -3 -81 -8 -65 -12 159 -42 246 -56 235 -38 -3 5 -13&#10;6 -22 3 -10 -4 -14 -2 -10 4 4 6 1 11 -6 10 -30 -1 -47 4 -47 13 0 6 8 10 18&#10;10 9 0 24 4 32 10 10 6 6 8 -15 7 -17 -1 -70 -4 -120 -7z"/>
<path d="M2838 3103 c7 -3 16 -2 19 1 4 3 -2 6 -13 5 -11 0 -14 -3 -6 -6z"/>
<path d="M4829 3103 c-13 -16 -12 -17 4 -4 16 13 21 21 13 21 -2 0 -10 -8 -17&#10;-17z"/>
<path d="M4840 3696 c0 -2 8 -10 18 -17 15 -13 16 -12 3 4 -13 16 -21 21 -21&#10;13z"/>
<path d="M2653 4825 c0 -8 4 -12 9 -9 5 3 6 10 3 15 -9 13 -12 11 -12 -6z"/>
<path d="M5340 3801 c0 -6 4 -13 10 -16 6 -3 7 1 4 9 -7 18 -14 21 -14 7z"/>
<path d="M493 3025 c0 -8 4 -12 9 -9 5 3 6 10 3 15 -9 13 -12 11 -12 -6z"/>
</g>
</svg>