<svg preserveAspectRatio="xMidYMid meet" viewBox="56.048 57.856 341.712 330.864" xmlns="http://www.w3.org/2000/svg" version="1.0" style="max-height: 500px" width="341.712" height="330.864">
<g stroke="none" fill="#000000" transform="translate(0.000000,452.000000) scale(0.100000,-0.100000)">
<path d="M2125 3919 c-33 -4 -71 -10 -85 -12 -14 -3 -43 -8 -65 -12 -22 -3&#10;-47 -9 -55 -12 -8 -3 -26 -7 -40 -8 -14 -1 -36 -7 -50 -12 -14 -6 -29 -8 -34&#10;-5 -5 3 -6 0 -3 -5 4 -6 -2 -13 -13 -16 -11 -3 -18 -1 -15 3 3 5 0 12 -6 16&#10;-7 4 -9 3 -5 -4 7 -12 -33 -44 -45 -36 -5 3 -20 -3 -34 -12 -14 -9 -31 -14&#10;-39 -11 -11 4 -13 1 -9 -10 5 -13 2 -15 -11 -10 -11 5 -15 3 -10 -5 5 -8 2 -9&#10;-10 -5 -10 4 -15 3 -11 -3 3 -6 1 -10 -5 -10 -7 0 -24 -8 -38 -18 -15 -10 -37&#10;-17 -48 -16 -12 0 -21 -4 -20 -10 0 -6 -3 -12 -8 -13 -5 -1 -12 -5 -15 -10&#10;-11 -15 -45 -38 -37 -26 5 9 2 11 -10 6 -14 -5 -16 -3 -10 13 6 15 5 16 -5 7&#10;-10 -10 -9 -16 1 -28 12 -15 11 -16 -5 -13 -11 1 -20 -3 -21 -9 -1 -7 -2 -16&#10;-3 -19 0 -4 -9 0 -18 7 -16 13 -17 12 -4 -3 12 -16 9 -22 -11 -19 -5 0 -7 -5&#10;-5 -12 1 -6 -6 -11 -16 -10 -10 0 -16 -1 -13 -4 7 -7 -27 -43 -41 -43 -7 0&#10;-13 -5 -13 -11 0 -8 -4 -8 -14 0 -12 10 -13 9 -9 -7 4 -19 -30 -62 -49 -62 -4&#10;0 -7 -4 -5 -8 3 -11 -50 -72 -57 -65 -3 4 -6 -1 -6 -10 0 -9 -7 -18 -15 -18&#10;-31 -3 -35 -4 -35 -11 0 -5 0 -11 0 -14 0 -4 7 0 17 7 14 12 16 12 11 -1 -2&#10;-8 -14 -20 -26 -26 -12 -6 -19 -14 -15 -17 3 -4 -1 -15 -9 -24 -8 -10 -18 -26&#10;-21 -36 -4 -10 -12 -15 -18 -11 -8 4 -7 9 2 16 11 7 9 8 -4 4 -10 -3 -21 -6&#10;-25 -6 -3 0 2 -6 12 -13 17 -13 13 -52 -5 -41 -5 3 -10 0 -10 -5 -1 -6 -3 -15&#10;-4 -21 -1 -5 -3 -15 -4 -21 0 -5 -6 -7 -12 -3 -7 4 -10 1 -7 -7 3 -8 -5 -28&#10;-18 -46 -14 -18 -21 -38 -18 -47 3 -9 1 -16 -5 -16 -6 0 -11 -5 -11 -10 0 -6&#10;-7 -27 -16 -48 -17 -38 -19 -44 -28 -101 -3 -19 -14 -51 -24 -72 -11 -21 -15&#10;-36 -11 -33 5 3 9 1 9 -5 0 -5 -5 -13 -10 -16 -6 -4 -8 -10 -5 -15 3 -5 1 -28&#10;-4 -52 -10 -41 -22 -144 -24 -198 -1 -27 12 -194 19 -250 3 -19 6 -47 8 -61 1&#10;-14 6 -30 9 -36 4 -6 4 -19 0 -29 -4 -12 -3 -15 5 -10 16 10 15 -7 0 -23 -11&#10;-10 -10 -12 1 -9 13 3 44 -76 33 -86 -2 -3 0 -12 7 -20 9 -11 5 -15 -24 -20&#10;-19 -4 -40 -4 -45 -1 -6 4 -7 -1 -3 -11 5 -13 3 -16 -10 -11 -9 3 -17 3 -17&#10;-1 0 -4 -10 -12 -22 -17 -13 -6 -22 -17 -20 -24 2 -9 -4 -12 -18 -8 -11 3 -23&#10;0 -27 -5 -3 -7 -1 -8 5 -4 7 4 12 3 12 -3 0 -6 -9 -15 -20 -21 -11 -6 -19 -14&#10;-18 -18 1 -4 -5 -21 -15 -39 -17 -32 -42 -38 -58 -12 -5 8 -9 9 -9 3 0 -13 24&#10;-36 31 -30 2 3 4 -193 4 -434 0 -241 -3 -436 -7 -434 -4 2 -10 -1 -14 -7 -4&#10;-8 -3 -9 4 -5 7 4 12 1 12 -6 0 -10 2 -10 9 1 7 11 13 7 25 -18 9 -17 14 -37&#10;10 -43 -4 -7 -3 -8 5 -4 7 5 25 -6 46 -28 18 -20 39 -36 45 -36 6 0 8 -5 5&#10;-10 -4 -6 -3 -10 2 -9 20 3 27 -2 13 -12 -12 -8 -10 -9 7 -4 12 3 24 1 28 -5&#10;3 -6 11 -8 16 -5 5 4 9 2 9 -4 0 -6 7 -8 15 -5 8 4 23 3 33 -1 24 -10 2800&#10;-10 2842 0 19 5 37 9 40 10 3 0 27 11 54 23 26 12 53 19 60 15 6 -3 8 -3 4 2&#10;-9 10 11 37 22 30 4 -3 14 3 21 13 12 15 12 16 -2 5 -18 -15 -30 -8 -22 12 2&#10;8 11 11 19 8 8 -3 14 -2 13 3 -3 14 22 74 29 70 11 -7 13 42 18 414 5 351 0&#10;444 -29 495 -6 11 -10 24 -9 28 1 5 -2 6 -8 2 -5 -3 -13 2 -17 12 -3 10 -12&#10;25 -20 35 -8 9 -16 24 -17 34 -2 10 -9 20 -17 22 -11 3 -11 1 1 -7 13 -9 13&#10;-11 -1 -11 -9 0 -22 6 -28 13 -6 8 -29 19 -51 26 -27 8 -38 16 -33 24 4 7 0 7&#10;-10 -2 -12 -9 -17 -10 -17 -2 0 7 -4 10 -9 7 -5 -4 -4 5 2 19 7 14 16 25 20&#10;25 5 0 5 5 2 10 -6 9 16 120 33 170 3 8 7 38 9 65 2 28 8 64 12 80 10 38 4&#10;227 -11 325 -6 41 -11 85 -10 98 0 12 -3 22 -7 22 -8 0 -9 3 -12 58 -1 17 -6&#10;32 -10 32 -8 0 -24 59 -21 74 2 4 -2 14 -8 21 -6 8 -12 32 -13 53 -1 22 -6 38&#10;-10 35 -5 -3 -6 -12 -2 -22 4 -10 3 -13 -4 -6 -16 16 -21 68 -8 84 10 14 10&#10;14 -5 3 -14 -11 -18 -10 -28 8 -6 11 -8 26 -4 32 5 7 3 8 -5 4 -8 -5 -14 0&#10;-18 13 -3 12 -10 21 -15 21 -6 0 -4 8 3 17 8 10 9 14 2 10 -15 -9 -43 30 -36&#10;52 4 12 3 13 -5 3 -7 -11 -11 -7 -17 15 -5 15 -8 31 -7 35 1 4 -6 4 -15 1 -11&#10;-4 -14 -3 -9 5 4 7 2 12 -4 12 -6 0 -8 6 -4 13 4 6 4 9 -1 5 -10 -10 -65 63&#10;-58 76 4 5 0 6 -7 1 -10 -6 -12 -4 -7 8 3 9 2 16 -2 14 -12 -3 -60 50 -52 58&#10;3 4 -1 5 -9 3 -10 -2 -14 6 -15 24 0 15 -5 31 -9 35 -5 4 -6 2 -2 -4 4 -7 2&#10;-13 -4 -13 -6 0 -8 -5 -4 -12 5 -7 -24 14 -63 47 -105 88 -169 135 -185 135&#10;-10 0 -9 3 2 11 13 9 12 10 -2 5 -19 -6 -43 25 -30 39 4 4 -2 3 -14 -3 -16 -9&#10;-26 -8 -43 4 -12 9 -19 20 -16 25 3 5 -1 6 -9 3 -8 -3 -25 0 -38 7 -13 7 -28&#10;14 -34 15 -25 4 -83 37 -79 44 3 4 -2 13 -9 19 -11 9 -16 9 -22 0 -4 -7 -3 -9&#10;4 -5 6 3 13 2 16 -3 11 -18 -9 -19 -44 -4 -19 9 -43 15 -54 14 -12 -2 -16 1&#10;-11 10 5 7 4 10 -1 7 -5 -4 -42 2 -83 12 -112 28 -356 43 -476 29z m380 -34&#10;c325 -52 607 -202 836 -443 196 -206 320 -441 380 -721 30 -141 36 -375 15&#10;-514 -15 -90 -50 -232 -72 -290 -4 -10 6 -16 38 -21 85 -14 156 -72 205 -166&#10;l28 -55 0 -390 0 -390 -26 -56 c-29 -62 -84 -120 -144 -153 l-40 -21 -1435 -3&#10;c-1637 -3 -1493 -11 -1591 87 -89 90 -89 89 -89 531 0 416 1 425 64 510 37 50&#10;135 110 181 110 24 0 26 3 21 23 -92 307 -107 550 -51 814 65 304 244 605 481&#10;808 221 188 469 298 784 348 66 11 333 6 415 -8z m1365 -3149 c0 -2 -8 -10&#10;-17 -17 -16 -13 -17 -12 -4 4 13 16 21 21 21 13z"/>
<path d="M2150 3864 c-118 -14 -234 -39 -327 -69 -435 -143 -775 -479 -919&#10;-909 -57 -173 -68 -248 -69 -461 0 -210 11 -284 68 -456 l32 -97 -51 -5 c-93&#10;-10 -171 -63 -211 -145 l-28 -57 0 -385 c0 -384 0 -385 23 -432 27 -54 87&#10;-112 141 -136 33 -16 157 -17 1461 -17 1424 0 1425 0 1470 21 54 25 103 72&#10;133 128 21 40 22 51 25 420 3 333 1 384 -14 429 -32 96 -142 177 -241 177 -33&#10;0 -48 -19 -15 -21 9 -1 33 -2 53 -3 39 -3 121 -44 113 -58 -3 -5 -2 -8 3 -7&#10;21 4 24 -2 12 -18 -13 -16 -12 -17 2 -5 14 10 18 10 23 -4 8 -22 8 -26 -3 -19&#10;-6 3 -8 -7 -6 -22 l4 -28 -12 25 c-6 14 -20 31 -29 38 -10 7 -16 18 -12 23 3&#10;5 2 9 -3 8 -20 -3 -27 2 -13 12 12 8 10 9 -7 4 -13 -4 -23 -2 -23 4 0 6 -6 8&#10;-14 5 -8 -3 -17 -1 -21 5 -3 6 -1 11 6 11 7 0 9 3 6 6 -4 4 -13 1 -22 -6 -8&#10;-7 -15 -9 -15 -4 0 5 -31 8 -70 6 -73 -4 -78 -1 -57 33 14 23 34 26 46 7 13&#10;-22 67 129 96 268 101 485 -58 992 -418 1337 -207 197 -475 335 -740 378 -94&#10;16 -314 27 -377 19z m328 -36 c9 -7 13 -8 9 -2 -5 8 5 9 36 2 23 -5 48 -9 55&#10;-10 6 -1 12 -5 12 -10 0 -5 5 -6 10 -3 14 9 161 -36 154 -46 -3 -5 3 -6 12 -2&#10;12 4 15 2 12 -8 -2 -8 -15 -16 -28 -17 -16 -3 -21 0 -18 10 4 10 -4 13 -28 12&#10;-19 -1 -32 2 -29 6 3 5 1 11 -5 15 -5 3 -10 2 -10 -3 0 -10 -80 6 -90 17 -3 3&#10;-18 7 -35 8 -16 1 -68 6 -115 10 -47 4 -118 8 -157 8 -43 0 -73 4 -73 10 0 5&#10;-4 4 -9 -4 -6 -9 -22 -12 -49 -9 -22 2 -39 1 -36 -3 2 -3 -22 -9 -54 -12 -71&#10;-8 -84 -10 -101 -21 -11 -7 -12 -6 -6 5 8 12 6 12 -8 0 -9 -7 -17 -10 -17 -5&#10;0 5 -4 5 -8 -1 -10 -14 -111 -47 -122 -40 -6 3 -10 1 -10 -4 0 -12 -26 -15&#10;-33 -3 -2 4 -2 1 -1 -5 3 -11 -150 -90 -166 -87 -3 1 -11 -7 -18 -17 -7 -10&#10;-19 -16 -27 -13 -9 4 -15 0 -15 -9 0 -8 -7 -18 -16 -21 -8 -3 -12 -2 -9 3 3 5&#10;0 13 -5 16 -13 8 46 55 67 55 7 0 13 5 13 11 0 8 5 7 15 -1 13 -11 14 -10 8 5&#10;-5 15 -3 17 11 12 9 -4 15 -3 12 2 -8 13 18 21 46 14 16 -3 19 -2 10 5 -10 7&#10;2 16 43 36 47 22 60 24 78 14 20 -10 21 -10 8 5 -14 18 -10 20 42 20 9 0 17 3&#10;17 8 0 7 40 19 80 24 8 1 22 5 30 8 35 13 81 16 74 6 -4 -6 4 -5 17 2 38 21&#10;114 28 267 24 99 -3 149 -8 160 -17z m-23 -43 c131 -17 309 -72 425 -130 366&#10;-182 637 -524 730 -920 72 -302 37 -605 -107 -922 -4 -10 17 -13 86 -13 104 0&#10;149 -17 194 -70 46 -54 49 -80 45 -471 l-3 -366 -27 -40 c-17 -26 -45 -50 -79&#10;-67 l-53 -26 -1395 0 c-1329 0 -1398 1 -1436 19 -46 21 -101 79 -112 119 -5&#10;15 -8 192 -8 393 l0 366 30 48 c45 72 95 95 207 95 48 0 88 1 88 3 0 2 -17 45&#10;-39 98 -79 193 -107 359 -98 584 13 333 137 630 364 874 304 328 741 484 1188&#10;426z m359 -41 c9 -3 14 -10 11 -14 -3 -5 3 -6 13 -3 11 2 26 -2 34 -11 9 -8&#10;18 -12 22 -9 3 4 6 2 6 -4 0 -5 6 -10 13 -10 18 0 127 -64 127 -75 0 -5 4 -7&#10;8 -4 5 3 18 -3 28 -12 10 -10 22 -19 27 -20 16 -3 78 -56 88 -75 9 -15 8 -18&#10;-2 -12 -8 5 -10 4 -5 -4 5 -8 12 -9 20 -2 9 7 33 -11 87 -67 41 -42 88 -95&#10;104 -117 16 -22 34 -43 40 -47 6 -5 6 -11 -2 -19 -14 -14 0 -39 21 -39 6 0 2&#10;8 -9 16 -12 10 -14 15 -5 12 16 -5 103 -138 95 -146 -2 -3 5 -16 16 -31 12&#10;-15 16 -27 10 -29 -6 -2 -11 -8 -11 -13 0 -4 7 -6 15 -3 8 4 15 2 15 -4 0 -6&#10;-6 -13 -12 -15 -7 -3 -4 -6 7 -6 17 -1 17 -3 5 -11 -13 -8 -12 -10 3 -10 10 0&#10;17 -8 17 -18 0 -10 3 -22 7 -26 15 -15 30 -84 21 -99 -5 -10 -4 -18 3 -23 8&#10;-4 9 -3 5 4 -4 7 -2 12 3 12 6 0 12 -8 13 -17 0 -10 2 -25 3 -33 0 -8 -4 -26&#10;-9 -39 -10 -22 -12 -20 -22 30 -6 30 -15 63 -19 73 -6 13 -5 17 2 13 13 -8 11&#10;19 -2 30 -4 4 -5 2 -1 -4 4 -7 3 -13 -2 -13 -5 0 -12 10 -15 23 -2 12 -8 31&#10;-12 42 -6 16 -5 17 5 5 9 -13 11 -12 7 5 -2 11 -8 19 -13 18 -11 -2 -61 105&#10;-56 120 1 4 -3 7 -10 7 -6 0 -9 3 -5 6 3 3 -4 15 -15 26 -11 11 -17 26 -14 34&#10;3 7 2 13 -2 13 -19 -3 -23 2 -13 15 9 11 9 16 0 22 -8 4 -9 3 -5 -4 4 -7 4&#10;-12 -1 -12 -4 0 -21 19 -37 42 -17 23 -25 38 -19 35 7 -4 10 0 9 10 -2 9 -9&#10;19 -17 21 -11 3 -11 1 1 -7 8 -6 10 -11 4 -11 -6 0 -17 7 -24 15 -11 14 -7 19&#10;13 16 9 -1 9 13 0 22 -3 4 -13 1 -21 -6 -13 -9 -14 -9 -8 1 4 7 2 12 -7 12&#10;-16 0 -114 109 -109 123 1 5 -2 6 -7 3 -15 -10 -83 55 -78 74 2 9 -1 17 -8 17&#10;-8 0 -11 -7 -7 -16 5 -14 4 -14 -11 -2 -11 9 -15 21 -11 35 6 21 6 21 -10 1&#10;-12 -16 -15 -17 -16 -4 0 9 -6 16 -14 16 -21 0 -105 56 -106 71 0 7 -4 11 -9&#10;7 -10 -6 -121 43 -132 58 -3 5 -8 8 -10 6 -2 -1 -14 1 -27 5 -19 6 -21 10 -11&#10;22 13 16 12 16 33 8z m-1344 -173 c-11 -22 -74 -71 -90 -71 -6 0 -8 5 -4 13 5&#10;8 2 7 -9 -2 -10 -8 -20 -12 -22 -9 -5 4 44 48 93 84 23 17 44 7 32 -15z m-103&#10;-86 c-2 -5 -13 -10 -25 -10 -26 -1 -37 -11 -21 -21 8 -5 10 -3 4 6 -6 9 -4 11&#10;4 5 9 -5 -3 -23 -40 -61 -29 -29 -57 -50 -62 -47 -6 3 -7 1 -4 -5 4 -5 -6 -23&#10;-23 -39 -16 -15 -30 -32 -30 -36 0 -5 -7 -15 -15 -23 -8 -9 -15 -12 -15 -8 0&#10;3 -7 0 -16 -7 -14 -12 -16 -11 -13 6 3 12 12 20 23 20 11 0 21 7 23 15 4 13 3&#10;13 -6 0 -5 -8 -13 -11 -17 -8 -8 9 29 61 61 87 14 10 25 22 25 27 0 11 52 64&#10;62 64 5 0 6 -5 2 -12 -4 -7 -3 -8 5 -4 6 4 9 11 6 16 -9 14 27 45 53 45 12 0&#10;20 -4 19 -10z m-263 -267 c-4 -5 4 -4 17 2 l24 13 -20 -24 c-11 -13 -24 -27&#10;-30 -31 -5 -4 -6 -8 -1 -8 5 0 3 -8 -5 -17 -8 -10 -24 -35 -34 -55 -11 -21&#10;-22 -38 -26 -38 -3 0 -6 -6 -6 -12 -1 -7 -18 -51 -38 -98 -20 -47 -39 -98 -42&#10;-115 -3 -16 -12 -35 -21 -43 -10 -7 -12 -11 -6 -8 9 4 9 -4 3 -32 -4 -20 -13&#10;-63 -19 -95 -8 -39 -15 -55 -23 -50 -7 4 -6 0 2 -10 7 -9 10 -24 6 -34 -12&#10;-31 -5 -247 11 -349 19 -115 19 -122 10 -149 -6 -16 -6 -17 3 -5 5 8 13 11 17&#10;7 4 -3 1 -14 -6 -22 -10 -12 -10 -15 -1 -13 7 2 24 -28 41 -75 16 -42 23 -75&#10;17 -71 -7 3 -5 0 4 -8 9 -7 21 -23 28 -36 l13 -24 -80 4 c-44 2 -79 1 -77 -3&#10;2 -3 -9 -10 -26 -16 -22 -9 -27 -8 -22 0 4 7 -9 -3 -27 -21 -19 -18 -40 -30&#10;-48 -27 -7 2 -11 1 -7 -4 9 -16 -7 -42 -23 -36 -11 4 -12 2 -5 -7 7 -9 7 -21&#10;0 -38 -6 -16 -9 -150 -8 -362 1 -245 -1 -338 -10 -343 -8 -5 -8 -9 0 -14 6 -4&#10;12 -23 13 -43 2 -20 7 -34 12 -31 5 3 7 0 4 -8 -6 -17 54 -75 104 -100 28 -14&#10;66 -20 145 -24 94 -4 2216 -5 2534 -1 66 0 112 -3 105 -7 -6 -5 -3 -6 9 -2 45&#10;16 56 17 70 5 13 -11 14 -10 10 1 -4 10 6 19 28 27 41 15 50 15 42 2 -4 -6&#10;-11 -8 -16 -5 -5 4 -9 1 -9 -4 0 -15 11 -13 33 3 12 10 14 15 6 18 -13 4 -4&#10;28 11 28 19 0 4 -43 -23 -62 -22 -16 -31 -18 -43 -8 -12 11 -13 10 -9 -2 4 -9&#10;-2 -15 -17 -17 -13 -2 -654 -5 -1424 -7 -1300 -4 -1404 -3 -1440 13 -22 9 -43&#10;17 -49 18 -5 0 -9 6 -8 13 2 7 -4 9 -14 5 -13 -5 -15 -2 -9 12 4 11 4 16 0 13&#10;-14 -14 -45 13 -39 33 5 14 2 17 -8 13 -15 -5 -31 21 -21 37 3 5 1 9 -4 9 -5&#10;0 -10 6 -11 13 -2 6 -5 177 -8 380 -3 266 -1 367 7 367 6 0 8 5 5 11 -14 21&#10;26 99 70 137 49 43 100 62 161 59 28 -1 40 2 37 9 -2 7 0 15 6 19 13 8 15 52&#10;2 59 -5 4 -7 -4 -4 -16 4 -19 3 -20 -6 -8 -6 8 -11 25 -11 37 0 12 -4 24 -9&#10;27 -5 3 -12 20 -15 38 -11 55 -13 62 -25 93 -10 23 -10 34 -1 48 6 11 9 22 6&#10;25 -3 3 -6 -1 -7 -9 0 -8 -5 -3 -11 11 -6 14 -12 107 -14 215 -2 108 0 181 5&#10;170 6 -14 8 -1 8 40 -1 67 10 140 23 166 5 9 6 19 3 23 -3 3 -1 6 6 6 7 0 10&#10;4 6 10 -8 13 5 61 16 54 5 -3 6 2 3 10 -3 8 8 46 25 84 17 39 31 74 31 79 0 5&#10;6 15 13 22 6 6 12 15 12 19 0 17 90 160 97 156 5 -3 5 -10 2 -16z m2573 -554&#10;c2 -27 6 -68 8 -91 1 -22 5 -45 8 -50 10 -17 7 -154 -4 -175 -7 -13 -7 -18 -1&#10;-14 7 4 9 -7 6 -31 -14 -105 -26 -174 -40 -236 -13 -55 -19 -66 -30 -56 -17&#10;14 -19 -2 -2 -19 9 -9 8 -15 -8 -28 -10 -8 -13 -13 -6 -9 6 3 12 1 12 -4 0 -6&#10;-5 -11 -11 -11 -5 0 -7 -4 -4 -10 9 -14 -10 -43 -29 -46 -20 -3 -20 -2 -1 43&#10;8 19 15 44 15 54 0 11 9 28 20 39 22 22 27 35 8 24 -8 -5 -9 -2 -4 12 4 10 13&#10;46 19 79 6 33 13 62 17 65 7 7 9 48 10 207 0 73 4 143 10 157 7 19 6 24 -4 20&#10;-17 -6 -28 92 -14 119 13 26 18 17 25 -39z m191 -976 c8 -19 11 -142 11 -400&#10;0 -221 -4 -365 -9 -353 -8 19 -9 19 -9 -2 -1 -13 3 -23 9 -23 12 0 -16 -79&#10;-37 -102 -15 -16 -18 -17 -25 -4 -9 16 6 56 20 56 14 0 16 57 16 418 1 199 5&#10;362 9 362 5 0 1 7 -7 16 -19 18 -21 34 -5 34 8 0 9 4 0 13 -6 8 -8 17 -4 21 8&#10;8 16 -1 31 -36z"/>
<path d="M2690 3770 c0 -5 5 -10 11 -10 5 0 7 5 4 10 -3 6 -8 10 -11 10 -2 0&#10;-4 -4 -4 -10z"/>
<path d="M1625 3680 c-3 -5 -1 -10 4 -10 6 0 11 5 11 10 0 6 -2 10 -4 10 -3 0&#10;-8 -4 -11 -10z"/>
<path d="M2054 3745 c-411 -64 -784 -340 -975 -718 -101 -199 -142 -375 -142&#10;-602 -1 -213 38 -390 124 -571 22 -45 39 -84 39 -85 0 -2 -53 -4 -118 -4 -105&#10;0 -121 -2 -155 -24 -21 -12 -47 -41 -58 -62 -19 -38 -20 -56 -17 -409 3 -354&#10;4 -370 24 -396 11 -15 33 -37 48 -48 27 -21 31 -21 1438 -24 1572 -3 1453 -8&#10;1504 67 l24 36 0 376 c0 374 0 376 -23 409 -41 63 -77 75 -209 74 -65 0 -118&#10;0 -118 1 0 1 20 45 44 96 91 192 131 392 122 609 -8 207 -53 385 -141 561 -82&#10;164 -247 358 -399 471 -163 120 -389 214 -585 243 -115 18 -315 18 -427 0z&#10;m446 -20 c8 -5 24 -10 35 -10 20 -1 56 -8 128 -26 21 -6 35 -14 32 -19 -3 -4&#10;5 -6 17 -2 16 4 19 2 13 -8 -6 -9 -4 -11 4 -6 14 9 161 -51 161 -65 0 -5 3 -8&#10;8 -8 27 5 34 -1 21 -18 -12 -15 -12 -16 4 -10 27 10 70 -10 63 -30 -5 -12 -3&#10;-13 7 -5 9 8 30 -2 82 -43 91 -70 239 -221 230 -235 -4 -6 -1 -9 7 -8 7 2 12&#10;-3 11 -9 -2 -7 1 -13 7 -13 16 0 60 -78 54 -94 -3 -9 1 -23 10 -31 9 -9 16&#10;-13 16 -8 0 5 -5 14 -12 21 -6 6 -9 14 -6 17 8 8 50 -66 52 -92 0 -11 5 -19&#10;10 -15 5 3 7 -2 3 -11 -3 -10 -2 -17 3 -17 5 0 16 -14 25 -30 12 -23 13 -35 5&#10;-50 -7 -14 -7 -20 0 -20 5 0 10 6 11 13 0 6 4 3 9 -8 4 -11 6 -31 3 -45 -3&#10;-17 -2 -21 4 -12 7 9 13 2 21 -25 7 -24 8 -39 2 -41 -16 -6 -12 -27 10 -52 11&#10;-13 21 -35 21 -49 1 -14 4 -44 7 -66 16 -125 1 -482 -18 -430 -5 13 -7 3 -7&#10;-30 0 -27 -6 -63 -13 -80 -7 -16 -12 -34 -11 -38 0 -4 -4 -18 -11 -30 -7 -12&#10;-13 -29 -14 -37 -6 -31 -47 -109 -56 -104 -5 3 -9 0 -7 -7 3 -29 -1 -50 -11&#10;-44 -9 6 -15 -8 -11 -29 1 -5 -5 -16 -14 -26 -13 -14 -13 -17 0 -17 8 0 12 4&#10;10 8 -3 3 2 12 10 19 8 7 15 9 15 4 0 -5 52 -10 115 -10 130 -2 145 -3 145&#10;-17 0 -6 3 -7 7 -4 11 12 42 -24 36 -41 -5 -11 -3 -13 7 -7 8 5 11 4 6 -3 -3&#10;-5 0 -12 6 -14 10 -4 13 -87 13 -374 0 -339 -2 -372 -18 -397 -10 -16 -23 -25&#10;-29 -21 -6 4 -8 3 -5 -3 8 -13 -35 -43 -61 -43 -10 0 -24 6 -31 13 -10 9 -12&#10;9 -7 0 5 -10 -300 -12 -1386 -12 l-1393 1 -38 40 c-32 34 -36 42 -25 56 9 11&#10;9 14 1 9 -10 -6 -12 74 -10 365 2 355 3 374 22 400 32 44 86 59 200 56 75 -2&#10;99 -6 97 -16 -2 -10 2 -10 17 -3 14 8 21 7 25 -2 3 -6 3 -1 0 12 -5 17 -3 21&#10;6 16 9 -6 11 -4 5 5 -6 10 -11 10 -20 -3 -16 -23 -28 -22 -14 1 9 15 5 29 -21&#10;78 -33 61 -83 184 -74 184 2 0 -3 17 -11 38 -9 20 -18 51 -19 67 -2 17 -7 38&#10;-11 48 -4 9 -5 29 -3 42 3 14 1 25 -4 25 -5 0 -7 18 -5 40 2 22 0 40 -5 40 -4&#10;0 -8 36 -8 80 0 99 20 281 30 275 5 -3 6 3 3 14 -5 19 32 167 47 186 4 6 10&#10;23 14 38 4 17 11 25 18 21 7 -4 8 -3 4 5 -10 16 3 53 16 45 7 -5 8 -2 4 5 -5&#10;7 0 21 10 32 9 10 14 19 10 19 -4 0 1 14 11 30 17 29 33 39 33 21 0 -5 -7 -17&#10;-16 -25 -14 -14 -11 -20 8 -17 3 0 -1 -13 -9 -29 -8 -17 -18 -28 -22 -26 -4 3&#10;-8 0 -9 -7 -1 -19 -7 -41 -13 -52 -3 -5 -11 -29 -19 -52 -7 -23 -16 -41 -19&#10;-38 -4 2 -13 -1 -21 -7 -12 -8 -11 -9 4 -4 14 5 17 2 13 -11 -28 -99 -47 -181&#10;-47 -202 0 -15 -3 -21 -8 -14 -4 6 -7 -19 -8 -55 0 -37 -2 -88 -5 -114 -2 -25&#10;-2 -45 2 -42 4 2 9 -38 11 -89 3 -50 1 -93 -3 -95 -4 -2 -5 -10 -2 -18 4 -11&#10;8 -12 13 -4 10 16 23 -74 15 -103 -4 -15 -3 -18 3 -9 7 11 12 6 21 -19 15 -43&#10;14 -49 -6 -43 -11 2 -9 0 4 -7 11 -6 29 -32 40 -58 10 -25 20 -49 21 -53 2 -5&#10;-4 -8 -13 -8 -9 0 -13 -5 -9 -11 4 -7 9 -8 17 0 7 7 14 2 24 -16 17 -32 16&#10;-36 -3 -29 -8 3 -12 2 -9 -4 3 -6 13 -10 22 -10 10 0 13 -6 9 -16 -3 -8 -2&#10;-12 4 -9 12 7 33 -32 24 -47 -4 -6 -3 -8 2 -5 6 3 16 -3 22 -14 12 -20 10 -20&#10;-147 -19 -101 1 -167 -2 -180 -9 -19 -11 -25 -8 -22 12 2 13 -5 7 -28 -23 -13&#10;-18 -16 -29 -9 -28 8 2 11 -3 8 -12 -9 -27 -9 -779 0 -785 5 -3 7 4 5 15 -5&#10;24 3 25 27 3 23 -20 24 -40 1 -22 -15 13 -15 12 -2 -8 8 -13 17 -23 22 -23 4&#10;0 6 4 2 9 -3 5 -1 12 5 16 5 3 10 3 10 -2 0 -10 2778 0 2805 10 11 5 28 22 38&#10;39 16 28 17 65 17 394 -1 239 -4 364 -11 364 -6 0 -7 6 -3 13 4 6 4 9 -1 5 -4&#10;-4 -19 2 -33 12 -22 18 -41 20 -188 20 l-164 0 25 38 c14 20 28 45 31 55 4 9&#10;10 17 14 17 4 0 13 18 20 41 9 26 22 44 37 50 13 5 23 14 23 21 0 9 -3 9 -10&#10;-2 -23 -36 -18 4 10 79 16 45 30 94 30 109 0 25 1 25 16 6 15 -19 15 -19 5 2&#10;-10 21 -3 107 8 99 4 -2 6 78 4 178 -3 226 -6 276 -15 271 -5 -3 -23 70 -18&#10;78 0 2 -6 20 -15 40 -8 21 -14 41 -13 45 1 5 -4 20 -12 35 -10 22 -10 30 -1&#10;42 11 13 9 15 -8 11 -14 -2 -21 1 -21 11 0 8 4 13 8 10 5 -3 9 1 9 8 0 8 -6&#10;12 -13 9 -17 -6 -28 16 -29 57 0 26 -4 34 -15 33 -17 -3 -52 48 -48 69 2 7 -3&#10;12 -11 10 -9 -2 -11 3 -7 13 3 9 2 13 -3 10 -12 -7 -42 35 -35 47 3 5 1 7 -4&#10;6 -5 -2 -18 8 -30 22 -18 22 -18 26 -3 38 14 11 13 12 -6 2 -19 -8 -24 -7 -33&#10;11 -7 11 -26 34 -43 50 -18 16 -26 29 -18 29 11 0 11 3 1 15 -7 9 -21 13 -31&#10;10 -9 -3 -21 0 -25 6 -4 7 -3 9 3 6 6 -4 14 0 17 8 4 13 2 14 -14 5 -11 -6&#10;-20 -8 -20 -5 0 16 3 20 13 17 6 -2 4 4 -3 13 -13 16 -15 16 -20 1 -5 -14 -10&#10;-13 -40 9 -19 15 -34 31 -32 36 1 6 -2 8 -8 4 -5 -3 -10 -1 -10 4 0 6 -7 11&#10;-15 11 -8 0 -15 5 -15 12 0 6 -3 8 -6 5 -4 -4 -24 7 -45 24 -20 16 -41 28 -46&#10;27 -4 -1 -18 2 -31 6 -22 7 -22 8 -5 22 17 13 17 14 -1 7 -15 -5 -17 -3 -11 8&#10;4 8 5 11 0 7 -4 -4 -15 -2 -24 4 -9 7 -7 2 4 -11 l20 -24 -20 7 c-11 5 -32 13&#10;-47 18 -16 5 -28 14 -28 19 0 4 -7 5 -17 2 -10 -4 -14 -2 -10 4 4 6 -1 10 -11&#10;9 -11 -1 -16 6 -15 19 1 20 1 20 -13 1 -13 -18 -19 -15 -15 8 1 5 -5 3 -14 -4&#10;-13 -11 -18 -11 -24 -1 -4 6 -12 11 -17 10 -5 -1 -18 -1 -29 0 -17 1 -18 3 -5&#10;11 13 8 13 10 -2 10 -9 0 -18 -6 -21 -12 -3 -10 -7 -10 -19 -1 -8 7 -18 10&#10;-21 7 -3 -4 -14 -3 -24 1 -10 4 -27 8 -38 9 -11 1 -19 6 -18 13 2 9 -4 10 -20&#10;4 -12 -5 -88 -10 -167 -12 -80 -2 -150 -7 -157 -12 -6 -4 -17 -7 -25 -6 -7 1&#10;-20 -1 -28 -4 -35 -14 -97 -26 -122 -23 -15 2 -26 -1 -25 -6 3 -13 -143 -69&#10;-156 -61 -6 3 -7 1 -3 -5 4 -7 2 -12 -3 -12 -6 0 -11 9 -11 21 0 11 5 17 10&#10;14 6 -3 10 -2 10 4 0 5 21 17 48 27 26 9 51 21 56 25 5 5 16 3 25 -4 10 -8 12&#10;-8 8 -1 -9 15 15 24 42 17 12 -3 21 -1 21 5 0 12 87 35 101 27 5 -4 9 -2 9 4&#10;0 6 6 8 13 5 7 -2 24 0 38 5 31 12 399 9 419 -4z m-17 -50 c269 -47 485 -160&#10;683 -359 191 -190 293 -380 351 -649 22 -101 24 -380 4 -472 -34 -160 -97&#10;-324 -164 -428 -20 -31 -37 -60 -37 -65 0 -4 78 -7 174 -7 171 0 175 -1 200&#10;-24 l26 -24 0 -364 0 -364 -25 -24 -24 -25 -1396 0 -1397 0 -29 29 -29 29 0&#10;354 c0 390 -1 386 63 407 18 6 99 10 190 8 86 -1 157 -1 157 0 0 0 -20 33 -44&#10;72 -310 503 -217 1172 218 1578 179 167 389 275 631 323 115 23 330 26 448 5z&#10;m-791 -82 c2 -13 -17 -30 -72 -63 -41 -24 -78 -43 -82 -42 -5 1 -8 -3 -8 -9 0&#10;-6 -7 -9 -15 -6 -8 4 -17 1 -21 -5 -5 -7 -2 -8 7 -3 8 5 3 -4 -10 -18 -23 -26&#10;-71 -37 -71 -18 0 14 76 72 84 64 3 -3 6 -1 6 5 0 13 109 82 131 82 9 0 19 7&#10;23 15 7 20 24 19 28 -2z m-299 -235 c-26 -27 -53 -46 -59 -44 -7 3 -15 2 -18&#10;-2 -4 -3 -14 -7 -23 -8 -9 -2 12 26 47 61 54 55 65 62 81 52 17 -11 15 -15&#10;-28 -59z m1767 12 c0 -5 -4 -10 -10 -10 -5 0 -10 5 -10 10 0 6 5 10 10 10 6 0&#10;10 -4 10 -10z m-1850 -95 c-14 -15 -30 -23 -40 -20 -12 5 -12 4 -3 -6 10 -9 6&#10;-19 -14 -43 -14 -17 -30 -30 -35 -28 -5 1 -7 -1 -4 -6 2 -4 -11 -32 -31 -62&#10;-19 -30 -32 -47 -29 -36 4 10 2 24 -4 31 -7 9 -6 16 5 25 8 7 15 18 15 26 0 7&#10;9 19 20 27 11 8 17 16 14 19 -9 9 83 101 95 94 5 -4 13 -1 16 5 4 5 10 8 13 5&#10;3 -4 -5 -17 -18 -31z m2110 -247 c0 -18 -2 -20 -9 -8 -6 8 -7 18 -5 22 9 14&#10;14 9 14 -14z m140 -299 c0 -6 -4 -7 -10 -4 -5 3 -10 11 -10 16 0 6 5 7 10 4 6&#10;-3 10 -11 10 -16z m-2725 -1049 c-3 -5 -11 -10 -16 -10 -6 0 -7 5 -4 10 3 6&#10;11 10 16 10 6 0 7 -4 4 -10z"/>
<path d="M2253 3723 c9 -2 25 -2 35 0 9 3 1 5 -18 5 -19 0 -27 -2 -17 -5z"/>
<path d="M1950 3690 c0 -5 7 -7 15 -4 8 4 15 8 15 10 0 2 -7 4 -15 4 -8 0 -15&#10;-4 -15 -10z"/>
<path d="M1786 3642 c-3 -5 1 -9 9 -9 8 0 12 4 9 9 -3 4 -7 8 -9 8 -2 0 -6 -4&#10;-9 -8z"/>
<path d="M1745 3620 c-3 -6 1 -7 9 -4 18 7 21 14 7 14 -6 0 -13 -4 -16 -10z"/>
<path d="M3033 3485 c0 -8 4 -12 9 -9 5 3 6 10 3 15 -9 13 -12 11 -12 -6z"/>
<path d="M3220 3321 c0 -6 4 -13 10 -16 6 -3 7 1 4 9 -7 18 -14 21 -14 7z"/>
<path d="M3330 3180 c0 -5 5 -10 10 -10 6 0 10 5 10 10 0 6 -4 10 -10 10 -5 0&#10;-10 -4 -10 -10z"/>
<path d="M1050 2880 c-6 -11 -8 -20 -6 -20 3 0 10 9 16 20 6 11 8 20 6 20 -3&#10;0 -10 -9 -16 -20z"/>
<path d="M1017 2793 c-2 -10 -8 -26 -12 -35 -4 -11 -3 -18 4 -18 6 0 10 3 9 8&#10;-1 4 2 17 6 30 4 13 6 26 3 28 -2 3 -7 -3 -10 -13z"/>
<path d="M3526 2083 c-6 -14 -5 -15 5 -6 7 7 10 15 7 18 -3 3 -9 -2 -12 -12z"/>
<path d="M3497 2003 c-4 -3 -7 -11 -7 -17 0 -6 5 -5 12 2 6 6 9 14 7 17 -3 3&#10;-9 2 -12 -2z"/>
<path d="M920 1736 c0 -2 7 -7 16 -10 8 -3 12 -2 9 4 -6 10 -25 14 -25 6z"/>
<path d="M3467 1729 c7 -7 15 -10 18 -7 3 3 -2 9 -12 12 -14 6 -15 5 -6 -5z"/>
<path d="M3505 1730 c3 -5 8 -10 11 -10 2 0 4 5 4 10 0 6 -5 10 -11 10 -5 0&#10;-7 -4 -4 -10z"/>
<path d="M3625 1730 c-3 -5 -1 -10 4 -10 6 0 11 5 11 10 0 6 -2 10 -4 10 -3 0&#10;-8 -4 -11 -10z"/>
<path d="M780 1639 c0 -5 5 -7 10 -4 6 3 10 8 10 11 0 2 -4 4 -10 4 -5 0 -10&#10;-5 -10 -11z"/>
<path d="M3735 901 c-3 -5 -2 -12 3 -15 5 -3 9 1 9 9 0 17 -3 19 -12 6z"/>
<path d="M3665 840 c3 -5 11 -10 16 -10 6 0 7 5 4 10 -3 6 -11 10 -16 10 -6 0&#10;-7 -4 -4 -10z"/>
<path d="M2197 3659 c7 -7 15 -10 18 -7 3 3 -2 9 -12 12 -14 6 -15 5 -6 -5z"/>
<path d="M1815 3580 c-3 -5 1 -10 10 -10 9 0 13 5 10 10 -3 6 -8 10 -10 10 -2&#10;0 -7 -4 -10 -10z"/>
<path d="M2716 3572 c-3 -4 4 -9 15 -9 23 -2 25 3 4 10 -8 4 -16 3 -19 -1z"/>
<path d="M1734 3536 c-10 -8 -16 -18 -11 -22 4 -4 7 -2 7 4 0 7 4 12 10 12 5&#10;0 7 -8 3 -17 -3 -10 -3 -15 1 -12 6 6 17 49 12 49 -1 0 -11 -6 -22 -14z"/>
<path d="M2436 3543 c-4 -5 -13 -8 -19 -8 -7 -1 -11 -7 -9 -14 2 -9 -5 -11&#10;-20 -6 -21 5 -21 5 -5 -5 15 -10 23 -8 40 8 12 11 29 22 37 25 13 5 13 6 -1 6&#10;-9 1 -19 -2 -23 -6z"/>
<path d="M2793 3537 c0 -8 6 -14 14 -14 9 0 10 4 2 14 -6 7 -12 13 -14 13 -1&#10;0 -2 -6 -2 -13z"/>
<path d="M2450 3504 c-10 -11 -10 -21 -2 -39 8 -18 8 -25 -1 -28 -8 -3 -6 -7&#10;5 -12 16 -6 15 -11 -7 -56 -31 -60 -25 -64 12 -6 15 23 28 44 30 46 1 2 23 -8&#10;49 -23 50 -28 46 -14 -11 35 -26 23 -28 29 -16 43 10 12 30 16 76 16 73 0 131&#10;-18 182 -57 40 -30 93 -107 93 -134 0 -9 -19 -37 -41 -63 -56 -63 -44 -69 14&#10;-7 28 30 49 45 53 39 7 -11 -94 -114 -150 -153 -20 -14 -28 -29 -28 -49 0 -24&#10;-2 -26 -10 -12 -7 12 -5 24 6 41 14 21 14 29 0 82 -14 54 -41 109 -49 101 -2&#10;-2 2 -22 9 -43 7 -22 16 -63 20 -91 6 -48 5 -51 -19 -62 -34 -16 -86 -15 -160&#10;3 -74 18 -102 12 -138 -29 l-27 -31 14 28 c7 16 11 37 9 48 -8 29 -54 61 -80&#10;56 -19 -3 -21 -2 -11 10 17 21 58 8 91 -29 15 -18 27 -26 27 -19 0 18 -55 71&#10;-74 71 -22 0 -21 4 23 68 21 31 53 83 71 115 31 55 31 59 15 77 -16 17 -15 18&#10;2 22 11 3 -5 12 -42 24 -46 15 -89 19 -185 19 -115 0 -130 -2 -182 -27 -77&#10;-36 -138 -99 -182 -189 -48 -99 -66 -173 -73 -299 -3 -65 -11 -111 -19 -120&#10;-18 -21 -10 -30 69 -77 l67 -40 -65 -71 c-36 -39 -61 -73 -55 -77 5 -3 -6 -20&#10;-26 -37 -140 -123 -392 -566 -339 -596 12 -6 12 -14 -1 -52 -20 -58 -19 -135&#10;2 -182 9 -21 20 -38 23 -38 4 0 5 34 3 75 -4 77 2 130 17 154 7 11 18 7 56&#10;-19 25 -17 48 -30 51 -28 2 3 -23 31 -56 62 -57 54 -60 60 -54 92 16 87 233&#10;418 330 503 l45 39 67 -37 c95 -53 229 -137 274 -172 50 -40 133 -166 152&#10;-231 8 -29 29 -116 45 -194 34 -161 44 -190 73 -221 33 -36 38 -27 16 30 -33&#10;86 -68 261 -55 269 13 8 -8 28 -28 28 -5 0 -3 -4 5 -10 8 -5 11 -12 7 -17 -11&#10;-11 -24 14 -21 40 1 12 3 26 3 31 1 5 18 -16 40 -46 21 -31 54 -71 73 -89 19&#10;-19 23 -25 9 -14 -15 11 -38 33 -53 50 -15 16 -28 24 -28 18 0 -14 68 -87 112&#10;-120 25 -19 27 -23 17 -52 -16 -45 -6 -47 22 -4 30 46 54 57 39 18 -5 -14 -10&#10;-38 -9 -53 0 -24 3 -21 22 20 27 58 127 136 127 99 0 -5 11 -16 25 -25 l25&#10;-16 -17 34 c-15 33 -15 38 9 106 19 52 22 70 12 66 -8 -3 -14 -1 -14 3 0 20&#10;27 16 50 -7 24 -23 24 -24 3 -13 -13 7 -23 8 -23 2 0 -16 84 -51 121 -50 56 2&#10;72 11 138 82 74 80 76 100 3 27 -45 -45 -55 -50 -95 -50 -97 0 -150 107 -113&#10;229 7 25 18 47 23 48 15 5 24 -40 10 -50 -7 -5 5 -6 31 -3 51 7 57 -10 12 -36&#10;-34 -19 -39 -48 -13 -73 13 -14 14 -18 2 -25 -7 -5 -10 -12 -6 -16 3 -4 13 -1&#10;22 6 25 21 93 30 106 14 6 -8 16 -14 21 -14 6 0 5 7 -2 15 -11 13 -8 15 15 15&#10;16 0 37 7 47 17 14 13 18 13 19 2 0 -8 7 2 15 21 l14 35 -5 -34 c-4 -24 -24&#10;-53 -72 -103 -53 -55 -68 -76 -66 -97 2 -22 1 -23 -6 -6 -6 15 -12 3 -28 -55&#10;-21 -80 -29 -87 -100 -89 -56 -2 -36 -21 21 -21 44 0 56 4 69 23 l16 22 0 -23&#10;c1 -13 -3 -21 -8 -18 -5 3 -11 -11 -15 -32 -3 -21 -16 -59 -29 -85 -14 -26&#10;-21 -47 -17 -47 4 0 24 18 43 39 34 38 58 115 43 139 -3 5 3 42 14 81 11 40&#10;18 77 14 82 -3 6 26 43 64 83 67 69 92 112 77 135 -3 6 1 21 9 33 20 28 20 62&#10;1 82 -8 8 -15 24 -15 35 0 11 -4 23 -10 26 -5 3 -7 19 -4 34 5 22 1 34 -15 47&#10;-12 11 -30 27 -41 37 -18 15 -37 17 -133 15 l-112 -3 -1 -82 c0 -63 -4 -87&#10;-18 -101 -23 -27 -36 -74 -46 -170 -6 -61 -13 -87 -27 -100 -11 -9 -27 -42&#10;-37 -74 -15 -50 -22 -60 -68 -89 -75 -48 -108 -46 -169 9 -75 67 -134 157&#10;-170 258 -17 49 -40 106 -50 126 l-19 38 28 31 c21 23 39 32 72 36 40 4 54 0&#10;124 -42 77 -45 106 -51 106 -21 0 9 19 55 41 103 39 82 41 87 23 100 -10 7&#10;-22 13 -27 13 -5 0 -4 6 2 14 7 8 11 22 9 32 -2 13 9 22 42 34 42 15 45 18 42&#10;49 -1 17 -17 62 -35 99 -31 64 -32 68 -17 100 12 25 20 31 36 27 21 -5 50 16&#10;38 28 -3 3 -8 23 -10 44 -4 35 -2 41 23 52 43 20 102 70 145 124 38 49 38 50&#10;21 71 -10 12 -29 43 -42 69 -32 63 -109 131 -171 152 -46 15 -186 23 -198 11&#10;-2 -3 -13 -1 -22 4 -13 7 -22 5 -30 -6z m-333 -20 c-3 -3 -12 -4 -19 -1 -8 3&#10;-5 6 6 6 11 1 17 -2 13 -5z m190 0 c-3 -3 -12 -4 -19 -1 -8 3 -5 6 6 6 11 1&#10;17 -2 13 -5z m196 -1 c-7 -2 -13 -11 -13 -20 0 -8 -5 -13 -12 -11 -20 7 -20&#10;26 -1 31 24 6 41 7 26 0z m-443 -13 c-8 -5 -19 -10 -25 -10 -5 0 -3 5 5 10 8&#10;5 20 10 25 10 6 0 3 -5 -5 -10z m283 -14 c32 -7 61 -16 64 -19 6 -7 -43 -98&#10;-99 -180 -26 -38 -52 -64 -73 -73 -37 -15 -75 -58 -75 -83 1 -10 6 -7 15 10 8&#10;14 25 33 39 42 22 15 25 15 30 0 4 -9 2 -21 -4 -27 -8 -8 -9 -5 -5 9 5 14 -2&#10;11 -24 -13 -39 -41 -40 -79 -5 -121 21 -26 33 -31 68 -31 34 0 48 6 71 30 39&#10;41 82 58 133 53 52 -6 54 -18 5 -26 -80 -13 -153 -122 -153 -230 0 -74 16&#10;-112 73 -167 39 -38 144 -110 180 -123 9 -3 9 -8 0 -18 -19 -19 -16 -32 5 -24&#10;12 4 14 3 6 -4 -7 -8 -89 36 -275 147 -145 87 -323 193 -394 235 l-131 77 8&#10;84 c21 242 112 397 267 452 48 17 201 17 274 0z m-343 -12 c-14 -10 -47 -38&#10;-74 -63 -43 -40 -46 -42 -25 -12 24 33 95 90 114 91 5 0 -2 -7 -15 -16z m-137&#10;-149 c-9 -19 -18 -33 -21 -31 -4 5 26 66 33 66 3 0 -3 -16 -12 -35z m-66 -197&#10;c-3 -8 -6 -5 -6 6 -1 11 2 17 5 13 3 -3 4 -12 1 -19z m523 0 c25 -27 25 -49 3&#10;-76 -30 -34 -59 -37 -88 -8 -30 30 -32 59 -5 86 26 26 64 25 90 -2z m-533 -60&#10;c-3 -8 -6 -5 -6 6 -1 11 2 17 5 13 3 -3 4 -12 1 -19z m780 6 c-3 -3 -12 -4&#10;-19 -1 -8 3 -5 6 6 6 11 1 17 -2 13 -5z m123 -14 c0 -18 -7 -20 -61 -20 -90 0&#10;-147 -18 -188 -59 -57 -57 -79 -167 -46 -230 18 -37 106 -113 162 -143 24 -13&#10;43 -29 43 -35 0 -19 -11 -16 -76 23 -73 44 -142 109 -160 151 -31 72 -11 171&#10;48 238 42 48 73 60 171 69 32 3 66 10 75 16 25 14 32 12 32 -10z m27 -56 c-9&#10;-9 -28 6 -21 18 4 6 10 6 17 -1 6 -6 8 -13 4 -17z m-136 9 c-29 -3 -61 -16&#10;-95 -39 -28 -19 -50 -36 -49 -39 1 -3 -4 -20 -12 -39 -26 -62 -14 -130 29&#10;-165 9 -7 13 -18 9 -24 -3 -5 -1 -7 5 -3 6 3 18 -4 27 -16 8 -13 19 -23 23&#10;-23 4 0 6 -3 5 -7 -2 -4 5 -4 14 -1 11 4 14 3 9 -5 -5 -8 0 -12 14 -12 13 0&#10;19 -4 14 -12 -4 -7 -3 -8 5 -4 6 4 9 11 6 16 -3 4 2 13 10 20 12 10 13 8 10&#10;-10 -3 -14 3 -29 14 -39 19 -16 19 -17 1 -56 -10 -22 -19 -34 -19 -27 -1 7 4&#10;22 9 33 8 14 7 25 -3 39 -8 11 -16 17 -19 14 -10 -9 -88 45 -138 95 -44 44&#10;-47 50 -49 105 -2 63 24 146 47 146 7 0 11 4 7 9 -3 6 4 15 15 21 11 6 20 8&#10;20 5 0 -3 10 1 22 9 14 10 40 15 68 14 l45 -1 -44 -4z m94 -3 c-3 -5 -15 -10&#10;-26 -10 -10 0 -19 5 -19 10 0 6 12 10 26 10 14 0 23 -4 19 -10z m-45 -27 c-1&#10;-23 -19 -29 -75 -23 -55 6 -58 7 -35 18 28 12 110 16 110 5z m10 -42 c-8 -15&#10;-8 -27 0 -42 7 -11 9 -23 7 -26 -3 -2 -8 5 -12 17 -5 15 -13 20 -26 17 -25 -7&#10;-24 -4 9 30 31 33 39 34 22 4z m-560 -186 c146 -87 315 -187 375 -224 61 -36&#10;113 -65 117 -63 6 1 -7 -39 -18 -56 -1 -2 -27 11 -58 28 -31 18 -53 36 -50 41&#10;6 11 44 -7 44 -21 0 -6 3 -9 8 -9 19 3 33 -2 27 -11 -7 -12 -3 -12 19 -4 16 6&#10;24 26 9 22 -5 -2 -78 38 -163 88 -85 50 -253 149 -374 219 -139 82 -221 135&#10;-224 148 -4 14 -7 16 -13 5 -6 -9 -9 -6 -9 11 l0 24 23 -20 c12 -11 141 -91&#10;287 -178z m445 185 c-4 -6 -10 -8 -15 -5 -14 9 -23 -40 -16 -80 8 -40 31 -56&#10;64 -44 20 8 28 20 47 74 6 16 14 7 41 -50 18 -38 33 -73 33 -77 1 -4 -18 -11&#10;-41 -15 -41 -8 -43 -11 -46 -46 -4 -48 -17 -47 -81 3 -73 58 -85 80 -78 144 8&#10;79 24 98 85 105 7 0 10 -4 7 -9z m55 -10 c0 -5 -7 -10 -15 -10 -8 0 -15 -3&#10;-16 -7 -4 -42 -3 -66 3 -76 8 -12 8 -12 12 37 0 11 7 21 14 23 16 6 11 -27 -9&#10;-57 -14 -21 -16 -22 -32 -6 -20 20 -23 76 -5 94 15 15 48 16 48 2z m-770 -60&#10;c19 -17 38 -30 42 -30 7 0 93 -50 166 -96 12 -8 20 -20 16 -26 -4 -7 -9 -6&#10;-15 3 -5 8 -9 9 -9 3 0 -6 8 -18 17 -25 12 -10 14 -10 9 -1 -10 17 24 29 35&#10;11 5 -8 9 -9 9 -4 0 6 7 1 15 -9 8 -11 15 -16 15 -12 0 4 23 -5 50 -20 28 -15&#10;50 -34 50 -43 -1 -13 -3 -12 -15 3 -8 11 -15 17 -15 13 0 -9 -77 29 -85 43 -3&#10;5 -11 10 -17 10 -24 0 21 -35 124 -96 114 -68 123 -71 134 -52 4 6 3 8 -4 4&#10;-6 -3 -17 1 -26 9 -8 9 -18 15 -21 15 -16 -1 -65 33 -65 45 0 13 3 13 25 -1&#10;14 -9 25 -20 25 -25 0 -5 4 -8 8 -7 17 6 112 -54 106 -65 -4 -7 -4 -9 0 -5 4&#10;3 21 2 38 -4 22 -8 27 -13 18 -22 -8 -8 -13 -7 -20 4 -5 8 -10 12 -10 8 0 -4&#10;-13 -3 -30 2 -18 5 -32 5 -35 -1 -4 -5 -11 -9 -18 -9 -6 0 -2 6 8 14 11 8 24&#10;12 29 9 5 -4 6 -1 2 5 -9 15 -36 16 -36 2 0 -5 -8 -10 -17 -10 -9 0 -32 -14&#10;-50 -32 -18 -17 -34 -30 -36 -27 -2 2 -28 42 -59 89 -31 47 -71 99 -89 115&#10;-33 30 -32 27 19 -46 l24 -34 -27 30 c-55 61 -120 130 -120 127 0 -7 -41 13&#10;-54 26 -12 12 -23 5 -72 -48 -33 -34 -59 -67 -59 -73 0 -7 26 16 58 50 41 45&#10;61 60 71 53 12 -7 9 -14 -12 -40 -15 -17 -27 -36 -27 -42 0 -15 30 12 51 46&#10;l18 29 68 -69 c38 -38 95 -109 128 -159 72 -107 77 -118 39 -83 -39 36 -203&#10;140 -291 186 -70 36 -73 36 -86 18 -14 -19 -15 -19 -25 1 -9 17 -5 26 34 64&#10;50 48 90 107 80 116 -3 4 -6 1 -6 -7 0 -10 -3 -10 -15 0 -8 7 -12 16 -9 21 3&#10;5 -1 7 -8 4 -17 -6 -111 53 -103 65 9 15 17 12 55 -20z m858 -35 c-3 -3 -9 2&#10;-12 12 -6 14 -5 15 5 6 7 -7 10 -15 7 -18z m32 -85 c0 -11 -4 -20 -9 -20 -5 0&#10;-7 9 -4 20 3 11 7 20 9 20 2 0 4 -9 4 -20z m-87 -50 c-3 -12 -8 -19 -11 -16&#10;-5 6 5 36 12 36 2 0 2 -9 -1 -20z m-706 -115 c34 -20 63 -38 63 -41 0 -3 -30&#10;12 -67 32 -77 42 -80 44 -68 44 4 0 37 -16 72 -35z m-166 -16 c-22 -22 -70&#10;-81 -107 -130 -37 -49 -69 -89 -71 -89 -13 0 140 197 180 233 46 40 45 33 -2&#10;-14z m1149 7 c0 -3 -4 -8 -10 -11 -5 -3 -10 -1 -10 4 0 6 5 11 10 11 6 0 10&#10;-2 10 -4z m199 -22 c2 -10 10 -24 19 -30 8 -6 12 -16 8 -22 -11 -19 -26 -14&#10;-26 7 0 11 -4 22 -10 26 -5 3 -6 13 -3 22 4 11 3 14 -5 9 -7 -4 -12 -16 -12&#10;-27 0 -18 -6 -20 -87 -17 -70 2 -88 6 -88 18 0 12 18 16 88 18 52 2 87 7 87&#10;13 0 18 25 3 29 -17z m-939 -14 c12 -16 19 -30 16 -30 -2 0 -14 14 -26 30 -12&#10;17 -19 30 -16 30 2 0 14 -13 26 -30z m981 -7 c13 -16 12 -17 -3 -4 -17 13 -22&#10;21 -14 21 2 0 10 -8 17 -17z m-1081 -39 c0 -2 -9 0 -20 6 -11 6 -20 13 -20 16&#10;0 2 9 0 20 -6 11 -6 20 -13 20 -16z m1033 5 c3 -11 -1 -36 -9 -55 -17 -41 -11&#10;-57 19 -49 17 5 18 4 7 -4 -9 -5 -22 -11 -30 -13 -8 -2 -18 -7 -22 -13 -4 -5&#10;-11 -6 -15 -1 -4 4 -1 13 7 19 17 13 21 31 23 95 2 45 11 55 20 21z m-878 -41&#10;c16 -24 28 -45 28 -48 -1 -3 3 -10 8 -16 8 -10 18 -35 54 -139 6 -16 3 -15&#10;-13 5 -11 13 -18 28 -16 32 3 4 0 8 -6 8 -7 0 -9 7 -6 16 3 8 2 13 -3 10 -5&#10;-3 -14 1 -21 9 -7 8 -10 15 -6 15 3 0 -9 15 -27 33 -18 17 -23 24 -11 14 20&#10;-17 22 -17 28 -1 4 10 -4 35 -19 60 -33 56 -26 57 10 2z m844 1 c-16 -71 -24&#10;-79 -79 -79 -56 0 -65 10 -76 79 l-7 41 86 0 85 0 -9 -41z m86 31 c-4 -6 -1&#10;-18 6 -26 6 -8 9 -17 5 -21 -3 -3 -6 -1 -6 5 0 7 -7 12 -15 12 -18 0 -19 12&#10;-3 28 15 15 21 16 13 2z m-1050 -18 c-3 -3 -11 0 -18 7 -9 10 -8 11 6 5 10 -3&#10;15 -9 12 -12z m224 16 c-2 -2 -20 -16 -39 -33 l-35 -30 29 33 c17 17 34 32 40&#10;32 5 0 7 -1 5 -2z m-173 -50 l19 -23 -25 20 c-14 11 -27 21 -29 22 -2 2 0 3 6&#10;3 5 0 18 -10 29 -22z m991 -3 c2 -6 -10 -16 -27 -22 -33 -12 -35 -11 -19 18&#10;10 20 39 23 46 4z m-215 -72 c6 -7 7 -13 2 -13 -5 0 -17 14 -27 31 -15 27 -19&#10;30 -34 18 -13 -11 -13 -8 2 13 l20 27 13 -32 c8 -18 19 -38 24 -44z m254 40&#10;c7 -10 13 -22 13 -28 0 -5 -4 -2 -10 8 -5 9 -19 17 -30 17 -11 0 -17 5 -14 10&#10;9 15 26 12 41 -7z m-10 -28 c14 -35 -46 -61 -74 -33 -9 9 -12 9 -12 0 0 -19&#10;-70 -44 -86 -31 -23 19 -16 29 19 30 17 0 55 11 82 24 61 28 64 29 71 10z&#10;m-325 -26 c-5 -13 -10 -19 -10 -12 -1 15 10 45 15 40 3 -2 0 -15 -5 -28z m146&#10;0 c-14 -8 -22 -8 -30 0 -8 8 -3 11 19 11 25 -1 27 -2 11 -11z m-1420 -16 c-31&#10;-59 -110 -193 -114 -193 -5 0 8 24 64 123 25 42 47 77 49 77 3 0 3 -3 1 -7z&#10;m1613 -7 c0 -2 -7 -9 -15 -16 -13 -11 -14 -10 -9 4 5 14 24 23 24 12z m-219&#10;-41 c-18 -8 -36 -15 -40 -15 -13 1 45 29 59 29 8 0 0 -6 -19 -14z m179 11 c0&#10;-2 3 -11 6 -20 8 -20 -32 -23 -39 -3 -4 9 -8 8 -16 -3 -12 -18 -151 -28 -151&#10;-11 0 6 8 11 18 12 51 3 80 8 102 17 25 11 80 16 80 8z m-186 -75 c-5 -6 -34&#10;20 -34 30 0 5 8 1 18 -8 10 -10 17 -20 16 -22z m126 15 c0 -2 -9 -6 -20 -9&#10;-11 -3 -20 -1 -20 4 0 5 9 9 20 9 11 0 20 -2 20 -4z m-731 -101 c0 -11 -9 5&#10;-19 35 -11 30 -20 57 -19 60 2 12 38 -77 38 -95z m532 1 c18 -20 46 -40 63&#10;-45 27 -7 29 -9 12 -17 -13 -5 -21 -3 -24 4 -2 7 -13 12 -25 12 -12 0 -35 8&#10;-51 18 -25 15 -30 24 -31 65 -2 44 -2 46 10 23 7 -13 28 -40 46 -60z m-68 29&#10;c-3 -9 -8 -14 -10 -11 -3 3 -2 9 2 15 9 16 15 13 8 -4z m-52 -96 c-5 -13 -10&#10;-19 -10 -12 -1 15 10 45 15 40 3 -2 0 -15 -5 -28z m-1334 -11 c-3 -8 -6 -5 -6&#10;6 -1 11 2 17 5 13 3 -3 4 -12 1 -19z m15 -80 c-11 -11 -12 -10 -7 3 4 10 0 19&#10;-9 22 -9 4 -16 12 -16 19 0 7 9 3 22 -10 18 -18 20 -24 10 -34z m1289 5 c-8&#10;-15 -10 -15 -11 -2 0 17 10 32 18 25 2 -3 -1 -13 -7 -23z m-66 -35 c-59 -39&#10;-107 -44 -132 -14 -18 21 -18 21 2 4 25 -21 91 -11 130 20 15 12 32 22 38 22&#10;6 0 -11 -15 -38 -32z m-1258 -105 c-3 -10 -5 -4 -5 12 0 17 2 24 5 18 2 -7 2&#10;-21 0 -30z"/>
<path d="M2137 3439 c7 -7 15 -10 18 -7 3 3 -2 9 -12 12 -14 6 -15 5 -6 -5z"/>
<path d="M2370 3420 c-9 -6 -10 -10 -3 -10 6 0 15 5 18 10 8 12 4 12 -15 0z"/>
<path d="M2326 3412 c-3 -5 1 -9 9 -9 8 0 12 4 9 9 -3 4 -7 8 -9 8 -2 0 -6 -4&#10;-9 -8z"/>
<path d="M2339 3373 c-13 -16 -12 -17 4 -4 9 7 17 15 17 17 0 8 -8 3 -21 -13z"/>
<path d="M1957 3361 c-10 -14 -10 -14 4 -4 9 7 18 10 21 7 3 -3 8 -1 12 4 9&#10;16 -24 9 -37 -7z"/>
<path d="M2311 3324 c0 -11 3 -14 6 -6 3 7 2 16 -1 19 -3 4 -6 -2 -5 -13z"/>
<path d="M2273 3289 c0 -32 12 -39 19 -11 3 10 0 23 -7 29 -9 8 -12 4 -12 -18z"/>
<path d="M1899 3283 c-13 -16 -12 -17 4 -4 9 7 17 15 17 17 0 8 -8 3 -21 -13z"/>
<path d="M2253 3258 c6 -17 -18 -33 -34 -22 -5 3 -9 3 -9 0 0 -3 10 -11 23&#10;-17 12 -6 19 -8 15 -4 -4 4 -1 13 7 19 11 8 12 15 4 26 -9 13 -10 13 -6 -2z"/>
<path d="M1880 3246 c0 -2 7 -9 15 -16 13 -11 14 -10 9 4 -5 14 -24 23 -24 12z"/>
<path d="M1866 3213 c-6 -14 -5 -15 5 -6 7 7 10 15 7 18 -3 3 -9 -2 -12 -12z"/>
<path d="M1885 3200 c-3 -5 -1 -10 4 -10 6 0 11 5 11 10 0 6 -2 10 -4 10 -3 0&#10;-8 -4 -11 -10z"/>
<path d="M2151 3043 c-1 -31 18 -70 43 -87 32 -20 83 -29 103 -17 15 9 13 10&#10;-15 11 -51 0 -91 26 -112 73 -14 31 -19 36 -19 20z"/>
<path d="M1868 2907 c-10 -6 -9 -8 3 -4 9 3 21 1 26 -4 6 -6 10 -5 10 4 0 16&#10;-20 18 -39 4z"/>
<path d="M2213 2818 c0 -13 1 -17 4 -10 3 6 10 9 16 5 7 -4 6 1 -2 10 -17 21&#10;-17 21 -18 -5z"/>
<path d="M2273 2817 c-1 -11 -1 -18 0 -16 2 2 8 11 15 20 9 12 9 16 -1 16 -7&#10;0 -14 -9 -14 -20z"/>
<path d="M2185 2800 c-7 -12 2 -30 16 -30 5 0 9 5 9 11 0 5 -5 7 -12 3 -8 -5&#10;-9 -2 -5 9 7 19 2 23 -8 7z"/>
<path d="M2237 2793 c-4 -3 -7 -12 -7 -20 0 -15 26 -18 34 -4 7 11 -18 33 -27&#10;24z"/>
<path d="M2220 2720 c0 -5 7 -7 15 -4 8 4 15 8 15 10 0 2 -7 4 -15 4 -8 0 -15&#10;-4 -15 -10z"/>
<path d="M2336 2627 c3 -10 9 -15 12 -12 3 3 0 11 -7 18 -10 9 -11 8 -5 -6z"/>
<path d="M2260 3065 c-10 -12 -9 -16 5 -21 23 -9 40 10 22 25 -11 9 -17 8 -27&#10;-4z"/>
<path d="M2619 2763 c-7 -10 -9 -15 -5 -11 5 4 16 2 25 -5 14 -10 14 -10 4 4&#10;-7 9 -10 19 -6 22 3 4 4 7 1 7 -3 0 -12 -8 -19 -17z"/>
<path d="M2560 2745 c-12 -15 -7 -45 8 -45 4 0 17 7 28 15 16 12 17 14 2 15&#10;-9 0 -19 -6 -22 -12 -3 -7 -4 -1 -1 15 6 31 3 33 -15 12z"/>
<path d="M2486 2731 c-4 -5 4 -7 16 -3 16 4 19 2 13 -8 -5 -9 -4 -11 4 -6 6 4&#10;9 12 6 17 -8 12 -32 12 -39 0z"/>
<path d="M1943 2735 c0 -8 5 -11 10 -8 5 3 13 -1 18 -8 6 -10 9 -10 9 -2 0 7&#10;-8 17 -18 22 -14 7 -19 6 -19 -4z"/>
<path d="M1952 2634 c-12 -8 -22 -19 -22 -25 0 -17 18 -9 34 16 19 29 18 30&#10;-12 9z"/>
<path d="M1990 2609 c0 -5 5 -7 10 -4 6 3 10 8 10 11 0 2 -4 4 -10 4 -5 0 -10&#10;-5 -10 -11z"/>
<path d="M1995 2580 c-4 -6 -4 -14 -1 -17 3 -4 6 -1 6 6 0 7 5 9 11 6 6 -4 8&#10;-13 5 -21 -3 -7 0 -16 7 -20 7 -4 9 -4 5 1 -4 4 -2 17 4 29 6 11 7 18 3 14 -5&#10;-4 -14 -3 -21 3 -8 7 -14 7 -19 -1z"/>
<path d="M2043 2545 c0 -8 4 -12 9 -9 5 3 6 10 3 15 -9 13 -12 11 -12 -6z"/>
<path d="M2173 2545 c0 -8 7 -11 15 -7 11 4 14 1 9 -12 -4 -10 -3 -15 3 -11 5&#10;3 21 -6 35 -21 14 -15 25 -24 25 -20 0 10 -51 65 -71 76 -11 6 -16 5 -16 -5z"/>
<path d="M2075 2533 c3 -3 0 -11 -5 -18 -7 -8 -5 -12 4 -12 14 0 16 22 3 32&#10;-4 3 -5 2 -2 -2z"/>
<path d="M2217 2353 c-2 -5 4 -16 15 -25 15 -15 18 -15 18 -3 0 8 -5 15 -11&#10;15 -5 0 -7 5 -4 10 3 6 2 10 -4 10 -5 0 -12 -3 -14 -7z"/>
<path d="M2963 2408 c1 -15 6 -23 11 -18 4 4 4 16 -2 26 -9 16 -10 14 -9 -8z"/>
<path d="M2870 3496 c0 -2 7 -7 16 -10 8 -3 12 -2 9 4 -6 10 -25 14 -25 6z"/>
<path d="M1926 3468 c3 -5 10 -6 15 -3 13 9 11 12 -6 12 -8 0 -12 -4 -9 -9z"/>
<path d="M2824 3459 c-8 -14 6 -28 34 -34 19 -3 21 -1 12 16 -13 23 -22 26&#10;-14 4 5 -11 2 -13 -10 -9 -10 4 -15 13 -12 20 6 17 0 19 -10 3z"/>
<path d="M2544 3449 c-3 -6 -2 -15 3 -20 5 -5 9 -1 9 11 0 23 -2 24 -12 9z"/>
<path d="M1851 3427 c-13 -21 -12 -21 5 -5 10 10 16 20 13 22 -3 3 -11 -5 -18&#10;-17z"/>
<path d="M1539 3438 c-7 -25 -4 -34 13 -34 17 0 18 2 3 12 -12 9 -13 13 -3 17&#10;10 4 10 6 1 6 -7 1 -13 0 -14 -1z"/>
<path d="M2966 3408 c3 -5 10 -6 15 -3 13 9 11 12 -6 12 -8 0 -12 -4 -9 -9z"/>
<path d="M1497 3392 c-15 -16 -15 -19 -2 -19 8 0 13 3 10 5 -3 3 0 11 6 19 17&#10;20 5 16 -14 -5z"/>
<path d="M2486 3373 c-6 -14 -5 -15 5 -6 7 7 10 15 7 18 -3 3 -9 -2 -12 -12z"/>
<path d="M3051 3367 c-8 -10 -7 -14 2 -14 8 0 14 6 14 14 0 7 -1 13 -2 13 -2&#10;0 -8 -6 -14 -13z"/>
<path d="M1471 3347 c2 -1 11 -8 21 -15 12 -10 18 -10 24 -1 4 7 3 9 -4 5 -6&#10;-3 -13 -2 -17 4 -3 5 -11 10 -17 10 -6 0 -9 -1 -7 -3z"/>
<path d="M2469 3333 c-12 -16 -12 -17 2 -6 9 7 20 9 24 5 5 -4 5 -1 1 6 -9 16&#10;-11 15 -27 -5z"/>
<path d="M2800 3341 c0 -6 4 -13 10 -16 6 -3 7 1 4 9 -7 18 -14 21 -14 7z"/>
<path d="M3075 3341 c-3 -5 -2 -12 3 -15 5 -3 9 1 9 9 0 17 -3 19 -12 6z"/>
<path d="M3100 3340 c0 -5 5 -10 11 -10 5 0 7 5 4 10 -3 6 -8 10 -11 10 -2 0&#10;-4 -4 -4 -10z"/>
<path d="M1409 3323 c-13 -16 -12 -17 4 -4 9 7 17 15 17 17 0 8 -8 3 -21 -13z"/>
<path d="M1790 3320 c-9 -6 -10 -10 -3 -10 6 0 15 5 18 10 8 12 4 12 -15 0z"/>
<path d="M2610 3323 c0 -13 29 -38 35 -31 3 3 -4 13 -15 23 -11 10 -20 13 -20&#10;8z"/>
<path d="M2945 3321 c-3 -5 -2 -12 3 -15 5 -3 9 1 9 9 0 17 -3 19 -12 6z"/>
<path d="M3133 3304 c9 -11 14 -23 11 -26 -3 -3 1 -9 8 -14 7 -4 10 -4 6 1 -4&#10;4 -2 15 4 24 7 9 8 13 3 8 -4 -4 -18 1 -29 10 -21 18 -21 18 -3 -3z"/>
<path d="M2590 3302 c0 -7 5 -12 11 -12 5 0 8 -4 4 -9 -3 -5 -1 -12 4 -15 13&#10;-8 7 22 -7 36 -9 9 -12 9 -12 0z"/>
<path d="M2811 3286 c-10 -11 -9 -14 1 -12 14 2 23 15 15 22 -2 2 -10 -2 -16&#10;-10z"/>
<path d="M2575 3271 c-3 -5 -2 -12 3 -15 5 -3 9 1 9 9 0 17 -3 19 -12 6z"/>
<path d="M1360 3260 c13 -9 13 -10 0 -11 -8 -1 -19 -1 -24 0 -5 1 -4 -5 4 -13&#10;13 -17 25 -22 16 -7 -3 5 1 12 10 15 17 6 10 26 -9 26 -7 0 -6 -4 3 -10z"/>
<path d="M1762 3206 c1 -14 5 -23 9 -20 7 4 0 44 -7 44 -2 0 -3 -11 -2 -24z"/>
<path d="M1315 3210 c-4 -6 -2 -17 4 -24 6 -7 8 -16 4 -19 -3 -4 -4 -7 -1 -7&#10;3 0 11 7 18 16 11 12 11 15 -1 12 -8 -2 -13 4 -13 15 2 19 -2 22 -11 7z"/>
<path d="M2349 3203 c-13 -17 -13 -17 6 -3 11 8 22 16 24 17 2 2 0 3 -6 3 -6&#10;0 -17 -8 -24 -17z"/>
<path d="M2725 3191 c-9 -15 15 -25 28 -12 9 9 7 10 -7 5 -13 -5 -17 -4 -12 4&#10;4 7 5 12 2 12 -3 0 -7 -4 -11 -9z"/>
<path d="M2903 3173 c-10 -10 -13 -14 -6 -10 6 5 18 5 24 1 7 -4 9 -3 5 4 -3&#10;5 0 13 6 15 8 4 9 6 2 6 -7 1 -20 -7 -31 -16z"/>
<path d="M2739 3143 c-13 -16 -12 -17 4 -4 16 13 21 21 13 21 -2 0 -10 -8 -17&#10;-17z"/>
<path d="M1257 3126 c-4 -10 -1 -13 8 -9 8 3 12 9 9 14 -7 12 -11 11 -17 -5z"/>
<path d="M3286 3127 c4 -10 16 -22 28 -29 18 -9 19 -8 6 3 -8 8 -20 21 -27 29&#10;-11 13 -12 13 -7 -3z"/>
<path d="M2852 3111 c-10 -6 -9 -11 4 -22 14 -11 16 -11 10 0 -5 8 -3 17 5 22&#10;8 5 10 9 4 9 -5 0 -16 -4 -23 -9z"/>
<path d="M2596 3102 c-8 -13 11 -35 23 -28 16 10 14 36 -3 36 -8 0 -17 -4 -20&#10;-8z"/>
<path d="M2785 3071 c-3 -5 -2 -12 3 -15 5 -3 9 1 9 9 0 17 -3 19 -12 6z"/>
<path d="M1184 2968 c-3 -16 -9 -28 -14 -28 -7 0 -61 -143 -78 -210 l-9 -35&#10;355 3 c352 3 355 3 372 25 16 19 16 23 4 30 -8 5 -11 13 -8 19 4 7 2 8 -4 4&#10;-13 -8 -62 15 -82 39 -20 24 -23 55 -7 74 8 9 15 36 16 61 l2 45 -270 0 -271&#10;0 -6 -27z m524 -33 c-2 -26 -8 -45 -14 -45 -15 0 2 -83 17 -89 6 -1 2 -13 -8&#10;-25 -9 -11 -11 -15 -3 -9 10 9 17 10 27 1 11 -9 12 -7 7 8 -5 18 -5 18 9 2 8&#10;-10 22 -18 31 -18 10 0 14 -4 11 -10 -4 -6 1 -7 11 -3 12 4 15 2 12 -8 -3 -8&#10;-12 -13 -21 -13 -9 1 -15 -1 -13 -5 2 -3 -145 -6 -328 -6 -311 0 -332 1 -333&#10;18 -1 9 2 15 6 13 4 -3 7 3 7 12 0 61 5 84 17 79 8 -3 12 6 13 25 1 17 7 34&#10;15 39 8 5 11 9 6 9 -4 0 0 11 9 25 9 14 12 25 8 25 -5 0 -2 5 6 10 9 6 120 10&#10;263 10 l247 0 -2 -45z"/>
<path d="M1258 2743 c12 -2 32 -2 45 0 12 2 2 4 -23 4 -25 0 -35 -2 -22 -4z"/>
<path d="M2769 2990 c-1 -3 -1 -9 0 -14 3 -16 -42 -56 -63 -56 -14 0 -17 -3&#10;-9 -11 8 -8 19 -6 42 5 31 17 55 49 44 60 -3 3 24 6 60 6 47 0 67 -4 67 -12 0&#10;-8 3 -9 8 -3 9 13 42 15 42 3 0 -5 -9 -12 -19 -15 -11 -3 -22 -15 -25 -28 -3&#10;-13 -22 -41 -41 -62 -32 -35 -40 -56 -36 -92 2 -8 -2 -10 -11 -5 -7 4 -5 -2 5&#10;-13 26 -29 21 -40 -17 -38 -37 2 -59 12 -51 24 2 5 -4 27 -15 49 -11 23 -20&#10;46 -20 52 0 5 -5 10 -11 10 -6 0 -9 9 -6 20 3 11 1 18 -3 15 -5 -3 -10 1 -13&#10;7 -2 7 -7 10 -11 6 -4 -3 7 -33 24 -66 17 -33 33 -76 37 -95 l5 -35 67 -4 c36&#10;-2 68 -3 70 -1 2 1 -4 9 -12 18 -26 25 -32 81 -13 110 9 14 23 25 30 25 7 0&#10;16 13 19 29 3 16 17 41 30 55 21 23 26 24 43 11 10 -8 26 -14 34 -15 8 0 0 10&#10;-17 21 -18 12 -33 23 -33 25 0 9 356 2 367 -8 7 -6 13 -20 13 -32 0 -17 2 -19&#10;11 -6 8 12 9 7 6 -17 -2 -18 -1 -31 1 -28 3 3 12 -5 20 -17 11 -15 12 -23 4&#10;-26 -6 -2 -8 -10 -5 -18 3 -7 9 -11 14 -8 5 3 9 -3 9 -13 0 -11 4 -23 9 -28 4&#10;-6 11 -23 15 -38 l7 -28 -186 2 c-168 3 -186 5 -182 20 3 9 -3 24 -12 32 -28&#10;27 -40 45 -34 51 3 3 0 13 -8 23 -12 14 -12 16 0 8 10 -6 12 -4 5 6 -4 8 -8&#10;27 -7 44 1 22 -1 19 -9 -14 -11 -42 -10 -48 26 -115 l38 -71 199 3 c184 3 198&#10;4 189 20 -5 9 -16 41 -26 70 -9 30 -31 87 -49 129 l-32 75 -292 1 c-160 1&#10;-292 0 -292 -3z"/>
<path d="M2960 2905 c-23 -28 -23 -97 0 -140 58 -106 55 -95 33 -137 -25 -44&#10;-17 -49 17 -13 33 35 31 79 -6 135 -24 38 -29 55 -29 108 0 34 -1 62 -1 62 -1&#10;0 -7 -7 -14 -15z"/>
<path d="M2885 2800 c-4 -13 4 -39 25 -74 22 -40 29 -62 24 -80 -9 -38 12 -32&#10;25 6 10 29 8 37 -19 81 -16 26 -30 57 -30 68 0 25 -17 25 -25 -1z"/>
<path d="M1066 2608 c-3 -18 -8 -86 -12 -150 l-7 -118 235 0 234 0 47 68 c25&#10;37 69 94 96 126 28 33 48 63 44 69 -3 5 -9 4 -13 -3 -4 -6 -11 -12 -16 -12 -5&#10;0 -8 -5 -6 -10 4 -15 -29 -49 -41 -41 -6 3 -7 1 -3 -6 4 -6 1 -18 -8 -26 -11&#10;-11 -16 -12 -20 -2 -3 7 -5 6 -3 -3 1 -8 -7 -29 -18 -47 -14 -23 -22 -29 -31&#10;-22 -8 7 -14 7 -19 -1 -4 -6 -1 -9 6 -8 6 2 14 -3 17 -11 2 -8 0 -11 -5 -8 -6&#10;4 -15 -5 -21 -18 -13 -28 2 -27 -289 -29 l-152 -1 -5 30 c-7 42 1 165 13 197&#10;5 14 7 29 4 32 -4 3 131 6 300 6 193 0 308 -4 312 -10 10 -17 25 -11 25 10 0&#10;20 -7 20 -329 20 l-329 0 -6 -32z"/>
<path d="M2660 2629 c0 -4 7 -15 16 -23 24 -25 21 -46 -26 -141 -59 -122 -60&#10;-124 -60 -127 0 -2 42 -2 93 0 l94 3 19 37 c13 26 19 58 19 108 0 82 18 114&#10;66 114 22 0 26 4 22 20 -5 20 -12 21 -124 19 -66 -1 -119 -6 -119 -10z m169&#10;-20 c-8 -5 -10 -9 -5 -9 5 0 1 -9 -8 -19 -14 -15 -17 -35 -15 -91 2 -58 -1&#10;-75 -14 -85 -10 -7 -17 -21 -17 -31 0 -12 -7 -20 -19 -21 -14 -1 -18 3 -15 15&#10;5 14 4 14 -6 -1 -9 -14 -23 -17 -60 -16 -53 3 -53 1 -19 76 10 24 19 47 19 52&#10;0 5 7 14 15 21 8 7 13 16 10 20 -3 5 0 12 6 16 7 4 9 3 5 -4 -3 -6 -3 -13 2&#10;-16 12 -7 7 56 -6 81 -12 22 -12 22 64 21 46 0 71 -4 63 -9z"/>
<path d="M2701 2474 c0 -11 3 -14 6 -6 3 7 2 16 -1 19 -3 4 -6 -2 -5 -13z"/>
<path d="M3052 2620 c-11 -18 -10 -20 17 -20 16 0 34 -7 41 -15 7 -9 20 -13&#10;29 -10 8 3 12 3 8 -1 -3 -4 5 -20 18 -36 27 -32 32 -66 13 -87 -11 -11 -10&#10;-13 0 -7 7 4 15 0 18 -11 4 -10 14 -35 22 -55 l16 -38 129 0 130 0 -6 128 c-9&#10;190 16 170 -220 172 -193 1 -203 0 -215 -20z m406 -12 c6 -41 13 -232 9 -241&#10;-3 -9 -35 -11 -111 -7 -67 3 -106 1 -107 -5 -1 -12 -20 44 -21 63 -1 6 -5 12&#10;-10 12 -4 0 -8 15 -8 33 0 18 -7 43 -16 55 -12 17 -12 22 -2 23 7 0 3 5 -9 11&#10;-13 6 -25 19 -28 29 -3 10 -12 16 -19 13 -7 -3 -19 2 -26 11 -11 13 6 15 167&#10;15 136 0 180 -3 181 -12z"/>
<path d="M1636 2576 c6 -15 4 -17 -6 -11 -9 6 -11 4 -5 -4 5 -9 10 -10 18 -2&#10;8 8 7 14 -2 24 -10 10 -11 8 -5 -7z"/>
<path d="M1812 2535 c3 -3 16 -8 28 -10 12 -2 20 -1 16 2 -4 4 -16 8 -28 10&#10;-12 2 -19 1 -16 -2z"/>
<path d="M1096 2517 c3 -10 9 -15 12 -12 3 3 0 11 -7 18 -10 9 -11 8 -5 -6z"/>
<path d="M1734 2450 c-28 -27 -60 -69 -73 -92 l-22 -43 43 50 c24 27 60 67 81&#10;89 20 21 37 40 37 42 0 13 -22 -2 -66 -46z"/>
<path d="M1930 2470 c6 -11 13 -20 16 -20 2 0 0 9 -6 20 -6 11 -13 20 -16 20&#10;-2 0 0 -9 6 -20z"/>
<path d="M1810 2426 c0 -2 8 -10 18 -17 15 -13 16 -12 3 4 -13 16 -21 21 -21&#10;13z"/>
<path d="M1773 2405 c0 -8 4 -12 9 -9 5 3 6 10 3 15 -9 13 -12 11 -12 -6z"/>
<path d="M2311 2397 c-41 -44 -22 -55 97 -59 59 -2 110 -2 114 0 13 5 -142 82&#10;-166 82 -12 0 -32 -11 -45 -23z m96 -9 c7 -1 10 -5 8 -9 -3 -3 5 -9 17 -12 12&#10;-4 20 -9 17 -11 -3 -3 -20 -2 -37 4 -22 6 -30 5 -26 -2 4 -7 -2 -7 -17 -2 -13&#10;4 -32 7 -41 6 -14 -1 -15 2 -6 18 9 14 20 17 42 14 17 -3 36 -6 43 -6z"/>
<path d="M1890 2390 c-18 -12 -2 -12 25 0 13 6 15 9 5 9 -8 0 -22 -4 -30 -9z"/>
<path d="M1734 2362 c-30 -24 -66 -80 -62 -94 2 -6 15 4 28 23 13 19 35 46 48&#10;62 28 30 19 36 -14 9z"/>
<path d="M1882 2358 c-19 -6 -55 -31 -81 -54 -27 -24 -52 -40 -57 -36 -4 4 -3&#10;0 4 -9 6 -9 10 -19 7 -22 -3 -4 -2 -5 1 -3 3 2 4 6 2 8 -1 2 13 19 33 36 44&#10;38 124 76 145 68 10 -4 12 -2 8 6 -5 8 2 9 26 5 18 -4 51 -8 74 -9 39 -1 -89&#10;-18 -141 -18 -38 0 -117 -83 -161 -167 -41 -80 -70 -158 -37 -100 22 38 28 34&#10;8 -8 -9 -19 -19 -32 -23 -30 -4 2 -6 -4 -6 -13 0 -54 -5 -83 -13 -78 -23 15&#10;19 185 65 264 13 23 11 22 -14 -7 -49 -54 -73 -148 -70 -266 2 -73 6 -99 16&#10;-97 6 1 12 -7 12 -19 0 -19 -3 -18 -37 10 -53 44 -66 38 -18 -7 22 -21 49 -54&#10;60 -72 30 -51 46 -49 27 2 -11 28 -16 76 -17 139 l0 95 56 115 c57 117 111&#10;184 173 217 37 19 149 22 192 4 32 -13 75 -76 92 -132 11 -36 26 -276 27 -412&#10;l0 -77 20 20 c23 22 23 30 11 289 -7 153 -10 170 -38 230 -35 78 -52 98 -97&#10;117 -45 19 -206 26 -249 11z m320 -104 c15 -27 28 -56 28 -64 0 -8 -11 9 -25&#10;38 -13 29 -37 64 -52 79 -26 25 -26 26 -3 12 14 -9 37 -38 52 -65z m-326 39&#10;c-21 -16 -56 -52 -77 -82 -22 -30 -39 -49 -39 -43 0 24 117 152 139 152 9 0&#10;-2 -12 -23 -27z m361 -145 c-3 -8 -6 -5 -6 6 -1 11 2 17 5 13 3 -3 4 -12 1&#10;-19z m-494 -33 c-3 -9 -8 -14 -10 -11 -3 3 -2 9 2 15 9 16 15 13 8 -4z m504&#10;-187 c-2 -13 -4 -5 -4 17 -1 22 1 32 4 23 2 -10 2 -28 0 -40z"/>
<path d="M1795 2349 c-11 -16 -1 -19 13 -3 7 8 8 14 3 14 -5 0 -13 -5 -16 -11z"/>
<path d="M1765 2337 c-6 -7 -15 -19 -20 -27 -7 -12 -6 -13 7 -3 8 7 17 11 19&#10;8 3 -2 5 5 6 15 2 23 2 23 -12 7z"/>
<path d="M1183 2313 c37 -2 97 -2 135 0 37 2 6 3 -68 3 -74 0 -105 -1 -67 -3z"/>
<path d="M1599 2303 c-12 -16 -12 -17 2 -6 9 7 20 9 24 5 5 -4 5 -1 1 6 -9 16&#10;-11 15 -27 -5z"/>
<path d="M1031 2284 c0 -11 3 -14 6 -6 3 7 2 16 -1 19 -3 4 -6 -2 -5 -13z"/>
<path d="M1066 2248 c9 -58 24 -121 46 -195 l21 -73 113 0 114 0 0 33 c1 39&#10;33 121 83 205 l36 62 -209 0 -209 0 5 -32z m378 -3 c-4 -8 -9 -15 -13 -15 -3&#10;0 -17 -24 -31 -52 -13 -29 -27 -55 -30 -58 -9 -8 -30 -75 -30 -96 0 -16 -2&#10;-17 -10 -4 -8 13 -10 13 -10 -2 0 -14 -12 -16 -86 -15 l-87 2 -23 75 c-13 41&#10;-22 81 -19 88 3 7 0 10 -5 7 -6 -4 -10 12 -10 39 l0 46 180 0 c155 0 179 -2&#10;174 -15z"/>
<path d="M1586 2249 c-23 -27 -34 -59 -21 -59 2 0 18 20 35 45 35 51 25 61&#10;-14 14z"/>
<path d="M2335 2263 c4 -10 14 -38 23 -63 18 -54 31 -75 95 -157 l49 -63 73 0&#10;c86 0 106 13 124 80 7 25 22 55 34 68 16 17 22 39 25 87 l4 65 -217 0 c-203 0&#10;-217 -1 -210 -17z m56 -15 c0 -10 2 -10 6 0 3 9 48 12 172 12 l168 0 1 -37 c1&#10;-20 -4 -43 -11 -52 -10 -12 -9 -13 3 -6 8 4 5 -3 -6 -16 -12 -13 -29 -46 -39&#10;-74 -23 -71 -29 -75 -100 -75 -69 0 -98 7 -89 22 3 5 13 4 22 -4 15 -10 15&#10;-10 4 2 -7 8 -23 15 -35 15 -13 1 -21 6 -19 14 1 7 -2 19 -8 25 -5 7 -6 17 -2&#10;21 4 5 1 4 -7 0 -11 -6 -13 -4 -7 10 6 16 4 16 -11 4 -9 -8 -14 -9 -10 -2 4 6&#10;3 14 -3 18 -6 3 -17 20 -26 37 -9 16 -11 27 -5 24 6 -4 7 4 1 25 -12 40 -24&#10;54 -15 16 10 -36 0 -35 -14 3 -9 27 -8 30 10 30 10 0 19 -6 20 -12z"/>
<path d="M3209 2273 c-1 -5 0 -18 1 -30 2 -32 -23 -74 -83 -140 -33 -35 -56&#10;-71 -60 -90 l-6 -33 173 0 174 0 16 48 c23 68 43 150 51 205 l7 47 -136 0&#10;c-75 0 -136 -3 -137 -7z m246 -35 c-3 -13 -7 -36 -10 -53 -11 -69 -18 -96 -26&#10;-101 -5 -3 -9 -18 -9 -35 0 -16 -5 -29 -11 -29 -5 0 -8 -4 -5 -9 6 -9 -261&#10;-13 -294 -4 -24 6 -16 28 28 73 23 23 31 28 23 13 -6 -12 -7 -24 -3 -27 8 -5&#10;12 8 13 47 0 13 5 17 17 12 9 -3 13 -3 9 1 -4 4 4 21 17 38 14 19 23 44 22 64&#10;l-1 32 118 0 c117 0 117 0 112 -22z"/>
<path d="M1706 2262 c-2 -4 2 -15 9 -25 11 -15 13 -15 18 -2 4 8 3 14 -1 14&#10;-19 -3 -25 2 -12 11 9 6 10 10 3 10 -6 0 -14 -3 -17 -8z"/>
<path d="M2856 2255 c-3 -8 2 -29 10 -47 10 -22 13 -25 8 -8 -3 14 -6 35 -6&#10;48 0 26 -4 28 -12 7z"/>
<path d="M1876 2251 c-5 -8 5 -20 30 -34 6 -3 11 0 11 7 0 7 -7 13 -16 12 -9&#10;0 -15 5 -13 12 2 14 -4 16 -12 3z"/>
<path d="M1686 2237 c3 -10 9 -15 12 -12 3 3 0 11 -7 18 -10 9 -11 8 -5 -6z"/>
<path d="M1623 2217 c0 -8 6 -14 14 -14 9 0 10 4 2 14 -6 7 -12 13 -14 13 -1&#10;0 -2 -6 -2 -13z"/>
<path d="M1658 2223 c6 -2 9 -10 6 -15 -4 -7 -2 -8 5 -4 13 9 5 26 -12 25 -9&#10;0 -8 -2 1 -6z"/>
<path d="M2161 2214 c0 -11 3 -14 6 -6 3 7 2 16 -1 19 -3 4 -6 -2 -5 -13z"/>
<path d="M3491 2214 c0 -11 3 -14 6 -6 3 7 2 16 -1 19 -3 4 -6 -2 -5 -13z"/>
<path d="M3110 2189 c0 -5 5 -7 10 -4 6 3 10 8 10 11 0 2 -4 4 -10 4 -5 0 -10&#10;-5 -10 -11z"/>
<path d="M1580 2167 c0 -9 4 -18 9 -21 5 -4 8 1 7 9 -3 21 -16 31 -16 12z"/>
<path d="M2104 2152 c-1 -15 1 -21 3 -14 3 6 9 9 15 6 6 -4 5 2 -1 15 -15 27&#10;-16 27 -17 -7z"/>
<path d="M1958 2138 c7 -7 12 -23 12 -36 0 -13 4 -21 9 -17 5 3 13 0 16 -5 5&#10;-8 -4 -9 -29 -5 -51 10 -66 -6 -66 -70 0 -56 19 -85 57 -85 20 0 25 -23 10&#10;-46 -9 -16 0 -22 26 -17 20 4 22 9 19 61 -2 31 -8 61 -13 67 -12 12 -11 38 1&#10;30 6 -4 8 -11 5 -16 -4 -5 4 -9 17 -9 13 -1 37 -12 53 -25 29 -24 29 -25 7&#10;-25 -13 0 -20 4 -17 10 4 6 -5 10 -19 10 -20 0 -26 -5 -26 -21 0 -19 4 -20 53&#10;-16 67 6 82 13 95 43 11 22 9 24 -12 24 -13 0 -26 -7 -30 -15 -3 -8 -9 -15&#10;-13 -15 -14 0 -33 53 -24 64 12 15 -3 106 -20 117 -8 5 -39 9 -68 9 -43 0 -52&#10;-3 -43 -12z m113 -25 c13 -16 12 -17 -3 -4 -17 13 -22 21 -14 21 2 0 10 -8 17&#10;-17z m-32 -24 c-26 -6 -39 -3 -39 11 0 13 33 18 49 6 11 -9 9 -12 -10 -17z&#10;m38 -18 c0 -11 -4 -18 -8 -15 -4 2 -9 -5 -12 -16 -5 -21 -41 -28 -52 -10 -13&#10;22 -35 -3 -35 -41 0 -21 -4 -39 -9 -39 -19 0 -33 31 -29 65 2 19 -1 36 -6 38&#10;-6 2 -2 6 8 10 10 4 15 3 11 -3 -4 -6 15 -10 49 -10 45 0 58 4 68 20 16 25 17&#10;25 15 1z m-5 -53 c-9 -9 -9 -15 1 -27 10 -14 10 -14 -5 -3 -14 11 -15 17 -5&#10;32 6 11 13 17 16 14 3 -2 -1 -10 -7 -16z m78 -52 c0 -2 -8 -10 -17 -17 -16&#10;-13 -17 -12 -4 4 13 16 21 21 21 13z"/>
<path d="M2950 2137 c-14 -8 -31 -12 -38 -9 -6 2 -12 -1 -12 -7 0 -5 10 -7 23&#10;-4 12 3 30 6 39 6 9 1 15 4 12 8 -2 4 2 10 8 12 7 3 9 6 3 6 -5 1 -21 -5 -35&#10;-12z"/>
<path d="M1551 2131 c-10 -7 -7 -9 12 -8 14 1 23 5 20 10 -6 9 -15 9 -32 -2z"/>
<path d="M1809 2123 c-12 -16 -12 -17 2 -6 9 7 20 9 24 5 5 -4 5 -1 1 6 -9 16&#10;-11 15 -27 -5z"/>
<path d="M1783 2101 c0 -11 5 -18 9 -15 4 3 5 11 1 19 -7 21 -12 19 -10 -4z"/>
<path d="M1909 2117 c0 -1 -2 -10 -4 -20 -3 -15 -1 -16 13 -5 9 7 18 13 20 14&#10;2 1 -4 4 -13 7 -8 4 -15 5 -16 4z"/>
<path d="M2192 2100 c0 -14 2 -19 5 -12 2 6 2 18 0 25 -3 6 -5 1 -5 -13z"/>
<path d="M1796 2064 c-10 -14 -16 -33 -14 -42 3 -12 11 -4 26 26 24 46 15 58&#10;-12 16z"/>
<path d="M2110 2070 c0 -22 15 -27 24 -7 3 6 3 2 0 -10 -4 -17 -1 -23 12 -23&#10;10 0 27 -8 38 -17 17 -16 17 -13 -4 17 -39 59 -70 76 -70 40z"/>
<path d="M1462 2011 c6 -10 20 -24 32 -31 l21 -13 -20 23 c-11 12 -18 25 -15&#10;28 3 3 -3 6 -12 8 -14 2 -15 -1 -6 -15z"/>
<path d="M1745 2011 c-6 -11 13 -26 22 -17 4 3 1 6 -6 6 -7 0 -9 5 -6 10 3 6&#10;4 10 1 10 -3 0 -7 -4 -11 -9z"/>
<path d="M2818 2003 c7 -3 16 -2 19 1 4 3 -2 6 -13 5 -11 0 -14 -3 -6 -6z"/>
<path d="M2780 1985 c-7 -9 -8 -15 -2 -15 5 0 12 7 16 15 3 8 4 15 2 15 -2 0&#10;-9 -7 -16 -15z"/>
<path d="M1759 1964 c-19 -23 -24 -144 -7 -167 12 -17 14 -11 10 45 -2 35 1&#10;81 6 101 12 41 10 44 -9 21z"/>
<path d="M1816 1962 c-3 -5 1 -9 9 -9 8 0 12 4 9 9 -3 4 -7 8 -9 8 -2 0 -6 -4&#10;-9 -8z"/>
<path d="M1135 1949 c-4 -6 -5 -12 -2 -15 2 -3 7 2 10 11 7 17 1 20 -8 4z"/>
<path d="M1565 1950 c-4 -6 -11 -8 -16 -5 -5 3 -6 -1 -3 -9 3 -8 13 -17 21&#10;-20 12 -5 13 -3 5 7 -9 10 -8 17 0 25 7 7 9 12 6 12 -4 0 -10 -5 -13 -10z"/>
<path d="M1850 1941 c0 -7 -4 -9 -10 -6 -6 4 -7 -1 -3 -11 6 -15 7 -15 15 1 6&#10;9 7 19 4 22 -3 4 -6 1 -6 -6z"/>
<path d="M1797 1933 c-11 -10 -8 -73 3 -73 6 0 10 18 10 40 0 41 -2 45 -13 33z"/>
<path d="M2780 1930 c-9 -6 -10 -10 -3 -10 6 0 15 5 18 10 8 12 4 12 -15 0z"/>
<path d="M2910 1936 c0 -2 7 -9 15 -16 9 -7 15 -8 15 -2 0 5 -7 12 -15 16 -8&#10;3 -15 4 -15 2z"/>
<path d="M1860 1911 c-7 -15 -7 -22 2 -27 7 -4 10 -4 6 1 -4 4 -3 16 3 26 5&#10;11 7 19 5 19 -3 0 -10 -9 -16 -19z"/>
<path d="M2429 1928 c-6 -22 -5 -39 3 -45 7 -3 8 -1 4 5 -9 15 6 16 21 1 8 -8&#10;13 -8 18 0 3 6 3 11 -2 10 -15 -4 -43 13 -37 22 3 5 3 9 0 9 -3 0 -6 -1 -7 -2z"/>
<path d="M1903 1905 c0 -8 4 -12 9 -9 5 3 6 10 3 15 -9 13 -12 11 -12 -6z"/>
<path d="M3376 1892 l-19 -27 24 22 c12 12 21 24 18 27 -2 2 -13 -8 -23 -22z"/>
<path d="M1463 1895 c0 -8 4 -15 9 -15 4 0 8 4 8 9 0 6 -4 12 -8 15 -5 3 -9&#10;-1 -9 -9z"/>
<path d="M2064 1885 c1 -19 6 -25 25 -25 17 0 22 4 17 16 -3 9 -6 20 -6 25 0&#10;5 -9 9 -19 9 -14 0 -19 -7 -17 -25z"/>
<path d="M1562 1868 c-15 -15 -15 -28 0 -28 6 0 8 3 5 7 -4 3 -2 12 4 20 14&#10;16 7 17 -9 1z"/>
<path d="M2483 1865 c0 -8 4 -12 9 -9 5 3 6 10 3 15 -9 13 -12 11 -12 -6z"/>
<path d="M2125 1859 c-5 -8 -4 -10 3 -5 15 9 15 -7 1 -21 -9 -9 -7 -11 7 -8&#10;11 1 18 9 16 16 -5 23 -19 32 -27 18z"/>
<path d="M1180 1851 c0 -6 4 -13 10 -16 6 -3 7 1 4 9 -7 18 -14 21 -14 7z"/>
<path d="M2036 1847 c3 -10 9 -15 12 -12 3 3 0 11 -7 18 -10 9 -11 8 -5 -6z"/>
<path d="M2063 1816 l-18 -21 24 20 c13 11 25 19 28 17 3 -2 7 -2 9 1 2 2 -3&#10;4 -11 4 -8 0 -23 -10 -32 -21z"/>
<path d="M2868 1827 c12 -7 19 -17 15 -22 -4 -4 -2 -5 6 0 12 7 11 10 -4 22&#10;-11 7 -24 13 -29 13 -6 -1 -1 -6 12 -13z"/>
<path d="M1981 1817 c-8 -10 -7 -14 2 -14 8 0 14 6 14 14 0 7 -1 13 -2 13 -2&#10;0 -8 -6 -14 -13z"/>
<path d="M1798 1802 c4 -10 7 -12 10 -4 2 7 9 9 15 5 7 -3 8 -2 4 2 -14 16&#10;-36 14 -29 -3z"/>
<path d="M2905 1800 c-10 -11 -16 -22 -14 -24 2 -2 12 7 22 20 22 29 17 32 -8&#10;4z"/>
<path d="M1217 1778 c20 -22 24 -23 16 -1 -5 12 -3 14 8 8 8 -4 11 -4 6 0 -4&#10;5 -16 9 -27 10 -19 2 -19 1 -3 -17z"/>
<path d="M2919 1783 c-13 -16 -12 -17 4 -4 9 7 17 15 17 17 0 8 -8 3 -21 -13z"/>
<path d="M3311 1776 c-9 -10 -8 -15 2 -19 8 -3 13 3 13 14 0 23 0 23 -15 5z"/>
<path d="M3016 1768 c3 -5 10 -6 15 -3 13 9 11 12 -6 12 -8 0 -12 -4 -9 -9z"/>
<path d="M1756 1758 c3 -5 10 -6 15 -3 13 9 11 12 -6 12 -8 0 -12 -4 -9 -9z"/>
<path d="M2575 1760 c-3 -6 1 -7 9 -4 18 7 21 14 7 14 -6 0 -13 -4 -16 -10z"/>
<path d="M2614 1749 c-3 -6 -2 -15 3 -20 5 -5 9 -1 9 11 0 23 -2 24 -12 9z"/>
<path d="M2890 1756 c0 -2 7 -7 16 -10 8 -3 12 -2 9 4 -6 10 -25 14 -25 6z"/>
<path d="M1266 1733 c-6 -14 -5 -15 5 -6 7 7 10 15 7 18 -3 3 -9 -2 -12 -12z"/>
<path d="M2995 1736 c-17 -12 -17 -13 3 -11 26 2 37 11 24 19 -5 3 -17 -1 -27&#10;-8z"/>
<path d="M2570 1736 c0 -2 7 -7 16 -10 8 -3 12 -2 9 4 -6 10 -25 14 -25 6z"/>
<path d="M2200 1710 c0 -5 9 -19 20 -30 11 -11 20 -22 20 -25 0 -3 2 -5 5 -5&#10;3 0 8 0 12 0 4 0 -5 12 -20 26 -15 14 -25 29 -22 35 4 5 1 9 -4 9 -6 0 -11 -4&#10;-11 -10z"/>
<path d="M1256 1702 c-3 -5 1 -9 9 -9 8 0 12 4 9 9 -3 4 -7 8 -9 8 -2 0 -6 -4&#10;-9 -8z"/>
<path d="M2275 1690 c-4 -6 -11 -7 -17 -4 -7 4 -8 2 -4 -5 6 -9 11 -9 22 0 14&#10;11 18 19 10 19 -3 0 -8 -5 -11 -10z"/>
<path d="M2417 1689 c7 -7 15 -10 18 -7 3 3 -2 9 -12 12 -14 6 -15 5 -6 -5z"/>
<path d="M2896 1681 c-3 -5 2 -15 12 -22 15 -12 16 -12 5 2 -7 9 -10 19 -6 22&#10;3 4 4 7 0 7 -3 0 -8 -4 -11 -9z"/>
<path d="M2405 1659 c1 -13 4 -24 6 -24 11 1 52 35 42 35 -7 0 -15 -5 -18 -11&#10;-5 -6 -11 -4 -19 7 -12 15 -13 14 -11 -7z"/>
<path d="M1238 1628 c-30 -39 -31 -41 -6 -23 14 11 25 25 25 30 -1 6 3 9 9 8&#10;6 -1 11 5 11 13 0 20 -1 19 -39 -28z"/>
<path d="M1696 1661 c-4 -5 -2 -12 3 -15 5 -4 12 -2 15 3 4 5 2 12 -3 15 -5 4&#10;-12 2 -15 -3z"/>
<path d="M920 1650 c-9 -6 -10 -10 -3 -10 6 0 15 5 18 10 8 12 4 12 -15 0z"/>
<path d="M2296 1648 c3 -5 10 -6 15 -3 13 9 11 12 -6 12 -8 0 -12 -4 -9 -9z"/>
<path d="M3291 1646 c-9 -11 -9 -16 1 -22 7 -4 10 -4 6 1 -4 4 -3 14 3 22 6 7&#10;9 13 6 13 -2 0 -10 -6 -16 -14z"/>
<path d="M3315 1641 c-3 -6 5 -15 17 -21 21 -10 21 -10 6 3 -10 8 -15 17 -11&#10;20 3 4 4 7 0 7 -3 0 -8 -4 -12 -9z"/>
<path d="M1455 1631 c-6 -11 13 -26 22 -17 4 3 1 6 -6 6 -7 0 -9 5 -6 10 3 6&#10;4 10 1 10 -3 0 -7 -4 -11 -9z"/>
<path d="M1786 1628 c3 -5 10 -6 15 -3 13 9 11 12 -6 12 -8 0 -12 -4 -9 -9z"/>
<path d="M2375 1629 c-4 -6 -5 -12 -2 -15 2 -3 7 2 10 11 7 17 1 20 -8 4z"/>
<path d="M845 1609 c-4 -6 -5 -12 -2 -15 2 -3 7 2 10 11 7 17 1 20 -8 4z"/>
<path d="M1275 1610 c3 -5 1 -10 -6 -10 -7 0 -10 -3 -6 -6 3 -3 16 1 29 10&#10;l22 16 -22 0 c-13 0 -20 -4 -17 -10z"/>
<path d="M2026 1603 c-6 -14 -5 -15 5 -6 7 7 10 15 7 18 -3 3 -9 -2 -12 -12z"/>
<path d="M2665 1609 c-3 -5 1 -6 9 -3 9 3 16 2 16 -3 0 -5 9 -9 21 -10 11 -1&#10;19 3 17 9 -5 14 -56 20 -63 7z"/>
<path d="M1495 1600 c-7 -11 -8 -11 23 -14 27 -3 28 0 3 14 -13 7 -22 7 -26 0z"/>
<path d="M1776 1602 c-2 -4 4 -9 15 -9 11 -1 17 2 14 8 -7 11 -22 12 -29 1z"/>
<path d="M2122 1594 c-7 -8 -8 -14 -3 -14 10 0 25 19 20 25 -2 1 -10 -3 -17&#10;-11z"/>
<path d="M2784 1595 c-10 -8 -14 -15 -8 -15 6 0 17 7 24 15 16 19 9 19 -16 0z"/>
<path d="M3306 1602 c-3 -5 1 -9 9 -9 8 0 12 4 9 9 -3 4 -7 8 -9 8 -2 0 -6 -4&#10;-9 -8z"/>
<path d="M1226 1581 c-12 -13 -14 -21 -6 -26 14 -9 23 0 27 25 4 25 1 25 -21&#10;1z"/>
<path d="M2741 1586 c-8 -10 -8 -16 1 -24 10 -8 13 -4 13 14 0 28 1 28 -14 10z"/>
<path d="M951 1554 c-19 -24 -21 -40 -21 -155 0 -119 2 -130 23 -154 21 -25&#10;28 -27 107 -26 47 0 91 0 98 0 31 2 52 41 52 96 l0 55 -58 0 c-56 0 -58 -1&#10;-57 -27 0 -23 -4 -28 -25 -28 -25 0 -25 1 -24 85 0 83 0 85 25 85 20 0 25 -6&#10;27 -32 3 -33 4 -33 58 -33 l54 0 0 58 c0 48 -4 62 -23 80 -21 19 -34 22 -119&#10;22 -92 0 -97 -1 -117 -26z m229 -9 c6 -7 10 -34 9 -59 -3 -45 -4 -46 -35 -46&#10;-24 0 -33 5 -38 22 -3 13 -1 27 4 32 6 6 10 14 10 20 0 5 -6 2 -13 -9 -13 -17&#10;-15 -17 -35 3 -15 15 -22 18 -22 8 0 -8 -7 -16 -15 -20 -20 -7 -22 -178 -2&#10;-194 17 -14 58 -25 55 -15 -1 4 3 18 10 31 7 12 9 22 5 22 -4 0 -2 4 5 9 7 4&#10;25 7 40 6 25 -1 27 -4 27 -46 0 -67 -12 -76 -106 -78 -60 -2 -87 2 -105 14&#10;-24 16 -25 18 -23 153 0 75 5 142 11 149 14 17 204 15 218 -2z"/>
<path d="M1144 1520 c0 -13 4 -16 10 -10 7 7 7 13 0 20 -6 6 -10 3 -10 -10z"/>
<path d="M1066 1267 c3 -10 9 -15 12 -12 3 3 0 11 -7 18 -10 9 -11 8 -5 -6z"/>
<path d="M1270 1560 c-18 -18 -20 -33 -20 -182 l0 -163 55 0 55 0 0 46 c0 52&#10;4 59 31 52 15 -4 19 -14 19 -49 l0 -44 50 0 c28 0 53 0 56 0 3 0 5 73 4 162&#10;-1 205 3 198 -132 198 -85 0 -101 -3 -118 -20z m215 -22 c-5 -18 -4 -19 4 -8&#10;18 26 22 -8 19 -155 l-3 -140 -37 -3 -37 -3 -3 48 c-3 44 -5 48 -31 51 -39 5&#10;-57 -14 -57 -59 l0 -39 -42 0 c-24 0 -38 4 -33 8 10 7 12 75 5 207 -5 110 0&#10;114 123 115 97 0 98 0 92 -22z"/>
<path d="M1415 1520 c-3 -5 -15 -10 -25 -10 -30 0 -50 -28 -50 -71 0 -33 4&#10;-40 24 -45 50 -12 61 -3 62 54 1 32 -3 52 -10 52 -6 0 -2 7 8 15 11 8 15 15 9&#10;15 -7 0 -15 -4 -18 -10z m-7 -71 c2 -29 -1 -37 -17 -42 -26 -6 -31 0 -31 38 0&#10;36 7 47 30 43 9 -2 16 -16 18 -39z"/>
<path d="M1446 1513 c-6 -14 -5 -15 5 -6 7 7 10 15 7 18 -3 3 -9 -2 -12 -12z"/>
<path d="M1562 1399 l3 -182 55 0 55 0 1 64 1 64 47 3 46 3 0 51 0 50 -42 -6&#10;c-39 -6 -44 -4 -54 19 -7 13 -9 24 -5 23 3 0 27 0 54 1 l47 1 0 45 0 45 -105&#10;0 -105 0 2 -181z m188 136 c0 -22 -4 -25 -37 -25 -51 0 -61 -9 -56 -47 5 -31&#10;7 -33 49 -33 42 0 44 -1 44 -30 0 -28 -2 -30 -38 -30 -25 0 -43 -7 -55 -20 -9&#10;-11 -12 -20 -6 -20 6 0 9 -19 7 -47 -3 -47 -4 -47 -40 -51 l-38 -3 0 165 0&#10;166 85 0 c84 0 85 0 85 -25z"/>
<path d="M1658 1413 c7 -3 16 -2 19 1 4 3 -2 6 -13 5 -11 0 -14 -3 -6 -6z"/>
<path d="M1631 1274 c0 -11 3 -14 6 -6 3 7 2 16 -1 19 -3 4 -6 -2 -5 -13z"/>
<path d="M1812 1399 l3 -181 100 0 100 0 3 46 2 46 -50 0 c-43 0 -50 3 -50 19&#10;0 17 8 20 48 23 l47 3 0 45 0 45 -45 0 c-39 0 -45 3 -48 23 -3 20 0 22 46 22&#10;l50 0 0 45 0 45 -104 0 -104 0 2 -181z m188 134 c0 -21 -4 -24 -32 -21 -19 2&#10;-41 -3 -50 -12 -25 -20 -23 -57 3 -65 11 -4 18 -9 15 -12 -3 -4 -1 -12 5 -20&#10;9 -10 8 -13 -1 -13 -8 0 -11 -3 -7 -6 3 -3 11 -3 17 1 8 5 8 11 -1 21 -12 14&#10;-12 14 33 18 6 1 13 -11 15 -26 3 -26 1 -28 -35 -28 -41 0 -62 -14 -62 -41 0&#10;-26 29 -44 66 -40 32 2 34 1 34 -28 l0 -31 -85 0 -84 0 0 165 0 166 85 -2 c82&#10;-1 84 -2 84 -26z"/>
<path d="M1973 1395 c0 -8 4 -15 9 -15 4 0 8 4 8 9 0 6 -4 12 -8 15 -5 3 -9&#10;-1 -9 -9z"/>
<path d="M1939 1253 c-13 -16 -12 -17 4 -4 16 13 21 21 13 21 -2 0 -10 -8 -17&#10;-17z"/>
<path d="M2142 1399 l3 -182 55 0 55 0 -3 57 -4 58 29 -4 c27 -3 28 -5 29 -57&#10;l1 -54 54 0 54 0 3 58 c2 40 -2 64 -13 82 -15 22 -15 26 -1 42 24 27 21 121&#10;-5 155 -20 25 -23 26 -140 26 l-119 0 2 -181z m246 149 c17 -17 15 -126 -2&#10;-143 -7 -8 -16 -12 -19 -9 -3 3 -8 -1 -13 -8 -4 -7 -4 -10 1 -6 11 11 38 -29&#10;29 -44 -4 -7 -3 -8 4 -4 9 5 12 -9 12 -48 l0 -56 -40 0 c-36 0 -40 3 -40 25 0&#10;14 6 25 13 26 10 0 10 2 0 6 -7 2 -13 15 -13 27 0 13 -10 31 -22 42 -12 10&#10;-18 13 -14 6 5 -9 3 -13 -5 -11 -24 3 -39 -1 -38 -8 1 -5 1 -32 0 -60 l-1 -53&#10;-40 0 -40 0 0 165 0 165 108 0 c71 0 112 -4 120 -12z"/>
<path d="M2240 1521 c0 -6 5 -11 12 -11 9 0 9 -3 0 -12 -16 -16 -15 -78 1 -82&#10;6 -3 28 -7 47 -10 25 -4 31 -3 20 4 -13 8 -9 13 10 12 3 0 5 15 5 33 0 18 -4&#10;33 -10 32 -5 -1 -9 3 -8 8 1 6 -10 12 -24 13 -14 1 -32 7 -39 13 -10 9 -14 9&#10;-14 0z m65 -61 c0 -19 -6 -26 -25 -28 -23 -3 -25 1 -24 25 1 15 3 29 3 31 1 2&#10;11 2 24 0 16 -2 22 -10 22 -28z"/>
<path d="M2360 1359 c0 -6 -7 -9 -15 -5 -9 3 -15 0 -15 -10 0 -12 4 -12 20 -4&#10;18 10 28 30 15 30 -3 0 -5 -5 -5 -11z"/>
<path d="M2480 1560 c-18 -18 -20 -33 -20 -178 0 -87 2 -161 4 -163 2 -2 27&#10;-2 55 -1 l51 4 0 44 c0 40 2 44 24 44 22 0 25 -5 28 -46 l3 -46 53 -2 c28 0&#10;52 3 52 9 1 6 1 80 0 165 -1 193 2 190 -136 190 -81 0 -97 -3 -114 -20z m223&#10;-18 c15 -13 17 -35 17 -164 l0 -148 -40 0 c-40 0 -40 0 -40 38 0 21 -6 44 -12&#10;50 -10 10 -10 15 2 22 13 8 12 10 -2 10 -10 0 -18 -5 -18 -11 0 -7 -9 -9 -24&#10;-5 -28 7 -36 -7 -36 -65 0 -38 -1 -39 -36 -39 l-35 0 2 153 c1 85 6 158 12&#10;165 15 19 186 15 210 -6z"/>
<path d="M2680 1541 c0 -5 7 -15 17 -22 15 -13 15 -12 4 9 -12 23 -21 28 -21&#10;13z"/>
<path d="M2586 1525 c6 -14 4 -16 -6 -10 -8 5 -11 4 -6 -3 3 -6 2 -13 -3 -16&#10;-5 -4 -11 2 -14 11 -2 10 -3 -11 -3 -47 1 -64 1 -65 31 -70 17 -3 35 0 43 6&#10;17 17 15 79 -3 94 -9 7 -13 20 -10 29 3 8 3 12 -1 8 -4 -4 -13 -2 -21 5 -11 9&#10;-12 7 -7 -7z m34 -74 c0 -30 -4 -40 -19 -44 -26 -6 -31 0 -31 38 0 36 6 45 32&#10;45 14 0 18 -8 18 -39z"/>
<path d="M2791 1554 c-19 -24 -21 -40 -21 -156 0 -128 0 -130 28 -156 26 -27&#10;29 -27 125 -22 116 6 127 14 127 97 l0 53 -54 0 c-52 0 -55 -1 -58 -27 -2 -22&#10;-8 -28 -27 -28 -24 0 -24 2 -23 85 0 82 1 85 24 85 19 0 24 -6 26 -32 3 -33 4&#10;-33 58 -33 l54 0 0 58 c0 48 -4 62 -23 80 -21 19 -34 22 -119 22 -92 0 -97 -1&#10;-117 -26z m230 -10 c9 -11 8 -18 -2 -31 -10 -11 -10 -14 -1 -9 9 5 12 -3 12&#10;-29 0 -36 -1 -36 -37 -33 -26 2 -38 8 -38 18 -1 8 -7 25 -15 37 -13 20 -16 20&#10;-41 7 -27 -13 -28 -17 -31 -104 -2 -64 0 -91 9 -95 7 -2 11 -10 9 -17 -1 -7&#10;-1 -10 1 -5 3 4 13 7 23 7 19 0 36 16 42 40 3 17 35 28 61 22 18 -4 25 -42 7&#10;-42 -5 0 -14 -10 -20 -22 -10 -21 -10 -21 3 -5 8 9 16 17 19 17 10 0 1 -41&#10;-12 -53 -10 -10 -12 -9 -6 3 6 12 4 11 -6 -1 -9 -12 -33 -16 -88 -18 -115 -3&#10;-119 2 -119 167 0 93 4 130 11 126 7 -4 8 -2 4 4 -15 25 8 31 104 31 73 0 102&#10;-4 111 -15z"/>
<path d="M2945 1540 c-3 -6 1 -7 9 -4 18 7 21 14 7 14 -6 0 -13 -4 -16 -10z"/>
<path d="M2986 1525 c6 -14 4 -17 -9 -12 -9 3 -19 1 -23 -6 -4 -7 -3 -9 1 -4&#10;5 4 16 0 25 -8 14 -13 16 -12 15 9 0 14 -4 28 -8 32 -4 5 -5 0 -1 -11z"/>
<path d="M2936 1281 c-3 -5 1 -14 8 -20 10 -9 16 -9 21 -1 4 6 1 9 -7 8 -7 -2&#10;-12 3 -10 10 2 14 -4 16 -12 3z"/>
<path d="M2886 1252 c-3 -5 1 -9 9 -9 8 0 12 4 9 9 -3 4 -7 8 -9 8 -2 0 -6 -4&#10;-9 -8z"/>
<path d="M3090 1394 c0 -166 2 -185 16 -180 9 3 56 6 106 6 l90 0 -5 27 c-3&#10;15 -1 36 3 47 7 20 5 21 -46 18 -49 -4 -54 -2 -54 17 0 17 7 20 48 23 l47 3 0&#10;45 0 45 -45 0 c-39 0 -45 3 -48 23 -3 20 1 22 46 22 l49 0 0 45 0 45 -104 0&#10;-103 0 0 -186z m145 156 c3 -5 12 -10 18 -10 7 0 6 4 -3 10 -12 8 -11 10 8 10&#10;17 0 22 -6 22 -25 0 -29 -25 -31 -48 -5 -10 13 -11 12 -5 -5 6 -18 5 -18 -10&#10;-6 -15 12 -17 12 -12 -1 4 -9 -1 -18 -9 -21 -9 -4 -16 -17 -16 -31 0 -25 34&#10;-44 76 -40 17 1 21 -5 22 -27 1 -27 -2 -29 -37 -29 -42 0 -61 -14 -61 -46 0&#10;-26 23 -38 68 -35 31 2 32 1 30 -28 l-2 -31 -82 0 -81 0 0 165 0 165 58 0 c32&#10;0 61 -4 64 -10z"/>
<path d="M3207 1389 c7 -7 15 -10 18 -7 3 3 -2 9 -12 12 -14 6 -15 5 -6 -5z"/>
<path d="M3332 1399 l3 -182 55 0 55 0 3 56 c3 54 16 73 40 58 6 -3 12 -31 14&#10;-60 l3 -54 50 0 50 0 3 63 c2 48 -1 67 -14 81 -16 18 -16 20 -1 37 12 13 17&#10;37 17 80 0 95 -11 102 -160 102 l-120 0 2 -181z m246 148 c26 -20 9 -168 -19&#10;-152 -5 4 -9 3 -8 -2 3 -18 -2 -34 -9 -29 -4 2 -14 0 -22 -5 -12 -7 -11 -8 5&#10;-6 11 1 25 6 31 10 21 13 35 -20 32 -75 -3 -52 -4 -53 -37 -56 l-33 -3 3 49&#10;c4 55 -9 72 -55 72 -32 0 -39 -12 -40 -69 -1 -46 -1 -46 -38 -49 l-36 -3 0&#10;166 0 165 107 -2 c58 -1 112 -6 119 -11z"/>
<path d="M3500 1540 c0 -5 7 -7 15 -4 8 4 15 8 15 10 0 2 -7 4 -15 4 -8 0 -15&#10;-4 -15 -10z"/>
<path d="M3445 1508 c-19 -23 -22 -80 -4 -86 5 -2 7 -7 5 -10 -2 -4 10 -7 28&#10;-7 33 0 37 5 37 50 0 40 -4 54 -13 49 -4 -3 -8 -1 -8 5 0 6 -7 7 -17 4 -11 -4&#10;-14 -3 -9 5 12 19 2 14 -19 -10z m53 -47 c2 -13 -2 -27 -9 -31 -21 -14 -39 1&#10;-39 32 0 25 4 29 23 26 14 -2 23 -11 25 -27z"/>
<path d="M3526 1488 c3 -5 10 -6 15 -3 13 9 11 12 -6 12 -8 0 -12 -4 -9 -9z"/>
<path d="M3445 1381 c-6 -11 13 -26 22 -17 4 3 1 6 -6 6 -7 0 -9 5 -6 10 3 6&#10;4 10 1 10 -3 0 -7 -4 -11 -9z"/>
<path d="M843 1525 c0 -27 2 -38 4 -22 2 15 2 37 0 50 -2 12 -4 0 -4 -28z"/>
<path d="M1777 1475 c-4 -8 -3 -16 1 -19 4 -3 9 4 9 15 2 23 -3 25 -10 4z"/>
<path d="M3656 1467 c3 -10 9 -15 12 -12 3 3 0 11 -7 18 -10 9 -11 8 -5 -6z"/>
<path d="M842 1395 c0 -16 2 -22 5 -12 2 9 2 23 0 30 -3 6 -5 -1 -5 -18z"/>
<path d="M1215 1410 c-3 -5 -1 -10 4 -10 6 0 11 5 11 10 0 6 -2 10 -4 10 -3 0&#10;-8 -4 -11 -10z"/>
<path d="M3624 1409 c-5 -8 -3 -9 6 -4 10 6 12 4 7 -9 -4 -10 -7 -20 -7 -22 0&#10;-3 -5 -2 -12 2 -7 5 -8 3 -3 -6 6 -10 11 -9 22 5 7 11 13 22 13 26 0 14 -19&#10;19 -26 8z"/>
<path d="M2920 1389 c0 -5 5 -7 10 -4 6 3 10 8 10 11 0 2 -4 4 -10 4 -5 0 -10&#10;-5 -10 -11z"/>
<path d="M2025 1341 c-3 -5 -2 -12 3 -15 5 -3 9 1 9 9 0 17 -3 19 -12 6z"/>
<path d="M2047 1299 c7 -7 15 -10 18 -7 3 3 -2 9 -12 12 -14 6 -15 5 -6 -5z"/>
<path d="M1777 1218 c19 -21 31 -25 14 -5 -6 8 -9 16 -6 19 3 2 -2 5 -10 5&#10;-13 0 -13 -3 2 -19z"/>
<path d="M3631 1222 c-7 -13 -6 -19 2 -19 7 0 13 9 13 19 0 10 -1 18 -3 18 -1&#10;0 -7 -8 -12 -18z"/>
<path d="M3032 1212 l-23 -18 26 1 c13 1 28 5 32 10 5 4 2 4 -6 0 -11 -6 -13&#10;-4 -8 8 8 21 7 21 -21 -1z"/>
<path d="M910 1211 c0 -5 5 -13 10 -16 6 -3 10 -2 10 4 0 5 -4 13 -10 16 -5 3&#10;-10 2 -10 -4z"/>
<path d="M1380 1216 c0 -2 8 -10 18 -17 15 -13 16 -12 3 4 -13 16 -21 21 -21&#10;13z"/>
<path d="M890 1203 c0 -6 8 -17 18 -24 16 -13 16 -13 2 6 -8 11 -16 22 -17 24&#10;-2 2 -3 0 -3 -6z"/>
<path d="M2260 1194 c0 -9 -5 -12 -12 -8 -7 4 -8 3 -4 -4 9 -16 36 -3 29 14&#10;-7 18 -13 18 -13 -2z"/>
<path d="M2580 1207 c0 -4 9 -16 20 -27 11 -11 20 -16 20 -12 0 5 -9 17 -20&#10;27 -11 10 -20 15 -20 12z"/>
<path d="M3310 1206 c0 -2 7 -7 16 -10 8 -3 12 -2 9 4 -6 10 -25 14 -25 6z"/>
<path d="M1230 1190 c-9 -6 -10 -10 -3 -10 6 0 15 5 18 10 8 12 4 12 -15 0z"/>
<path d="M2130 1196 c0 -2 8 -10 18 -17 15 -13 16 -12 3 4 -13 16 -21 21 -21&#10;13z"/>
<path d="M3443 1185 c0 -8 4 -12 9 -9 5 3 6 10 3 15 -9 13 -12 11 -12 -6z"/>
<path d="M2300 1175 c-7 -9 -11 -17 -9 -20 3 -2 10 5 17 15 14 24 10 26 -8 5z"/>
<path d="M2993 1175 c0 -7 6 -11 14 -8 7 3 13 6 13 8 0 2 -6 5 -13 8 -8 3 -14&#10;-1 -14 -8z"/>
<path d="M3480 1184 c0 -1 6 -7 14 -13 10 -9 15 -8 19 2 3 8 -3 13 -14 13 -11&#10;0 -19 -1 -19 -2z"/>
<path d="M1208 1168 c9 -11 10 -18 2 -23 -5 -3 -10 -12 -10 -18 0 -8 3 -7 9 2&#10;6 10 10 10 13 1 3 -9 7 -8 16 3 10 12 8 18 -15 32 -22 15 -25 15 -15 3z"/>
<path d="M1622 1161 c-11 -7 -11 -9 0 -14 9 -3 15 1 15 9 0 8 -1 14 -1 14 -1&#10;0 -7 -4 -14 -9z"/>
<path d="M1765 1161 c-9 -15 13 -23 32 -11 15 9 14 10 -6 4 -16 -4 -21 -3 -17&#10;5 4 6 5 11 2 11 -3 0 -7 -4 -11 -9z"/>
<path d="M3080 1166 c0 -2 8 -10 18 -17 15 -13 16 -12 3 4 -13 16 -21 21 -21&#10;13z"/>
<path d="M1290 1150 c8 -5 20 -10 25 -10 6 0 3 5 -5 10 -8 5 -19 10 -25 10 -5&#10;0 -3 -5 5 -10z"/>
<path d="M1534 1147 c-4 -6 -4 -9 1 -5 4 4 14 3 22 -4 7 -6 15 -9 18 -7 2 3&#10;-4 10 -15 17 -15 9 -21 9 -26 -1z"/>
<path d="M2334 1149 c-4 -7 -3 -9 4 -5 5 3 13 0 15 -6 4 -9 6 -10 6 -1 1 17&#10;-16 25 -25 12z"/>
<path d="M2536 1152 c-5 -8 50 -10 57 -2 3 3 -8 6 -24 7 -15 1 -30 -1 -33 -5z"/>
<path d="M2879 1158 c-5 -18 -6 -38 -1 -34 7 8 12 36 6 36 -2 0 -4 -1 -5 -2z"/>
<path d="M2460 1146 c0 -2 8 -10 18 -17 15 -13 16 -12 3 4 -13 16 -21 21 -21&#10;13z"/>
<path d="M2998 1143 c7 -3 16 -2 19 1 4 3 -2 6 -13 5 -11 0 -14 -3 -6 -6z"/>
<path d="M1244 1118 l-19 -23 23 19 c21 18 27 26 19 26 -2 0 -12 -10 -23 -22z"/>
<path d="M2513 1132 c4 -2 3 -10 -3 -17 -8 -9 -8 -15 0 -20 6 -4 9 -1 8 6 -2&#10;6 3 14 11 17 10 3 11 0 5 -9 -7 -12 -5 -12 9 0 20 16 21 18 5 18 -7 0 -20 3&#10;-28 5 -8 3 -11 3 -7 0z"/>
<path d="M2275 1120 c3 -5 8 -10 11 -10 2 0 4 5 4 10 0 6 -5 10 -11 10 -5 0&#10;-7 -4 -4 -10z"/>
<path d="M2315 1120 c-3 -6 1 -7 9 -4 18 7 21 14 7 14 -6 0 -13 -4 -16 -10z"/>
<path d="M1270 1100 c-27 -27 -26 -71 3 -98 27 -25 55 -28 83 -8 15 12 16 17&#10;7 27 -9 9 -15 9 -26 0 -8 -6 -23 -8 -32 -4 -13 4 -16 3 -11 -5 11 -18 0 -14&#10;-15 5 -10 12 -11 15 -1 9 10 -6 11 -2 7 16 -8 33 19 57 45 40 14 -9 21 -8 31&#10;4 29 35 -57 48 -91 14z"/>
<path d="M1421 1094 c-27 -35 -26 -59 4 -89 53 -53 126 -12 115 65 -7 53 -84&#10;68 -119 24z m29 2 c0 -2 -8 -10 -17 -17 -16 -13 -17 -12 -4 4 13 16 21 21 21&#10;13z m48 -18 c30 -30 -11 -85 -44 -57 -25 21 -11 69 21 69 6 0 16 -5 23 -12z&#10;m-58 -63 c14 -19 14 -19 -2 -6 -10 7 -18 18 -18 24 0 6 1 8 3 6 1 -2 9 -13 17&#10;-24z"/>
<path d="M1546 1112 c-3 -5 1 -9 9 -9 8 0 15 4 15 9 0 4 -4 8 -9 8 -6 0 -12&#10;-4 -15 -8z"/>
<path d="M1590 1050 c0 -65 2 -70 21 -70 18 0 20 4 15 25 -6 23 -3 25 24 25&#10;20 0 30 5 30 15 0 19 -56 21 -63 3 -2 -7 -4 1 -3 17 1 29 3 30 39 26 29 -2 37&#10;0 37 13 0 13 -11 16 -50 16 l-50 0 0 -70z"/>
<path d="M1730 1050 c0 -65 2 -70 21 -70 18 0 20 4 14 23 -4 12 -8 38 -9 57&#10;-1 35 -1 35 36 31 30 -2 38 0 38 13 0 13 -11 16 -50 16 l-50 0 0 -70z"/>
<path d="M1870 1050 l0 -70 56 0 c47 0 55 3 52 18 -2 13 -11 16 -35 14 -24 -3&#10;-34 2 -43 18 -6 12 -9 24 -6 28 3 3 6 0 6 -6 0 -7 15 -12 36 -12 45 0 42 24&#10;-3 28 -50 5 -48 28 2 24 33 -3 42 0 42 12 0 13 -12 16 -54 16 l-53 0 0 -70z"/>
<path d="M2020 1050 l0 -70 50 0 c42 0 50 3 50 19 0 15 -7 19 -31 17 -18 0&#10;-34 5 -36 12 -3 8 6 12 26 12 21 0 31 5 31 15 0 10 -10 15 -29 15 -16 0 -31 6&#10;-34 13 -3 9 6 11 34 9 31 -3 39 -1 39 12 0 13 -11 16 -50 16 l-50 0 0 -70z"/>
<path d="M2200 1109 c0 -5 5 -7 10 -4 6 3 10 8 10 11 0 2 -4 4 -10 4 -5 0 -10&#10;-5 -10 -11z"/>
<path d="M2380 1050 l0 -70 34 0 c46 0 86 33 86 71 0 42 -31 69 -80 69 l-40 0&#10;0 -70z m81 24 c16 -20 3 -48 -30 -61 -28 -10 -29 -9 -22 11 5 11 5 33 1 47 -7&#10;23 -5 25 16 21 13 -2 28 -10 35 -18z"/>
<path d="M2562 1097 c-12 -13 -22 -33 -22 -46 0 -29 43 -71 73 -71 33 0 67 40&#10;67 78 0 58 -76 83 -118 39z m28 -1 c0 -2 -8 -10 -17 -17 -16 -13 -17 -12 -4 4&#10;13 16 21 21 21 13z m50 -21 c15 -18 5 -51 -18 -60 -11 -4 -23 1 -35 16 -16 20&#10;-16 23 -1 40 20 23 37 24 54 4z m-59 -62 c13 -16 12 -17 -3 -4 -10 7 -18 15&#10;-18 17 0 8 8 3 21 -13z"/>
<path d="M2607 1049 c7 -7 15 -10 18 -7 3 3 -2 9 -12 12 -14 6 -15 5 -6 -5z"/>
<path d="M2730 1050 c0 -57 3 -70 16 -70 13 0 15 10 11 60 -2 33 -2 58 2 55 3&#10;-4 6 -14 6 -23 0 -9 6 -16 13 -14 8 1 11 -2 7 -8 -8 -13 32 -70 51 -70 11 0&#10;14 16 14 70 0 64 -2 70 -20 70 -16 0 -19 -5 -15 -22 10 -46 12 -99 3 -90 -4 4&#10;-10 18 -13 30 -7 37 -38 82 -57 82 -16 0 -18 -9 -18 -70z"/>
<path d="M2900 1067 c0 -59 19 -87 58 -87 38 0 62 34 62 90 0 43 -3 50 -20 50&#10;-17 0 -20 -7 -20 -49 0 -53 -12 -70 -35 -51 -10 8 -12 25 -8 56 5 40 3 44 -16&#10;44 -19 0 -21 -6 -21 -53z"/>
<path d="M3050 1105 c0 -8 9 -15 20 -15 18 0 20 -7 20 -55 0 -48 2 -55 20 -55&#10;18 0 20 7 20 55 0 48 2 55 20 55 11 0 20 7 20 15 0 12 -13 15 -60 15 -47 0&#10;-60 -3 -60 -15z"/>
<path d="M3210 1105 c-18 -21 -8 -48 23 -63 15 -7 27 -18 27 -25 0 -7 4 -6 10&#10;3 6 9 10 10 10 3 0 -20 -15 -23 -43 -8 -22 11 -28 11 -37 0 -9 -10 -7 -16 9&#10;-24 29 -16 56 -13 74 7 25 28 21 39 -23 67 -48 30 -50 37 -10 25 30 -9 47 1&#10;35 20 -9 15 -61 12 -75 -5z m35 -53 c-3 -3 -11 0 -18 7 -9 10 -8 11 6 5 10 -3&#10;15 -9 12 -12z"/>
<path d="M2240 1085 c0 -14 4 -25 9 -25 12 0 23 29 15 41 -10 18 -24 9 -24&#10;-16z"/>
<path d="M2333 1088 c0 -13 1 -17 4 -10 3 6 10 9 16 5 7 -4 6 1 -2 10 -17 21&#10;-17 21 -18 -5z"/>
<path d="M1220 1081 c0 -7 -5 -9 -12 -5 -7 5 -8 3 -3 -5 5 -9 10 -10 18 -2 6&#10;6 8 14 4 18 -4 3 -7 1 -7 -6z"/>
<path d="M2134 1079 c-4 -7 -3 -9 4 -5 6 3 15 -1 20 -10 8 -15 10 -14 16 2 4&#10;10 4 15 0 11 -4 -4 -13 -2 -20 4 -8 7 -14 6 -20 -2z"/>
<path d="M843 1035 c0 -27 2 -38 4 -22 2 15 2 37 0 50 -2 12 -4 0 -4 -28z"/>
<path d="M2200 1055 c0 -8 9 -15 20 -15 13 0 20 -7 20 -20 0 -12 7 -20 16 -20&#10;11 0 14 5 10 16 -4 11 1 18 14 21 11 3 20 12 20 19 0 17 -22 18 -38 2 -9 -9&#10;-15 -9 -24 0 -17 17 -38 15 -38 -3z"/>
<path d="M1316 1048 c3 -5 10 -6 15 -3 13 9 11 12 -6 12 -8 0 -12 -4 -9 -9z"/>
<path d="M1760 1045 c0 -10 10 -15 30 -15 20 0 30 5 30 15 0 10 -10 15 -30 15&#10;-20 0 -30 -5 -30 -15z"/>
<path d="M3183 1053 c4 -3 1 -13 -6 -22 -11 -14 -10 -14 5 -2 16 12 16 31 1&#10;31 -4 0 -3 -3 0 -7z"/>
<path d="M1701 1034 c0 -11 3 -14 6 -6 3 7 2 16 -1 19 -3 4 -6 -2 -5 -13z"/>
<path d="M2130 1029 c0 -4 6 -9 13 -12 8 -3 14 0 14 7 0 7 -6 13 -14 13 -7 0&#10;-13 -4 -13 -8z"/>
<path d="M2883 991 c0 -11 5 -18 9 -15 4 3 5 11 1 19 -7 21 -12 19 -10 -4z"/>
<path d="M1220 993 c0 -6 8 -17 18 -24 16 -13 16 -13 2 6 -8 11 -16 22 -17 24&#10;-2 2 -3 0 -3 -6z"/>
<path d="M1255 980 c10 -11 20 -20 23 -20 3 0 -3 9 -13 20 -10 11 -20 20 -23&#10;20 -3 0 3 -9 13 -20z"/>
<path d="M3316 987 c3 -10 9 -15 12 -12 3 3 0 11 -7 18 -10 9 -11 8 -5 -6z"/>
<path d="M1366 975 c-11 -8 -15 -15 -9 -15 6 0 16 7 23 15 16 19 11 19 -14 0z"/>
<path d="M1393 971 c-8 -13 -7 -17 8 -17 9 0 16 3 13 7 -2 4 1 9 8 11 8 3 7 6&#10;-3 10 -9 3 -20 -1 -26 -11z"/>
<path d="M2660 980 c-9 -6 -10 -10 -3 -10 6 0 15 5 18 10 8 12 4 12 -15 0z"/>
<path d="M3002 977 c-8 -10 -6 -13 8 -14 13 -1 17 3 13 13 -6 17 -8 17 -21 1z"/>
<path d="M1523 965 c0 -7 6 -11 14 -8 7 3 13 6 13 8 0 2 -6 5 -13 8 -8 3 -14&#10;-1 -14 -8z"/>
<path d="M1661 964 c0 -11 3 -14 6 -6 3 7 2 16 -1 19 -3 4 -6 -2 -5 -13z"/>
<path d="M1990 969 c-13 -9 -12 -10 3 -5 21 7 22 -2 2 -24 -13 -15 -13 -17 0&#10;-17 8 0 13 3 10 5 -3 3 0 11 7 19 15 19 -2 36 -22 22z"/>
<path d="M3175 970 c-4 -6 1 -7 11 -3 15 6 15 4 -1 -23 l-17 -29 20 25 c20 24&#10;20 40 2 40 -5 0 -12 -4 -15 -10z"/>
<path d="M3295 970 c3 -5 8 -10 11 -10 2 0 4 5 4 10 0 6 -5 10 -11 10 -5 0 -7&#10;-4 -4 -10z"/>
<path d="M1552 954 c-7 -8 -8 -14 -3 -14 10 0 25 19 20 25 -2 1 -10 -3 -17&#10;-11z"/>
<path d="M1761 956 c-9 -11 -9 -16 0 -22 8 -5 9 -3 4 6 -6 9 -1 10 16 5 13 -3&#10;20 -3 14 2 -5 5 -13 12 -16 16 -3 4 -12 1 -18 -7z"/>
<path d="M3265 961 c-3 -5 -2 -12 3 -15 5 -3 9 1 9 9 0 17 -3 19 -12 6z"/>
<path d="M1485 950 c-3 -6 1 -7 9 -4 18 7 21 14 7 14 -6 0 -13 -4 -16 -10z"/>
<path d="M2060 951 c0 -6 4 -13 10 -16 6 -3 7 1 4 9 -7 18 -14 21 -14 7z"/>
<path d="M3227 949 c7 -9 10 -19 6 -23 -4 -4 1 -4 10 0 10 3 17 7 15 8 -2 1&#10;-12 8 -23 16 -18 14 -19 13 -8 -1z"/>
<path d="M1252 941 c-11 -7 -10 -9 3 -14 9 -4 14 -3 10 2 -3 5 1 12 7 14 7 3&#10;9 6 3 6 -5 0 -16 -3 -23 -8z"/>
<path d="M2327 937 c-3 -8 1 -14 9 -14 16 0 19 13 5 21 -5 3 -11 0 -14 -7z"/>
<path d="M2410 946 c0 -2 8 -10 18 -17 15 -13 16 -12 3 4 -13 16 -21 21 -21&#10;13z"/>
<path d="M2784 936 c13 -11 23 -13 30 -6 6 6 14 6 22 -1 8 -7 14 -6 20 3 4 7&#10;4 10 -1 6 -4 -4 -14 -3 -21 3 -8 7 -14 7 -19 -1 -4 -7 -13 -7 -28 1 -21 10&#10;-21 10 -3 -5z"/>
<path d="M2925 940 c-3 -6 1 -7 9 -4 18 7 21 14 7 14 -6 0 -13 -4 -16 -10z"/>
<path d="M2585 930 c-3 -6 1 -7 9 -4 18 7 21 14 7 14 -6 0 -13 -4 -16 -10z"/>
<path d="M2636 932 c-3 -5 1 -9 9 -9 8 0 12 4 9 9 -3 4 -7 8 -9 8 -2 0 -6 -4&#10;-9 -8z"/>
<path d="M1576 3528 c3 -5 10 -6 15 -3 13 9 11 12 -6 12 -8 0 -12 -4 -9 -9z"/>
<path d="M1545 3520 c-3 -5 -1 -10 4 -10 6 0 11 5 11 10 0 6 -2 10 -4 10 -3 0&#10;-8 -4 -11 -10z"/>
<path d="M1390 3406 c0 -2 7 -7 16 -10 8 -3 12 -2 9 4 -6 10 -25 14 -25 6z"/>
<path d="M1364 3365 c-10 -8 -14 -14 -9 -15 15 0 40 18 34 24 -3 3 -14 -1 -25&#10;-9z"/>
<path d="M1326 3342 c-3 -5 1 -9 9 -9 8 0 12 4 9 9 -3 4 -7 8 -9 8 -2 0 -6 -4&#10;-9 -8z"/>
<path d="M1231 3221 c-19 -14 -21 -20 -10 -26 8 -5 11 -5 7 0 -4 4 3 16 15 26&#10;29 24 19 24 -12 0z"/>
<path d="M1177 3146 c-4 -10 -1 -13 8 -9 8 3 12 9 9 14 -7 12 -11 11 -17 -5z"/>
<path d="M2840 3706 c0 -2 7 -7 16 -10 8 -3 12 -2 9 4 -6 10 -25 14 -25 6z"/>
<path d="M2908 3673 c7 -3 16 -2 19 1 4 3 -2 6 -13 5 -11 0 -14 -3 -6 -6z"/>
<path d="M3004 3628 c3 -15 26 -23 26 -8 0 6 -4 9 -9 6 -5 -4 -12 -1 -14 4 -3&#10;6 -4 5 -3 -2z"/>
<path d="M3206 3472 c-2 -4 4 -8 14 -8 10 0 16 4 14 8 -3 4 -9 8 -14 8 -5 0&#10;-11 -4 -14 -8z"/>
<path d="M3250 3430 c0 -5 5 -10 11 -10 5 0 7 5 4 10 -3 6 -8 10 -11 10 -2 0&#10;-4 -4 -4 -10z"/>
<path d="M3306 3381 c-4 -5 -2 -12 3 -15 5 -4 12 -2 15 3 4 5 2 12 -3 15 -5 4&#10;-12 2 -15 -3z"/>
<path d="M3485 3130 c-3 -5 -1 -10 4 -10 6 0 11 5 11 10 0 6 -2 10 -4 10 -3 0&#10;-8 -4 -11 -10z"/>
<path d="M1251 3417 c-8 -10 -7 -14 2 -14 8 0 14 6 14 14 0 7 -1 13 -2 13 -2&#10;0 -8 -6 -14 -13z"/>
<path d="M1177 3320 c-9 -11 -13 -20 -7 -20 5 0 14 9 20 20 6 11 9 20 8 20 -2&#10;0 -11 -9 -21 -20z"/>
<path d="M1065 3171 c-3 -5 -2 -12 3 -15 5 -3 9 1 9 9 0 17 -3 19 -12 6z"/>
<path d="M1037 3126 c-3 -8 -2 -18 3 -21 13 -8 20 9 11 24 -6 10 -10 9 -14 -3z"/>
<path d="M966 2953 c-6 -14 -5 -15 5 -6 7 7 10 15 7 18 -3 3 -9 -2 -12 -12z"/>
<path d="M948 2923 c7 -3 16 -2 19 1 4 3 -2 6 -13 5 -11 0 -14 -3 -6 -6z"/>
<path d="M941 2894 c0 -11 3 -14 6 -6 3 7 2 16 -1 19 -3 4 -6 -2 -5 -13z"/>
<path d="M891 2724 c0 -11 3 -14 6 -6 3 7 2 16 -1 19 -3 4 -6 -2 -5 -13z"/>
<path d="M828 1823 c7 -3 16 -2 19 1 4 3 -2 6 -13 5 -11 0 -14 -3 -6 -6z"/>
<path d="M683 1240 c0 -47 2 -66 4 -42 2 23 2 61 0 85 -2 23 -4 4 -4 -43z"/>
<path d="M925 730 c3 -5 8 -10 11 -10 2 0 4 5 4 10 0 6 -5 10 -11 10 -5 0 -7&#10;-4 -4 -10z"/>
<path d="M3851 884 c0 -11 3 -14 6 -6 3 7 2 16 -1 19 -3 4 -6 -2 -5 -13z"/>
<path d="M3830 835 c-7 -9 -11 -17 -9 -20 3 -2 10 5 17 15 14 24 10 26 -8 5z"/>
<path d="M1945 3910 c-3 -5 -2 -10 4 -10 5 0 13 5 16 10 3 6 2 10 -4 10 -5 0&#10;-13 -4 -16 -10z"/>
<path d="M1808 3873 c7 -3 16 -2 19 1 4 3 -2 6 -13 5 -11 0 -14 -3 -6 -6z"/>
<path d="M2739 3867 c7 -7 14 -8 21 -1 6 6 2 10 -12 11 -16 2 -18 -1 -9 -10z"/>
<path d="M2988 3793 c7 -3 16 -2 19 1 4 3 -2 6 -13 5 -11 0 -14 -3 -6 -6z"/>
<path d="M1530 3779 c-12 -8 -10 -9 9 -4 17 5 22 4 16 -5 -5 -9 -4 -11 4 -6 6&#10;4 9 12 6 17 -8 12 -16 11 -35 -2z"/>
<path d="M2985 3770 c-3 -6 1 -7 9 -4 18 7 21 14 7 14 -6 0 -13 -4 -16 -10z"/>
<path d="M1422 3701 c-11 -7 -10 -9 3 -14 9 -4 13 -3 10 2 -3 5 3 12 12 14 13&#10;3 14 5 3 6 -8 0 -21 -3 -28 -8z"/>
<path d="M3180 3630 c0 -4 7 -7 15 -6 23 3 26 12 5 13 -11 1 -20 -2 -20 -7z"/>
<path d="M3236 3632 c-2 -4 4 -8 14 -8 10 0 16 4 14 8 -3 4 -9 8 -14 8 -5 0&#10;-11 -4 -14 -8z"/>
<path d="M1291 3616 c-9 -11 -9 -16 1 -22 7 -4 10 -4 6 1 -4 4 -3 14 3 22 6 7&#10;9 13 6 13 -2 0 -10 -6 -16 -14z"/>
<path d="M3286 3548 c3 -4 11 -5 19 -1 21 7 19 12 -4 10 -11 0 -18 -5 -15 -9z"/>
<path d="M3393 3465 c0 -6 8 -11 17 -11 9 0 17 5 17 11 0 6 -8 11 -17 11 -9 0&#10;-17 -5 -17 -11z"/>
<path d="M3491 3384 c0 -11 3 -14 6 -6 3 7 2 16 -1 19 -3 4 -6 -2 -5 -13z"/>
<path d="M1049 3373 c-12 -16 -12 -17 2 -6 9 7 20 9 24 5 5 -4 5 -1 1 6 -9 16&#10;-11 15 -27 -5z"/>
<path d="M911 3114 c0 -11 3 -14 6 -6 3 7 2 16 -1 19 -3 4 -6 -2 -5 -13z"/>
<path d="M748 2377 c-3 -14 0 -24 7 -24 7 0 10 10 7 24 -2 13 -6 23 -7 23 -1&#10;0 -5 -10 -7 -23z"/>
<path d="M788 1943 c6 -2 9 -10 6 -15 -4 -7 -2 -8 5 -4 13 9 5 26 -12 25 -9 0&#10;-8 -2 1 -6z"/>
<path d="M3873 1859 c-1 -10 2 -21 8 -24 5 -4 6 2 2 11 -4 10 -2 15 4 11 5 -3&#10;10 0 10 7 0 20 -23 15 -24 -5z"/>
<path d="M572 940 c0 -14 2 -19 5 -12 2 6 2 18 0 25 -3 6 -5 1 -5 -13z"/>
<path d="M643 727 c0 -8 6 -14 14 -14 9 0 10 4 2 14 -6 7 -12 13 -14 13 -1 0&#10;-2 -6 -2 -13z"/>
<path d="M683 701 c0 -11 5 -18 9 -15 4 3 5 11 1 19 -7 21 -12 19 -10 -4z"/>
<path d="M3893 697 c0 -8 6 -14 14 -14 9 0 10 4 2 14 -6 7 -12 13 -14 13 -1 0&#10;-2 -6 -2 -13z"/>
</g>
</svg>